<svg width="224" height="394" viewBox="0 0 224 394" fill="none" xmlns="http://www.w3.org/2000/svg">
<path d="M211.862 159.749L202.682 261.549C195.962 264.579 192.692 267.419 183.462 269.669C169.752 273.019 157.352 273.779 147.382 273.559C141.762 276.579 133.812 279.969 123.752 281.699C115.742 283.079 108.612 283.029 102.972 282.539L89.8317 393.439H0.22168L75.3717 200.209C78.1717 210.109 81.1617 224.569 87.2517 235.669C95.4517 224.909 116.032 203.799 125.432 190.569C127.052 188.289 128.512 186.129 129.822 184.059L211.852 159.749H211.862Z" fill="#E94F37"/>
<path d="M129.832 184.058C128.512 186.118 127.062 188.288 125.442 190.568C116.042 203.798 95.4618 224.898 87.2618 235.658C81.1718 224.568 78.1818 210.108 75.3818 200.198L129.842 184.048L129.832 184.058Z" fill="#E94F37"/>
<path d="M99.4719 247.438C104.942 245.878 109.982 243.488 114.242 240.018C118.542 236.588 121.962 232.188 124.692 227.208C123.372 232.778 119.962 237.858 115.432 241.508C113.142 243.308 110.612 244.808 107.892 245.808C105.192 246.848 102.312 247.388 99.4619 247.438" fill="#CA3728"/>
<path d="M145.091 272.919C146.101 269.249 146.641 265.689 146.391 262.119C146.181 258.539 145.201 255.079 143.771 251.559C146.501 254.259 148.042 258.109 148.302 262.009C148.532 265.899 147.471 269.929 145.091 272.929" fill="#CA3728"/>
<path d="M165.311 12.1985C165.281 12.0685 165.231 11.9185 165.181 11.7885C165.201 11.7685 165.181 11.7685 165.181 11.7685C165.181 11.7185 165.151 11.6385 165.101 11.5885C164.971 11.2585 164.791 10.9485 164.561 10.6985C164.531 10.6485 164.481 10.5985 164.431 10.5485C164.171 10.2385 163.871 10.0185 163.561 9.83846C163.411 9.73846 163.251 9.65848 163.071 9.60848C163.051 9.60848 163.051 9.57851 163.021 9.57851L162.871 9.52846L139.201 0.818501C137.341 0.128501 135.341 1.22849 134.711 3.24849C134.071 5.26849 135.071 7.4385 136.931 8.1285L158.361 15.9985L160.761 16.8885C161.141 17.0385 161.531 17.0885 161.911 17.0885C163.391 17.0885 164.771 16.0685 165.261 14.4585C165.361 14.1485 165.411 13.8485 165.441 13.5385V12.9285C165.441 12.6685 165.391 12.4385 165.311 12.2085M165.311 12.2085C165.281 12.0785 165.231 11.9285 165.181 11.7985C165.201 11.7785 165.181 11.7785 165.181 11.7785V11.7285C165.151 11.6785 165.131 11.6285 165.101 11.5985C164.971 11.2685 164.791 10.9585 164.561 10.7085C164.531 10.6585 164.481 10.6085 164.431 10.5585C164.171 10.2485 163.871 10.0285 163.561 9.84847C163.461 9.79847 163.381 9.74851 163.281 9.69851C163.231 9.66851 163.151 9.64849 163.081 9.61849C163.061 9.61849 163.061 9.58846 163.031 9.58846L162.881 9.53847C162.571 9.43847 162.241 9.38851 161.911 9.38851C159.941 9.38851 158.361 11.0985 158.361 13.2485V40.3685H165.431V12.9385C165.431 12.6785 165.381 12.4485 165.301 12.2185M220.361 82.3485H103.421C101.451 82.3485 99.9014 84.0885 99.9014 86.2085V118.058C99.9014 120.178 101.461 121.918 103.421 121.918H220.361C222.301 121.918 223.911 120.178 223.911 118.058V86.2085C223.911 84.0885 222.301 82.3485 220.361 82.3485ZM216.351 128.598C215.691 127.828 214.711 127.348 213.721 127.348H110.061C109.041 127.348 108.091 127.838 107.401 128.598C106.741 129.438 106.401 130.518 106.531 131.608L109.241 159.748L111.281 181.098L114.881 218.639L118.941 260.798C118.961 261.048 119.021 261.289 119.091 261.509C119.271 262.169 119.601 262.758 120.061 263.218C120.081 263.238 120.081 263.269 120.111 263.269C120.111 263.299 120.131 263.298 120.131 263.298C120.771 263.908 121.561 264.269 122.451 264.269H201.281C201.891 264.269 202.481 264.088 202.991 263.778C203.961 263.168 204.651 262.088 204.781 260.788L208.871 218.678V218.548L212.621 179.579L214.541 159.738L217.251 131.598C217.351 130.498 217.021 129.428 216.331 128.588M217.221 72.5585L214.541 48.9385C214.541 48.8585 214.511 48.8085 214.511 48.7385C214.181 46.8985 212.701 45.5985 210.991 45.5985H112.751C111.041 45.5985 109.561 46.8985 109.281 48.7385C109.231 48.8185 109.231 48.8685 109.231 48.9385L106.551 72.2485C106.531 72.5285 106.471 72.7885 106.471 73.0385C106.471 75.1585 108.081 76.8985 110.051 76.8985H213.711C214.761 76.8985 215.701 76.4385 216.391 75.5685C217.081 74.7285 217.391 73.6585 217.231 72.5585M114.061 69.1885L115.871 53.2785H207.881L209.721 69.1885H114.061Z" fill="#2E3532"/>
<path d="M87.2521 235.659C81.1621 224.569 78.1721 210.109 75.3721 200.199L87.2521 235.659Z" fill="#E94F37"/>
<path d="M213.922 167.249L156.672 163.449L157.312 145.479L216.202 142.829L213.922 167.249Z" fill="#E94F37"/>
<path d="M213.922 167.249L156.672 163.449L157.312 145.479L215.242 142.869L213.922 167.249Z" fill="#E94F37"/>
<path d="M156.672 163.439L157.312 145.479L216.202 142.829" stroke="#CA3728" stroke-miterlimit="10"/>
<path d="M163.662 162.458C164.092 162.148 167.492 159.588 167.692 154.968C167.892 150.308 164.672 147.448 164.272 147.108" stroke="#CA3728" stroke-miterlimit="10" stroke-linecap="round"/>
<path d="M173.951 150.568V161.088" stroke="#CA3728" stroke-miterlimit="10" stroke-linecap="round"/>
<path d="M177.662 152.028V159.618" stroke="#CA3728" stroke-miterlimit="10" stroke-linecap="round"/>
<path d="M211.352 147.208V163.288" stroke="#CA3728" stroke-miterlimit="10" stroke-linecap="round"/>
<path d="M210.361 203.109L151.201 194.359L153.771 176.579L213.051 179.309L210.361 203.109Z" fill="#E94F37"/>
<path d="M151.201 194.359L153.771 176.579L213.051 179.309" stroke="#CA3728" stroke-miterlimit="10"/>
<path d="M160.552 193.959C160.982 193.649 164.402 191.129 164.642 186.509C164.882 181.849 161.682 178.969 161.292 178.619" stroke="#CA3728" stroke-miterlimit="10" stroke-linecap="round"/>
<path d="M173.622 185.238L172.802 192.788" stroke="#CA3728" stroke-miterlimit="10" stroke-linecap="round"/>
<path d="M169.851 182.068L168.562 193.958" stroke="#CA3728" stroke-miterlimit="10" stroke-linecap="round"/>
<path d="M208.932 183.179L205.892 198.969" stroke="#CA3728" stroke-miterlimit="10" stroke-linecap="round"/>
<path d="M208.061 230.889L148.031 223.659L150.151 205.809L210.121 207.029L208.061 230.889Z" fill="#E94F37"/>
<path d="M148.031 223.649L150.151 205.809L210.111 207.029" stroke="#CA3728" stroke-miterlimit="10"/>
<path d="M155.992 223.128C156.422 222.828 159.872 220.338 160.162 215.718C160.452 211.058 157.282 208.138 156.902 207.798" stroke="#CA3728" stroke-miterlimit="10" stroke-linecap="round"/>
<path d="M165.701 211.318L164.562 221.778" stroke="#CA3728" stroke-miterlimit="10" stroke-linecap="round"/>
<path d="M169.221 213.179L168.401 220.729" stroke="#CA3728" stroke-miterlimit="10" stroke-linecap="round"/>
<path d="M206.462 214.539L203.432 230.339" stroke="#CA3728" stroke-miterlimit="10" stroke-linecap="round"/>
<path d="M205.092 257.958L145.092 253.308L146.462 235.398L207.412 234.128L205.092 257.958Z" fill="#E94F37"/>
<path d="M145.092 253.318L146.462 235.398L207.412 234.128" stroke="#CA3728" stroke-miterlimit="10"/>
<path d="M152.052 252.519C152.512 252.259 156.172 250.079 156.872 245.509C157.582 240.899 154.682 237.709 154.322 237.329" stroke="#CA3728" stroke-miterlimit="10" stroke-linecap="round"/>
<path d="M163.572 240.818L162.432 251.278" stroke="#CA3728" stroke-miterlimit="10" stroke-linecap="round"/>
<path d="M167.101 242.668L166.281 250.218" stroke="#CA3728" stroke-miterlimit="10" stroke-linecap="round"/>
<path d="M204.771 241.298L201.731 257.098" stroke="#CA3728" stroke-miterlimit="10" stroke-linecap="round"/>
<path d="M124.252 132.378C123.372 143.078 123.462 152.208 120.592 165.828C120.092 168.228 119.502 170.758 118.792 173.468C114.682 189.168 102.902 216.188 99.0419 229.158C89.4119 220.938 81.5018 208.478 75.3818 200.208C79.5218 192.478 89.9718 167.008 93.7018 156.148C98.0118 143.598 100.482 132.128 101.922 122.488C109.372 125.788 116.812 129.088 124.262 132.378" fill="#E94F37"/>
<path d="M75.3721 200.208C79.5121 192.478 89.962 167.008 93.692 156.148C98.002 143.598 100.472 132.128 101.912 122.488C109.362 125.778 116.802 129.088 124.252 132.378C123.372 143.078 123.462 152.208 120.592 165.828C120.092 168.228 119.492 170.758 118.792 173.468" stroke="#CA3728" stroke-miterlimit="10"/>
<path d="M99.0713 149.438L105.551 151.778" stroke="#CA3728" stroke-miterlimit="10" stroke-linecap="round"/>
<path d="M97.5117 153.759L103.992 156.099" stroke="#CA3728" stroke-miterlimit="10" stroke-linecap="round"/>
<path d="M99.6816 142.278C100.712 143.018 103.552 144.878 106.282 144.068C110.112 142.928 112.962 136.778 110.912 129.338" stroke="#CA3728" stroke-miterlimit="10" stroke-linecap="round"/>
</svg>
