<svg width="262" height="459" viewBox="0 0 262 459" fill="none" xmlns="http://www.w3.org/2000/svg">
<path d="M14.5022 185.719L25.2222 304.519C33.0622 308.059 36.8722 311.369 47.6522 313.989C63.6522 317.899 78.1222 318.789 89.7522 318.529C96.3122 322.049 105.592 326.009 117.322 328.029C126.662 329.649 134.992 329.579 141.562 329.019L156.902 458.439H261.472L173.772 232.939C170.512 244.499 167.012 261.369 159.902 274.319C150.332 261.759 126.312 237.129 115.342 221.689C113.452 219.019 111.752 216.499 110.222 214.089L14.4922 185.719H14.5022Z" fill="#E94F37"/>
<path d="M110.242 214.088C111.782 216.498 113.472 219.018 115.362 221.688C126.342 237.128 150.352 261.758 159.922 274.318C167.032 261.368 170.522 244.498 173.792 232.938L110.242 214.088Z" fill="#E94F37"/>
<path d="M145.671 288.059C142.351 287.949 139.021 287.269 135.881 286.049C132.721 284.859 129.781 283.119 127.131 281.019C121.871 276.779 117.881 270.899 116.231 264.449C119.301 270.319 123.291 275.509 128.331 279.529C133.331 283.589 139.271 286.359 145.671 288.059Z" fill="#CA3728"/>
<path d="M92.4319 317.789C89.7719 314.229 88.5719 309.569 88.8419 305.049C89.1419 300.529 90.8918 296.059 93.9718 292.849C92.1818 296.889 90.9919 300.969 90.7519 305.169C90.4619 309.369 91.1419 313.559 92.4319 317.789Z" fill="#CA3728"/>
<path d="M76.7513 13.5285C76.7213 13.3785 76.6613 13.1985 76.6013 13.0485C76.6313 13.0185 76.6013 13.0185 76.6013 13.0185C76.6013 12.9585 76.5714 12.8685 76.5114 12.8085C76.3614 12.4185 76.1513 12.0585 75.8813 11.7685C75.8513 11.7085 75.7913 11.6485 75.7313 11.5885C75.4313 11.2285 75.0713 10.9585 74.7213 10.7585C74.5413 10.6385 74.3614 10.5485 74.1514 10.4885C74.1214 10.4885 74.1214 10.4585 74.0914 10.4585L73.9113 10.3985L46.2814 0.238506C44.1014 -0.561494 41.7814 0.718524 41.0314 3.06852C40.2914 5.41852 41.4513 7.95853 43.6213 8.75853L68.6313 17.9385L71.4313 18.9785C71.8813 19.1585 72.3214 19.2185 72.7714 19.2185C74.5014 19.2185 76.1113 18.0285 76.6713 16.1485C76.7913 15.7885 76.8513 15.4385 76.8813 15.0785V14.3685C76.8813 14.0685 76.8213 13.7985 76.7313 13.5385M76.7313 13.5385C76.7013 13.3885 76.6414 13.2085 76.5814 13.0585C76.6114 13.0285 76.5814 13.0285 76.5814 13.0285V12.9685C76.5514 12.9085 76.5213 12.8485 76.4913 12.8185C76.3413 12.4285 76.1313 12.0685 75.8613 11.7785C75.8313 11.7185 75.7714 11.6585 75.7114 11.5985C75.4114 11.2385 75.0514 10.9685 74.7014 10.7685C74.5814 10.7085 74.4913 10.6485 74.3713 10.5885C74.3113 10.5585 74.2213 10.5285 74.1313 10.4985C74.1013 10.4985 74.1014 10.4685 74.0714 10.4685L73.8914 10.4085C73.5314 10.2885 73.1514 10.2285 72.7614 10.2285C70.4714 10.2285 68.6213 12.2285 68.6213 14.7285V46.3785H76.8713V14.3685C76.8713 14.0685 76.8113 13.7985 76.7213 13.5385M140.971 95.3785H4.51135C2.21135 95.3785 0.401367 97.4085 0.401367 99.8785V137.038C0.401367 139.508 2.22135 141.538 4.51135 141.538H140.971C143.241 141.538 145.111 139.508 145.111 137.038V99.8785C145.111 97.4085 143.231 95.3785 140.971 95.3785ZM136.291 149.348C135.511 148.458 134.381 147.889 133.221 147.889H12.2513C11.0613 147.889 9.96137 148.458 9.15137 149.348C8.37137 150.328 7.99136 151.579 8.14136 152.869L11.3013 185.709L13.6813 210.629L17.8813 254.439L22.6213 303.639C22.6513 303.939 22.7113 304.208 22.8013 304.468C23.0113 305.248 23.4013 305.928 23.9313 306.468C23.9613 306.498 23.9613 306.528 23.9913 306.528C23.9913 306.558 24.0214 306.559 24.0214 306.559C24.7614 307.279 25.6913 307.689 26.7313 307.689H118.731C119.441 307.689 120.131 307.478 120.731 307.118C121.861 306.398 122.671 305.149 122.821 303.629L127.591 254.489V254.338L131.971 208.859L134.211 185.699L137.371 152.859C137.491 151.579 137.101 150.328 136.301 149.338M137.341 83.9585L134.211 56.3885C134.211 56.2985 134.181 56.2385 134.181 56.1485C133.791 53.9985 132.061 52.4785 130.071 52.4785H15.4213C13.4213 52.4785 11.7013 53.9985 11.3713 56.1485C11.3113 56.2385 11.3113 56.2985 11.3113 56.3885L8.18134 83.5985C8.15134 83.9285 8.09137 84.2285 8.09137 84.5185C8.09137 86.9885 9.97135 89.0185 12.2614 89.0185H133.231C134.451 89.0185 135.551 88.4785 136.361 87.4685C137.161 86.4885 137.521 85.2285 137.341 83.9485M16.9413 80.0185L19.0613 61.4485H126.441L128.591 80.0185H16.9514H16.9413Z" fill="#2E3532"/>
<path d="M159.922 274.309C167.032 261.359 170.522 244.489 173.792 232.929L159.922 274.309Z" fill="#E94F37"/>
<path d="M12.1114 194.469L78.9114 190.029L78.1614 169.079L9.44141 165.979L12.1114 194.469Z" fill="#E94F37"/>
<path d="M12.1115 194.468L78.9115 190.028L78.1615 169.078L10.5615 166.028L12.1115 194.468Z" fill="#E94F37"/>
<path d="M78.9114 190.039L78.1614 169.079L9.44141 165.979" stroke="#CA3728" stroke-miterlimit="10"/>
<path d="M70.7618 188.879C70.2618 188.519 66.2918 185.529 66.0618 180.139C65.8218 174.699 69.5917 171.359 70.0517 170.969" stroke="#CA3728" stroke-miterlimit="10" stroke-linecap="round"/>
<path d="M58.7422 175.009V187.289" stroke="#CA3728" stroke-miterlimit="10" stroke-linecap="round"/>
<path d="M54.4219 176.719V185.579" stroke="#CA3728" stroke-miterlimit="10" stroke-linecap="round"/>
<path d="M15.0918 171.088V189.858" stroke="#CA3728" stroke-miterlimit="10" stroke-linecap="round"/>
<path d="M16.2521 236.328L85.3021 226.118L82.2921 205.358L13.1221 208.548L16.2521 236.328Z" fill="#E94F37"/>
<path d="M85.3021 226.118L82.2921 205.358L13.1221 208.548" stroke="#CA3728" stroke-miterlimit="10"/>
<path d="M74.3819 225.638C73.8819 225.278 69.8919 222.328 69.6019 216.938C69.3219 211.498 73.0519 208.128 73.5119 207.738" stroke="#CA3728" stroke-miterlimit="10" stroke-linecap="round"/>
<path d="M59.1318 215.469L60.0919 224.279" stroke="#CA3728" stroke-miterlimit="10" stroke-linecap="round"/>
<path d="M63.5312 211.769L65.0412 225.639" stroke="#CA3728" stroke-miterlimit="10" stroke-linecap="round"/>
<path d="M17.9316 213.059L21.4716 231.499" stroke="#CA3728" stroke-miterlimit="10" stroke-linecap="round"/>
<path d="M18.942 268.749L88.992 260.299L86.522 239.469L16.542 240.899L18.942 268.749Z" fill="#E94F37"/>
<path d="M88.992 260.299L86.522 239.469L16.542 240.899" stroke="#CA3728" stroke-miterlimit="10"/>
<path d="M79.7016 259.679C79.1916 259.329 75.1716 256.419 74.8316 251.029C74.4916 245.599 78.1916 242.189 78.6416 241.789" stroke="#CA3728" stroke-miterlimit="10" stroke-linecap="round"/>
<path d="M68.3818 245.909L69.7018 258.119" stroke="#CA3728" stroke-miterlimit="10" stroke-linecap="round"/>
<path d="M64.2617 248.079L65.2217 256.889" stroke="#CA3728" stroke-miterlimit="10" stroke-linecap="round"/>
<path d="M20.8018 249.668L24.3418 268.098" stroke="#CA3728" stroke-miterlimit="10" stroke-linecap="round"/>
<path d="M22.4022 300.328L92.4321 294.908L90.8322 273.998L19.7021 272.528L22.4022 300.328Z" fill="#E94F37"/>
<path d="M92.4321 294.908L90.8322 273.998L19.7021 272.528" stroke="#CA3728" stroke-miterlimit="10"/>
<path d="M84.3021 293.989C83.7621 293.679 79.5021 291.149 78.6821 285.809C77.8521 280.429 81.2421 276.699 81.6521 276.259" stroke="#CA3728" stroke-miterlimit="10" stroke-linecap="round"/>
<path d="M70.8613 280.329L72.1913 292.539" stroke="#CA3728" stroke-miterlimit="10" stroke-linecap="round"/>
<path d="M66.7422 282.488L67.7022 291.298" stroke="#CA3728" stroke-miterlimit="10" stroke-linecap="round"/>
<path d="M22.7812 280.889L26.3212 299.329" stroke="#CA3728" stroke-miterlimit="10" stroke-linecap="round"/>
<path d="M116.752 153.779C117.782 166.269 117.672 176.919 121.022 192.809C121.602 195.609 122.302 198.569 123.122 201.729C127.922 220.049 141.662 251.589 146.172 266.719C157.402 257.129 166.642 242.579 173.792 232.929C168.962 223.909 156.762 194.179 152.412 181.509C147.372 166.869 144.492 153.469 142.822 142.229C134.122 146.079 125.442 149.929 116.752 153.769" fill="#E94F37"/>
<path d="M173.792 232.938C168.962 223.918 156.762 194.198 152.412 181.518C147.382 166.878 144.502 153.488 142.822 142.238C134.122 146.088 125.442 149.938 116.752 153.778C117.782 166.268 117.672 176.918 121.022 192.808C121.602 195.598 122.302 198.558 123.122 201.728" stroke="#CA3728" stroke-miterlimit="10"/>
<path d="M146.131 173.699L138.571 176.419" stroke="#CA3728" stroke-miterlimit="10" stroke-linecap="round"/>
<path d="M147.952 178.729L140.382 181.459" stroke="#CA3728" stroke-miterlimit="10" stroke-linecap="round"/>
<path d="M145.412 165.329C144.212 166.199 140.892 168.359 137.712 167.419C133.242 166.089 129.912 158.909 132.302 150.229" stroke="#CA3728" stroke-miterlimit="10" stroke-linecap="round"/>
</svg>
