<svg width="230" height="403" viewBox="0 0 230 403" fill="none" xmlns="http://www.w3.org/2000/svg">
<path d="M216.741 163.419L207.351 267.539C200.481 270.639 197.141 273.549 187.691 275.839C173.671 279.269 160.991 280.049 150.791 279.819C145.041 282.909 136.911 286.379 126.621 288.149C118.431 289.569 111.141 289.509 105.371 289.009L91.9312 402.429H0.28125L77.1413 204.789C80.0013 214.919 83.0612 229.709 89.3012 241.049C97.6912 230.039 118.731 208.459 128.351 194.929C130.011 192.589 131.491 190.379 132.841 188.269L216.741 163.409V163.419Z" fill="#E94F37"/>
<path d="M132.832 188.279C131.482 190.389 130.002 192.599 128.342 194.939C118.722 208.469 97.6716 230.059 89.2916 241.059C83.0616 229.709 80.0016 214.919 77.1416 204.789L132.842 188.269L132.832 188.279Z" fill="#E94F37"/>
<path d="M101.781 253.108C107.381 251.528 112.541 249.088 116.911 245.538C121.311 242.028 124.811 237.528 127.591 232.418C126.231 238.098 122.741 243.298 118.111 247.028C115.771 248.868 113.181 250.398 110.401 251.428C107.641 252.488 104.701 253.058 101.791 253.108" fill="#CA3728"/>
<path d="M148.442 279.168C149.492 275.428 150.052 271.778 149.792 268.118C149.582 264.458 148.572 260.908 147.092 257.318C149.872 260.088 151.442 264.018 151.702 268.008C151.932 271.988 150.862 276.098 148.442 279.178" fill="#CA3728"/>
<path d="M169.121 12.4983C169.101 12.3683 169.041 12.2083 168.991 12.0783C169.021 12.0483 168.991 12.0483 168.991 12.0483C168.991 11.9983 168.961 11.9183 168.911 11.8683C168.781 11.5283 168.601 11.2184 168.361 10.9584C168.331 10.9084 168.281 10.8483 168.231 10.7983C167.971 10.4883 167.661 10.2483 167.341 10.0683C167.181 9.95834 167.031 9.8883 166.851 9.8383C166.821 9.8383 166.821 9.80833 166.801 9.80833L166.641 9.75834L142.431 0.848308C140.521 0.148308 138.491 1.26835 137.831 3.32835C137.181 5.38835 138.201 7.60834 140.101 8.31834L162.011 16.3683L164.461 17.2783C164.851 17.4383 165.251 17.4883 165.641 17.4883C167.151 17.4883 168.561 16.4483 169.061 14.7983C169.171 14.4883 169.221 14.1683 169.241 13.8583V13.2283C169.241 12.9683 169.191 12.7283 169.111 12.4983M169.111 12.4983C169.091 12.3683 169.031 12.2083 168.981 12.0783C169.011 12.0483 168.981 12.0483 168.981 12.0483V11.9983C168.951 11.9483 168.931 11.8883 168.901 11.8683C168.771 11.5283 168.591 11.2184 168.351 10.9584C168.321 10.9084 168.271 10.8483 168.221 10.7983C167.961 10.4883 167.651 10.2483 167.331 10.0683C167.231 10.0183 167.151 9.95831 167.041 9.90831C166.991 9.87831 166.911 9.85835 166.831 9.82835C166.801 9.82835 166.801 9.79832 166.781 9.79832L166.621 9.74833C166.311 9.63833 165.971 9.5883 165.631 9.5883C163.621 9.5883 162.001 11.3383 162.001 13.5283V41.2684H169.241V13.2183C169.241 12.9583 169.191 12.7183 169.111 12.4883M225.431 84.2084H105.831C103.821 84.2084 102.231 85.9883 102.231 88.1483V120.718C102.231 122.888 103.821 124.658 105.831 124.658H225.431C227.411 124.658 229.061 122.878 229.061 120.718V88.1483C229.061 85.9783 227.411 84.2084 225.431 84.2084ZM221.331 131.508C220.651 130.728 219.661 130.228 218.641 130.228H112.621C111.581 130.228 110.611 130.728 109.901 131.508C109.221 132.368 108.881 133.468 109.011 134.588L111.781 163.368L113.871 185.208L117.551 223.608L121.701 266.728C121.731 266.988 121.781 267.228 121.861 267.458C122.041 268.138 122.381 268.738 122.851 269.208C122.871 269.238 122.871 269.258 122.901 269.258C122.901 269.288 122.931 269.288 122.931 269.288C123.581 269.918 124.391 270.278 125.311 270.278H205.941C206.571 270.278 207.171 270.098 207.691 269.778C208.681 269.148 209.391 268.058 209.521 266.718L213.701 223.648V223.518L217.541 183.658L219.501 163.368L222.271 134.588C222.381 133.468 222.041 132.368 221.331 131.508ZM222.241 74.1983L219.501 50.0383C219.501 49.9583 219.471 49.9084 219.471 49.8284C219.131 47.9484 217.621 46.6183 215.871 46.6183H115.391C113.641 46.6183 112.121 47.9484 111.841 49.8284C111.791 49.9084 111.791 49.9583 111.791 50.0383L109.051 73.8883C109.021 74.1783 108.971 74.4383 108.971 74.6983C108.971 76.8683 110.611 78.6383 112.631 78.6383H218.651C219.721 78.6383 220.691 78.1683 221.391 77.2783C222.091 76.4183 222.411 75.3183 222.251 74.1983M116.721 70.7483L118.571 54.4783H212.681L214.561 70.7483H116.711H116.721Z" fill="#2E3532"/>
<path d="M218.192 178.058L157.102 158.648L162.672 141.128L220.462 154.488L218.192 178.058Z" fill="#E94F37"/>
<path d="M148.442 157.609C143.722 167.529 140.512 176.289 132.832 188.279C131.492 190.389 130.002 192.599 128.342 194.939C118.722 208.469 97.6716 230.059 89.2916 241.059C83.0616 229.709 80.0016 214.919 77.1416 204.789C83.9016 198.899 103.122 178.309 110.612 169.279C119.282 158.839 125.802 148.749 130.652 140.059C136.592 145.909 142.512 151.759 148.442 157.609Z" fill="#E94F37"/>
<path d="M215.201 207.768L154.691 198.818L157.321 180.628L217.951 183.428L215.201 207.768Z" fill="#E94F37"/>
<path d="M212.852 236.188L151.452 228.778L153.612 210.528L214.952 211.778L212.852 236.188Z" fill="#E94F37"/>
<path d="M209.811 263.869L148.441 259.119L149.841 240.789L212.181 239.499L209.811 263.869Z" fill="#E94F37"/>
<path d="M89.2916 241.059C83.0616 229.709 80.0016 214.919 77.1416 204.789L89.2916 241.059Z" fill="#E94F37"/>
<path d="M218.192 178.058L157.102 158.648L162.672 141.128L220.462 154.488L218.192 178.058Z" fill="#E94F37"/>
<path d="M157.102 158.648L162.672 141.128L220.462 154.488" stroke="#CA3728" stroke-miterlimit="10"/>
<path d="M154.691 198.818L157.321 180.628L217.951 183.428" stroke="#CA3728" stroke-miterlimit="10"/>
<path d="M151.452 228.778L153.612 210.528L214.952 211.778" stroke="#CA3728" stroke-miterlimit="10"/>
<path d="M148.441 259.119L149.841 240.789L212.181 239.499" stroke="#CA3728" stroke-miterlimit="10"/>
<path d="M77.1318 204.798C83.8918 198.908 103.112 178.318 110.602 169.288C119.272 158.848 125.792 148.758 130.642 140.068C136.582 145.918 142.502 151.768 148.432 157.618C143.712 167.538 140.502 176.298 132.822 188.288C131.482 190.398 129.992 192.608 128.332 194.948" stroke="#CA3728" stroke-miterlimit="10"/>
<path d="M164.262 159.598C164.772 159.408 168.822 157.828 170.292 153.328C171.772 148.788 169.382 145.088 169.082 144.648" stroke="#CA3728" stroke-miterlimit="10" stroke-linecap="round"/>
<path d="M177.661 150.708L174.771 161.078" stroke="#CA3728" stroke-miterlimit="10" stroke-linecap="round"/>
<path d="M180.912 153.168L178.832 160.648" stroke="#CA3728" stroke-miterlimit="10" stroke-linecap="round"/>
<path d="M216.631 158.119L213.531 174.279" stroke="#CA3728" stroke-miterlimit="10" stroke-linecap="round"/>
<path d="M164.262 198.409C164.702 198.099 168.202 195.509 168.452 190.789C168.702 186.019 165.422 183.069 165.032 182.719" stroke="#CA3728" stroke-miterlimit="10" stroke-linecap="round"/>
<path d="M118.182 164.818L123.532 169.398" stroke="#CA3728" stroke-miterlimit="10" stroke-linecap="round"/>
<path d="M115.132 168.378L120.482 172.958" stroke="#CA3728" stroke-miterlimit="10" stroke-linecap="round"/>
<path d="M177.621 189.488L176.781 197.218" stroke="#CA3728" stroke-miterlimit="10" stroke-linecap="round"/>
<path d="M215.631 191.539L212.531 207.689" stroke="#CA3728" stroke-miterlimit="10" stroke-linecap="round"/>
<path d="M159.602 228.239C160.042 227.929 163.572 225.379 163.872 220.659C164.172 215.889 160.932 212.909 160.532 212.559" stroke="#CA3728" stroke-miterlimit="10" stroke-linecap="round"/>
<path d="M169.522 216.168L168.352 226.868" stroke="#CA3728" stroke-miterlimit="10" stroke-linecap="round"/>
<path d="M173.132 218.068L172.292 225.788" stroke="#CA3728" stroke-miterlimit="10" stroke-linecap="round"/>
<path d="M211.211 219.458L208.111 235.618" stroke="#CA3728" stroke-miterlimit="10" stroke-linecap="round"/>
<path d="M155.562 258.309C156.032 258.039 159.772 255.819 160.492 251.139C161.212 246.419 158.252 243.159 157.882 242.769" stroke="#CA3728" stroke-miterlimit="10" stroke-linecap="round"/>
<path d="M167.342 246.329L166.182 257.029" stroke="#CA3728" stroke-miterlimit="10" stroke-linecap="round"/>
<path d="M170.951 248.229L170.111 255.949" stroke="#CA3728" stroke-miterlimit="10" stroke-linecap="round"/>
<path d="M209.482 246.829L206.382 262.989" stroke="#CA3728" stroke-miterlimit="10" stroke-linecap="round"/>
<path d="M121.361 158.189C122.071 159.269 124.121 162.079 127.031 162.289C131.111 162.589 136.061 157.729 136.801 149.869" stroke="#CA3728" stroke-miterlimit="10" stroke-linecap="round"/>
</svg>
