<svg width="231" height="405" viewBox="0 0 231 405" fill="none" xmlns="http://www.w3.org/2000/svg">
<path d="M13.1318 164.338L22.5618 268.928C29.4618 272.048 32.8218 274.958 42.3118 277.268C56.4018 280.708 69.1318 281.498 79.3818 281.268C85.1618 284.368 93.3318 287.858 103.662 289.638C111.882 291.058 119.212 291.008 125.002 290.508L138.502 404.448H230.572L153.362 205.908C150.492 216.088 147.412 230.938 141.152 242.338C132.732 231.278 111.582 209.598 101.922 196.008C100.252 193.658 98.7618 191.438 97.4118 189.318L13.1318 164.348V164.338Z" fill="#E94F37"/>
<path d="M97.4121 189.309C98.7621 191.429 100.262 193.649 101.922 195.999C111.582 209.589 132.732 231.279 141.152 242.329C147.412 230.929 150.482 216.079 153.362 205.899L97.4121 189.309Z" fill="#E94F37"/>
<path d="M128.611 254.429C125.681 254.369 122.731 253.809 119.961 252.739C117.171 251.709 114.571 250.169 112.221 248.319C107.571 244.569 104.071 239.349 102.691 233.639C105.481 238.769 109.001 243.299 113.411 246.829C117.801 250.389 122.981 252.839 128.611 254.429Z" fill="#CA3728"/>
<path d="M81.7314 280.609C79.3014 277.509 78.2214 273.389 78.4614 269.389C78.7214 265.389 80.3014 261.439 83.0914 258.659C81.6014 262.269 80.5814 265.829 80.3714 269.509C80.1214 273.189 80.6814 276.849 81.7414 280.609" fill="#CA3728"/>
<path d="M60.8215 13.4684V14.0984C60.8515 14.4184 60.9015 14.7284 61.0015 15.0384C61.5015 16.6884 62.9215 17.7384 64.4415 17.7384C64.8315 17.7384 65.2315 17.6884 65.6215 17.5284L68.0915 16.6084L90.1014 8.52836C92.0214 7.81836 93.0415 5.58841 92.3815 3.51841C91.7215 1.44841 89.6815 0.318358 87.7615 1.02836L63.4415 9.97837L63.2815 10.0284C63.2815 10.0284 63.2614 10.0484 63.2314 10.0484C63.0514 10.0984 62.8914 10.1784 62.7314 10.2884C62.4114 10.4684 62.1015 10.7084 61.8415 11.0284C61.7915 11.0784 61.7315 11.1384 61.7115 11.1884C61.4815 11.4484 61.2914 11.7684 61.1614 12.1084C61.1114 12.1584 61.0815 12.2384 61.0815 12.2884C61.0815 12.2884 61.0615 12.2884 61.0815 12.3184C61.0315 12.4484 60.9815 12.6084 60.9515 12.7384C60.8715 12.9684 60.8215 13.2084 60.8215 13.4684ZM60.8215 13.4684V41.6484H68.0915V13.7884C68.0915 11.5884 66.4615 9.82841 64.4415 9.82841C64.1015 9.82841 63.7615 9.87838 63.4415 9.98838L63.2815 10.0384C63.2815 10.0384 63.2614 10.0584 63.2314 10.0584C63.1514 10.0884 63.0715 10.1084 63.0215 10.1384C62.9115 10.1884 62.8414 10.2484 62.7314 10.2984C62.4114 10.4784 62.1015 10.7184 61.8415 11.0384C61.7915 11.0884 61.7315 11.1484 61.7115 11.1984C61.4815 11.4584 61.2914 11.7784 61.1614 12.1184C61.1314 12.1484 61.1115 12.1984 61.0815 12.2484V12.2984C61.0815 12.2984 61.0615 12.2984 61.0815 12.3284C61.0315 12.4584 60.9815 12.6184 60.9515 12.7484C60.8715 12.9784 60.8215 13.2184 60.8215 13.4784M0.731445 88.7584V121.478C0.731445 123.658 2.38147 125.438 4.38147 125.438H124.531C126.551 125.438 128.151 123.658 128.151 121.478V88.7584C128.151 86.5784 126.551 84.7984 124.531 84.7984H4.38147C2.39147 84.7984 0.731445 86.5784 0.731445 88.7584ZM7.55145 135.408L10.3315 164.328L12.3015 184.718L16.1614 224.758V224.888L20.3615 268.158C20.4915 269.498 21.2015 270.598 22.2015 271.228C22.7315 271.548 23.3315 271.728 23.9615 271.728H104.961C105.881 271.728 106.691 271.358 107.351 270.728C107.351 270.728 107.381 270.728 107.381 270.698C107.411 270.698 107.411 270.678 107.431 270.648C107.901 270.178 108.241 269.568 108.431 268.888C108.511 268.648 108.561 268.418 108.591 268.148L112.761 224.828L116.461 186.258L118.561 164.318L121.341 135.398C121.471 134.268 121.131 133.168 120.451 132.298C119.741 131.508 118.771 131.008 117.721 131.008H11.2214C10.2014 131.008 9.20148 131.508 8.52148 132.298C7.81148 133.168 7.47148 134.268 7.58148 135.398M8.47144 77.8284C9.18144 78.7184 10.1514 79.1884 11.2214 79.1884H117.721C119.741 79.1884 121.391 77.4084 121.391 75.2284C121.391 74.9684 121.341 74.6984 121.311 74.4184L118.561 50.4684C118.561 50.3884 118.561 50.3384 118.511 50.2584C118.221 48.3684 116.701 47.0284 114.941 47.0284H14.0015C12.2415 47.0284 10.7215 48.3684 10.3815 50.2584C10.3815 50.3384 10.3514 50.3884 10.3514 50.4684L7.59149 74.7384C7.43149 75.8684 7.75149 76.9684 8.46149 77.8384M15.3115 71.2784L17.2015 54.9284H111.741L113.601 71.2784H15.3115Z" fill="#2E3532"/>
<path d="M141.162 242.328C147.422 230.928 150.492 216.078 153.372 205.898L141.162 242.328Z" fill="#E94F37"/>
<path d="M11.0219 172.039L69.8319 168.129L69.1719 149.679L8.67188 146.949L11.0219 172.039Z" fill="#E94F37"/>
<path d="M11.0214 172.039L69.8314 168.129L69.1713 149.679L9.65137 146.999L11.0214 172.039Z" fill="#E94F37"/>
<path d="M69.8319 168.129L69.1719 149.679L8.67188 146.949" stroke="#CA3728" stroke-miterlimit="10"/>
<path d="M62.6515 167.118C62.2115 166.798 58.7215 164.168 58.5115 159.428C58.3015 154.638 61.6115 151.698 62.0215 151.358" stroke="#CA3728" stroke-miterlimit="10" stroke-linecap="round"/>
<path d="M52.082 154.898V165.708" stroke="#CA3728" stroke-miterlimit="10" stroke-linecap="round"/>
<path d="M48.2715 156.409V164.209" stroke="#CA3728" stroke-miterlimit="10" stroke-linecap="round"/>
<path d="M13.6514 151.449V167.969" stroke="#CA3728" stroke-miterlimit="10" stroke-linecap="round"/>
<path d="M14.6721 208.888L75.4622 199.898L72.8121 181.628L11.9121 184.438L14.6721 208.888Z" fill="#E94F37"/>
<path d="M75.4622 199.898L72.8121 181.628L11.9121 184.438" stroke="#CA3728" stroke-miterlimit="10"/>
<path d="M65.8514 199.479C65.4114 199.159 61.8915 196.569 61.6415 191.819C61.3915 187.029 64.6815 184.069 65.0815 183.719" stroke="#CA3728" stroke-miterlimit="10" stroke-linecap="round"/>
<path d="M52.4219 190.528L53.2619 198.288" stroke="#CA3728" stroke-miterlimit="10" stroke-linecap="round"/>
<path d="M56.292 187.269L57.622 199.479" stroke="#CA3728" stroke-miterlimit="10" stroke-linecap="round"/>
<path d="M16.1416 188.398L19.2616 204.628" stroke="#CA3728" stroke-miterlimit="10" stroke-linecap="round"/>
<path d="M17.0319 237.429L78.7119 229.989L76.5419 211.659L14.9219 212.919L17.0319 237.429Z" fill="#E94F37"/>
<path d="M78.7119 229.989L76.5419 211.659L14.9219 212.919" stroke="#CA3728" stroke-miterlimit="10"/>
<path d="M70.5322 229.449C70.0822 229.139 66.5422 226.579 66.2422 221.839C65.9422 217.049 69.1922 214.049 69.5922 213.699" stroke="#CA3728" stroke-miterlimit="10" stroke-linecap="round"/>
<path d="M60.5615 217.318L61.7315 228.068" stroke="#CA3728" stroke-miterlimit="10" stroke-linecap="round"/>
<path d="M56.9414 219.229L57.7814 226.989" stroke="#CA3728" stroke-miterlimit="10" stroke-linecap="round"/>
<path d="M18.6816 220.628L21.7916 236.858" stroke="#CA3728" stroke-miterlimit="10" stroke-linecap="round"/>
<path d="M20.0822 265.239L81.7321 260.469L80.3322 242.059L17.7021 240.759L20.0822 265.239Z" fill="#E94F37"/>
<path d="M81.7321 260.469L80.3322 242.059L17.7021 240.759" stroke="#CA3728" stroke-miterlimit="10"/>
<path d="M74.5813 259.648C74.1113 259.378 70.3513 257.148 69.6313 252.448C68.9013 247.708 71.8813 244.428 72.2513 244.048" stroke="#CA3728" stroke-miterlimit="10" stroke-linecap="round"/>
<path d="M62.7422 247.628L63.9122 258.378" stroke="#CA3728" stroke-miterlimit="10" stroke-linecap="round"/>
<path d="M59.1221 249.528L59.9621 257.288" stroke="#CA3728" stroke-miterlimit="10" stroke-linecap="round"/>
<path d="M20.4219 248.119L23.5319 264.349" stroke="#CA3728" stroke-miterlimit="10" stroke-linecap="round"/>
<path d="M103.152 136.218C104.062 147.208 103.962 156.598 106.912 170.578C107.422 173.038 108.042 175.648 108.762 178.428C112.992 194.558 125.092 222.328 129.052 235.648C138.942 227.208 147.072 214.398 153.362 205.898C149.112 197.958 138.372 171.788 134.542 160.628C130.112 147.738 127.572 135.948 126.102 126.048C118.442 129.438 110.802 132.828 103.142 136.208" fill="#E94F37"/>
<path d="M153.362 205.898C149.112 197.958 138.372 171.788 134.542 160.628C130.112 147.738 127.572 135.948 126.102 126.048C118.442 129.438 110.802 132.828 103.142 136.208C104.052 147.198 103.952 156.588 106.902 170.568C107.412 173.028 108.032 175.638 108.752 178.418" stroke="#CA3728" stroke-miterlimit="10"/>
<path d="M129.021 153.749L122.361 156.139" stroke="#CA3728" stroke-miterlimit="10" stroke-linecap="round"/>
<path d="M130.612 158.179L123.962 160.579" stroke="#CA3728" stroke-miterlimit="10" stroke-linecap="round"/>
<path d="M128.381 146.379C127.331 147.149 124.411 149.049 121.601 148.219C117.671 147.049 114.741 140.729 116.841 133.079" stroke="#CA3728" stroke-miterlimit="10" stroke-linecap="round"/>
</svg>
