<svg width="497" height="116" viewBox="0 0 497 116" fill="none" xmlns="http://www.w3.org/2000/svg">
<path d="M44.44 115.8C44.44 115.8 45.19 113.79 43.43 109.09L36.89 91.82H13.08C10.9 99.53 10.06 107.5 10.73 115.8H0C0 115.8 1.43 115.05 3.44 109.68L19.29 68.26C22.39 60.13 21.81 58.2 21.81 58.2H33.63L52.83 108.59C55.18 114.71 56.86 115.8 56.86 115.8H44.44ZM35.8 89.05L26.74 65.32C20.87 73.03 16.51 81.08 13.83 89.39L35.8 89.05Z" fill="black"/>
<path d="M119.32 106.57C119.49 114.12 120.49 115.79 120.49 115.79H107.74C107.74 115.79 108.91 113.95 109 105.39V64.55L91.98 95.07L72.53 67.82C69.43 74.28 67.75 78.72 67.75 89.45C67.75 100.18 70.94 106.22 77.98 115.78H64.73C64.73 115.78 65.99 113.77 65.99 104.54V69.41C65.99 60.1 64.73 58.17 64.73 58.17H78.06L95.67 82.82L109 58.17H120.66C120.66 58.17 119.4 60.1 119.4 69.41L119.32 106.56V106.57Z" fill="black"/>
<path d="M186.32 99.7C186.49 110.68 172.57 115.8 162.34 115.8H133.41C133.41 115.8 134.67 113.79 134.67 104.56V69.43C134.67 60.12 133.41 58.19 133.41 58.19H144.39C165.27 58.19 177.76 59.62 177.76 69.43C177.76 76.31 170.13 80 162.08 81.25C173.57 82.68 186.31 86.7 186.31 99.7H186.32ZM177.77 99.03C177.77 83.52 150.6 84.69 144.31 85.11L144.23 111.1C153.54 113.36 177.77 116.47 177.77 99.03ZM144.4 60.21L144.32 82.93C149.35 82.59 169.22 80.5 169.22 70.27C169.22 59.12 151.28 59.2 144.4 60.21Z" fill="black"/>
<path d="M214.42 113.53C229.18 113.53 238.4 109.5 243.52 104.22L243.02 115.79H194.89C194.89 115.79 196.15 113.78 196.15 104.55V69.42C196.15 60.11 194.89 58.18 194.89 58.18H243.02L243.52 69.67C238.41 64.39 229.18 60.45 214.51 60.45C211.83 60.45 208.98 60.62 205.87 60.87L205.79 86.11H209.23C216.61 85.94 224.41 85.36 226.67 84.52V88.63H205.79V113.11C208.89 113.36 211.74 113.53 214.43 113.53H214.42Z" fill="black"/>
<path d="M291.56 110.26L277.89 85.11C276.46 85.19 275.04 85.28 273.7 85.28H266.82V115.8H255.92C255.92 115.8 257.18 113.79 257.18 104.56V69.43C257.18 60.12 255.92 58.19 255.92 58.19H266.82C287.78 58.19 300.19 59.62 300.19 69.43C300.36 77.23 293.98 81.59 286.27 83.69L300.1 108.43C303.2 113.55 304.38 115.39 305.8 115.81H293.06C293.31 115.14 293.4 114.05 291.55 110.28L291.56 110.26ZM291.73 70.26C291.73 59.11 273.79 59.19 266.91 60.11L266.83 83C279.91 82.92 291.73 82.16 291.73 70.26Z" fill="black"/>
<path d="M375.75 78.9H362.42C362.42 78.9 365.52 60.45 341.71 60.45C325.02 60.45 307 73.53 342.55 80.07C371.39 85.44 375.84 93.07 375.84 98.77C375.84 104.81 375.17 115.79 347.25 115.79C311.7 115.79 313.71 92.98 313.71 92.98H325.53C325.53 92.98 323.77 113.52 347.25 113.52C375.34 113.52 370.56 93.4 340.88 88.36C321.43 85.01 313.8 79.05 313.8 73.18C313.8 67.31 319.17 58.17 341.72 58.17C374.84 58.17 375.76 78.88 375.76 78.88L375.75 78.9Z" fill="black"/>
<path d="M426.32 115.8C426.32 115.8 427.07 113.79 425.31 109.09L418.77 91.82H394.96C392.78 99.53 391.94 107.5 392.61 115.8H381.88C381.88 115.8 383.31 115.05 385.32 109.68L401.17 68.26C404.27 60.13 403.69 58.2 403.69 58.2H415.51L434.71 108.59C437.06 114.71 438.74 115.8 438.74 115.8H426.32ZM417.68 89.05L408.62 65.32C402.75 73.03 398.39 81.08 395.71 89.39L417.68 89.05Z" fill="black"/>
<path d="M482.25 110.26L468.58 85.11C467.15 85.19 465.73 85.28 464.39 85.28H457.51V115.8H446.61C446.61 115.8 447.87 113.79 447.87 104.56V69.43C447.87 60.12 446.61 58.19 446.61 58.19H457.51C478.47 58.19 490.88 59.62 490.88 69.43C491.05 77.23 484.67 81.59 476.96 83.69L490.79 108.43C493.89 113.55 495.07 115.39 496.49 115.81H483.75C484 115.14 484.09 114.05 482.24 110.28L482.25 110.26ZM482.42 70.26C482.42 59.11 464.48 59.19 457.6 60.11L457.52 83C470.6 82.92 482.42 82.16 482.42 70.26Z" fill="black"/>
<path d="M83.5909 3.40605C83.5556 5.38428 83.5202 7.30069 83.4849 9.15528C83.4672 9.95011 83.4496 10.7626 83.4319 11.5927C83.4319 12.4229 83.4231 13.2442 83.4054 14.0567C83.4054 14.8515 83.3966 15.6199 83.3789 16.3617C83.3789 17.0859 83.3789 17.7306 83.3789 18.2958C83.3789 19.4792 83.3878 20.9099 83.4054 22.5878C83.4231 24.2658 83.4407 25.9879 83.4584 27.7542C83.4937 29.5204 83.5379 31.2161 83.5909 32.841C83.6439 34.466 83.7057 35.8172 83.7763 36.8946C84.0236 36.93 84.3504 36.9741 84.7566 37.0271C85.1805 37.0624 85.6221 37.0978 86.0813 37.1331C86.5406 37.1508 86.991 37.1684 87.4325 37.1861C87.8741 37.2037 88.245 37.2126 88.5453 37.2126C89.7817 37.2126 91.0446 37.1331 92.3339 36.9741C93.641 36.7975 94.895 36.4796 96.0961 36.0203C97.3148 35.5611 98.4541 34.9341 99.5139 34.1393C100.591 33.3268 101.527 32.2847 102.322 31.0129C103.135 29.7412 103.771 28.2134 104.23 26.4295C104.689 24.6279 104.919 22.5083 104.919 20.0709C104.919 17.3685 104.592 14.9663 103.938 12.8645C103.285 10.7449 102.322 8.96099 101.051 7.51265C99.7965 6.0643 98.2333 4.96921 96.3611 4.22737C94.5065 3.46787 92.3693 3.08812 89.9495 3.08812C89.4726 3.08812 88.9339 3.10579 88.3333 3.14111C87.7328 3.15878 87.1323 3.18527 86.5317 3.2206C85.9489 3.23826 85.3925 3.27358 84.8626 3.32657C84.3504 3.3619 83.9265 3.38839 83.5909 3.40605ZM77.7887 1.02158C78.1949 1.03924 78.5747 1.05691 78.9279 1.07457C79.2282 1.09223 79.5373 1.1099 79.8552 1.12756C80.1731 1.12756 80.4292 1.12756 80.6235 1.12756C80.9591 1.12756 81.5155 1.1099 82.2927 1.07457C83.0875 1.03924 83.9883 1.00392 84.9951 0.968594C86.0018 0.933268 87.0439 0.897943 88.1214 0.862617C89.2165 0.827292 90.2409 0.809629 91.1947 0.809629C93.7558 0.809629 96.1933 1.12756 98.5071 1.76342C100.821 2.39928 102.852 3.44138 104.601 4.88973C106.349 6.33807 107.736 8.23682 108.76 10.586C109.785 12.9351 110.297 15.823 110.297 19.2495C110.297 21.7047 110.023 23.9125 109.476 25.8731C108.946 27.8337 108.195 29.5646 107.224 31.0659C106.252 32.5673 105.086 33.8567 103.726 34.9341C102.384 35.9938 100.892 36.8682 99.2489 37.557C97.6239 38.2458 95.8842 38.7492 94.0296 39.0672C92.175 39.3851 90.2586 39.5441 88.2803 39.5441C87.5738 39.5441 86.7172 39.5176 85.7104 39.4646C84.7213 39.4293 83.7234 39.3851 82.7166 39.3321C81.7098 39.2791 80.756 39.2261 79.8552 39.1731C78.9721 39.1378 78.2832 39.1202 77.7887 39.1202V39.0142C77.8946 38.6433 77.9918 38.184 78.0801 37.6365C78.1861 37.0889 78.2744 36.4089 78.345 35.5964C78.4157 34.7839 78.4687 33.8213 78.504 32.7086C78.5393 31.5782 78.557 30.2623 78.557 28.7609V11.5133C78.557 10.0119 78.5393 8.69605 78.504 7.56563C78.4687 6.41756 78.4157 5.43727 78.345 4.62478C78.2744 3.79464 78.1861 3.09696 78.0801 2.53175C77.9918 1.96654 77.8946 1.49848 77.7887 1.12756V1.02158Z" fill="black"/>
<path d="M133.85 0.491699C136.8 0.491699 139.52 0.977425 142.01 1.94888C144.519 2.90267 146.682 4.25387 148.502 6.00248C150.321 7.73343 151.743 9.81764 152.767 12.2551C153.792 14.6926 154.304 17.3861 154.304 20.3358C154.304 22.0138 154.109 23.6652 153.721 25.2902C153.332 26.9152 152.758 28.4518 151.999 29.9002C151.257 31.3485 150.338 32.6909 149.243 33.9273C148.148 35.146 146.894 36.2058 145.481 37.1066C144.086 37.9897 142.54 38.6786 140.845 39.1731C139.149 39.6854 137.321 39.9415 135.36 39.9415C132.411 39.9415 129.682 39.4734 127.174 38.5373C124.683 37.5835 122.528 36.2411 120.709 34.5102C118.89 32.7792 117.468 30.7039 116.444 28.2841C115.419 25.8466 114.907 23.1442 114.907 20.1768C114.907 18.4989 115.101 16.8474 115.49 15.2224C115.878 13.5975 116.444 12.052 117.185 10.586C117.945 9.11996 118.863 7.77759 119.941 6.55886C121.036 5.32246 122.281 4.25387 123.677 3.35307C125.09 2.45227 126.644 1.75459 128.339 1.26003C130.053 0.747809 131.89 0.491699 133.85 0.491699ZM135.36 37.557C137.321 37.557 139.114 37.2037 140.739 36.4972C142.364 35.7907 143.759 34.7663 144.925 33.4239C146.108 32.0815 147.027 30.4477 147.68 28.5225C148.334 26.5796 148.66 24.3806 148.66 21.9255C148.66 19.2054 148.343 16.6884 147.707 14.3746C147.088 12.0431 146.161 10.0296 144.925 8.33396C143.688 6.62068 142.143 5.28714 140.288 4.33335C138.451 3.3619 136.305 2.87617 133.85 2.87617C131.89 2.87617 130.097 3.22943 128.472 3.93594C126.847 4.62479 125.443 5.63156 124.259 6.95627C123.094 8.28098 122.184 9.90595 121.53 11.8312C120.877 13.7564 120.55 15.9466 120.55 18.4017C120.55 21.1041 120.859 23.6299 121.478 25.9791C122.096 28.3105 123.023 30.3329 124.259 32.0462C125.496 33.7595 127.041 35.1107 128.896 36.0998C130.75 37.0713 132.905 37.557 135.36 37.557Z" fill="black"/>
<path d="M185.09 6.13495L195.688 31.8608L205.994 6.61185C206.4 5.56974 206.7 4.6866 206.895 3.96243C207.089 3.23826 207.186 2.62006 207.186 2.10784C207.186 1.94888 207.177 1.78991 207.16 1.63095C207.142 1.45432 207.115 1.32185 207.08 1.23354V1.12756H212.326V1.23354C211.973 1.62212 211.584 2.24031 211.16 3.08812C210.754 3.93594 210.277 4.98687 209.729 6.24093L195.582 39.9415H193.568L183.262 14.931L173.856 39.9415H171.869L158.887 7.53914C158.569 6.77964 158.243 6.04664 157.907 5.34013C157.589 4.63362 157.28 3.99776 156.98 3.43255C156.697 2.86734 156.441 2.39045 156.211 2.00187C155.964 1.61328 155.787 1.35717 155.681 1.23354V1.12756H163.02V1.23354C162.985 1.42783 162.967 1.57796 162.967 1.68394C162.967 1.78991 162.967 1.91355 162.967 2.05485C162.967 2.65539 163.029 3.29125 163.153 3.96243C163.294 4.63362 163.559 5.4461 163.948 6.39989L173.909 31.5693L183.421 6.24093L185.09 6.13495Z" fill="black"/>
<path d="M216.83 1.12756L244.119 30.1651V11.5133C244.119 10.0119 244.101 8.70488 244.066 7.59213C244.031 6.46171 243.978 5.49026 243.907 4.67777C243.836 3.84762 243.748 3.15878 243.642 2.61123C243.554 2.06368 243.457 1.60445 243.351 1.23354V1.12756H248.066V1.23354C247.961 1.60445 247.863 2.06368 247.775 2.61123C247.687 3.15878 247.607 3.84762 247.537 4.67777C247.466 5.49026 247.413 6.46171 247.378 7.59213C247.342 8.70488 247.325 10.0119 247.325 11.5133V39.65H246.397L219.108 10.639V28.7609C219.108 30.2623 219.126 31.5782 219.161 32.7086C219.197 33.8213 219.25 34.7839 219.32 35.5964C219.391 36.4089 219.47 37.0889 219.559 37.6365C219.647 38.184 219.744 38.6433 219.85 39.0142V39.1202H215.134V39.0142C215.24 38.6433 215.337 38.184 215.426 37.6365C215.532 37.0889 215.62 36.4089 215.691 35.5964C215.761 34.7839 215.814 33.8213 215.85 32.7086C215.885 31.5782 215.903 30.2623 215.903 28.7609V11.5133C215.903 10.0119 215.885 8.70488 215.85 7.59213C215.814 6.46171 215.761 5.49026 215.691 4.67777C215.62 3.84762 215.532 3.15878 215.426 2.61123C215.337 2.06368 215.24 1.60445 215.134 1.23354V1.12756H216.83Z" fill="black"/>
<path d="M265.447 3.45904C263.362 3.45904 261.481 3.55619 259.803 3.75048C258.125 3.92711 256.677 4.1214 255.458 4.33335C254.045 4.59829 252.782 4.88973 251.67 5.20766L252.438 0.915605C252.65 0.933268 252.968 0.950931 253.392 0.968594C253.816 0.986257 254.284 1.00392 254.796 1.02158C255.326 1.03924 255.873 1.05691 256.439 1.07457C257.022 1.07457 257.569 1.0834 258.081 1.10106C258.594 1.10106 259.044 1.1099 259.432 1.12756C259.839 1.12756 260.13 1.12756 260.307 1.12756H275.435C275.612 1.12756 275.894 1.12756 276.283 1.12756C276.689 1.1099 277.148 1.10106 277.66 1.10106C278.173 1.0834 278.711 1.07457 279.277 1.07457C279.859 1.05691 280.407 1.03924 280.919 1.02158C281.449 1.00392 281.926 0.986257 282.35 0.968594C282.774 0.950931 283.092 0.933268 283.304 0.915605L284.072 5.20766C282.942 4.88973 281.67 4.59829 280.257 4.33335C279.038 4.1214 277.59 3.92711 275.912 3.75048C274.234 3.55619 272.353 3.45904 270.269 3.45904V28.7609C270.269 30.2623 270.286 31.5782 270.322 32.7086C270.375 33.8213 270.428 34.7839 270.481 35.5964C270.551 36.4089 270.631 37.0889 270.719 37.6365C270.825 38.184 270.931 38.6433 271.037 39.0142V39.1202H264.705V39.0142C264.811 38.6433 264.908 38.184 264.996 37.6365C265.085 37.0889 265.164 36.4089 265.235 35.5964C265.305 34.7839 265.358 33.8213 265.394 32.7086C265.429 31.5782 265.447 30.2623 265.447 28.7609V3.45904Z" fill="black"/>
<path d="M304.684 0.491699C307.634 0.491699 310.354 0.977425 312.845 1.94888C315.353 2.90267 317.516 4.25387 319.336 6.00248C321.155 7.73343 322.577 9.81764 323.601 12.2551C324.626 14.6926 325.138 17.3861 325.138 20.3358C325.138 22.0138 324.944 23.6652 324.555 25.2902C324.167 26.9152 323.592 28.4518 322.833 29.9002C322.091 31.3485 321.173 32.6909 320.078 33.9273C318.982 35.146 317.728 36.2058 316.315 37.1066C314.92 37.9897 313.375 38.6786 311.679 39.1731C309.983 39.6854 308.155 39.9415 306.195 39.9415C303.245 39.9415 300.516 39.4734 298.008 38.5373C295.518 37.5835 293.363 36.2411 291.543 34.5102C289.724 32.7792 288.302 30.7039 287.278 28.2841C286.253 25.8466 285.741 23.1442 285.741 20.1768C285.741 18.4989 285.935 16.8474 286.324 15.2224C286.713 13.5975 287.278 12.052 288.02 10.586C288.779 9.11996 289.698 7.77759 290.775 6.55886C291.87 5.32246 293.115 4.25387 294.511 3.35307C295.924 2.45227 297.478 1.75459 299.174 1.26003C300.887 0.747809 302.724 0.491699 304.684 0.491699ZM306.195 37.557C308.155 37.557 309.948 37.2037 311.573 36.4972C313.198 35.7907 314.593 34.7663 315.759 33.4239C316.942 32.0815 317.861 30.4477 318.514 28.5225C319.168 26.5796 319.495 24.3806 319.495 21.9255C319.495 19.2054 319.177 16.6884 318.541 14.3746C317.923 12.0431 316.995 10.0296 315.759 8.33396C314.523 6.62068 312.977 5.28714 311.123 4.33335C309.286 3.3619 307.14 2.87617 304.684 2.87617C302.724 2.87617 300.931 3.22943 299.306 3.93594C297.681 4.62479 296.277 5.63156 295.094 6.95627C293.928 8.28098 293.018 9.90595 292.365 11.8312C291.711 13.7564 291.384 15.9466 291.384 18.4017C291.384 21.1041 291.694 23.6299 292.312 25.9791C292.93 28.3105 293.857 30.3329 295.094 32.0462C296.33 33.7595 297.875 35.1107 299.73 36.0998C301.585 37.0713 303.74 37.557 306.195 37.557Z" fill="black"/>
<path d="M355.924 6.13495L366.522 31.8608L376.828 6.61185C377.234 5.56974 377.535 4.6866 377.729 3.96243C377.923 3.23826 378.02 2.62006 378.02 2.10784C378.02 1.94888 378.011 1.78991 377.994 1.63095C377.976 1.45432 377.95 1.32185 377.914 1.23354V1.12756H383.16V1.23354C382.807 1.62212 382.418 2.24031 381.994 3.08812C381.588 3.93594 381.111 4.98687 380.564 6.24093L366.416 39.9415H364.402L354.096 14.931L344.691 39.9415H342.704L329.721 7.53914C329.404 6.77964 329.077 6.04664 328.741 5.34013C328.423 4.63362 328.114 3.99776 327.814 3.43255C327.531 2.86734 327.275 2.39045 327.046 2.00187C326.798 1.61328 326.622 1.35717 326.516 1.23354V1.12756H333.855V1.23354C333.819 1.42783 333.802 1.57796 333.802 1.68394C333.802 1.78991 333.802 1.91355 333.802 2.05485C333.802 2.65539 333.863 3.29125 333.987 3.96243C334.128 4.63362 334.393 5.4461 334.782 6.39989L344.744 31.5693L354.255 6.24093L355.924 6.13495Z" fill="black"/>
<path d="M387.664 1.12756L414.953 30.1651V11.5133C414.953 10.0119 414.935 8.70488 414.9 7.59213C414.865 6.46171 414.812 5.49026 414.741 4.67777C414.67 3.84762 414.582 3.15878 414.476 2.61123C414.388 2.06368 414.291 1.60445 414.185 1.23354V1.12756H418.901V1.23354C418.795 1.60445 418.698 2.06368 418.609 2.61123C418.521 3.15878 418.441 3.84762 418.371 4.67777C418.3 5.49026 418.247 6.46171 418.212 7.59213C418.177 8.70488 418.159 10.0119 418.159 11.5133V39.65H417.232L389.943 10.639V28.7609C389.943 30.2623 389.96 31.5782 389.996 32.7086C390.031 33.8213 390.084 34.7839 390.155 35.5964C390.225 36.4089 390.305 37.0889 390.393 37.6365C390.481 38.184 390.578 38.6433 390.684 39.0142V39.1202H385.969V39.0142C386.074 38.6433 386.172 38.184 386.26 37.6365C386.366 37.0889 386.454 36.4089 386.525 35.5964C386.596 34.7839 386.649 33.8213 386.684 32.7086C386.719 31.5782 386.737 30.2623 386.737 28.7609V11.5133C386.737 10.0119 386.719 8.70488 386.684 7.59213C386.649 6.46171 386.596 5.49026 386.525 4.67777C386.454 3.84762 386.366 3.15878 386.26 2.61123C386.172 2.06368 386.074 1.60445 385.969 1.23354V1.12756H387.664Z" fill="black"/>
</svg>
