<svg width="54" height="36" viewBox="0 0 54 36" fill="none" xmlns="http://www.w3.org/2000/svg">
<path d="M52.8097 14.7001C49.1197 14.5601 46.8697 15.9102 45.8097 16.7702C44.6297 15.8602 42.7796 15.8002 41.2096 16.7702C40.9396 16.9402 40.7096 17.1502 40.4796 17.3602C35.5596 16.9202 30.7096 22.9002 30.4996 23.1702C28.1196 25.9502 25.4296 27.5202 22.6396 27.8702C29.1596 20.1402 29.3396 15.1701 28.3096 12.3501C28.3496 12.2901 28.3996 12.2302 28.4296 12.1702C29.5596 10.2702 29.3596 8.01019 28.0696 6.77019C28.4396 5.78019 29.6196 3.4702 33.1496 1.7902C33.5896 1.5802 33.7796 1.05015 33.5696 0.610151C33.3596 0.170151 32.8296 -0.0198927 32.3896 0.190107C28.5396 2.02011 27.0496 4.59014 26.4896 5.97014C24.8596 5.64014 22.9796 6.54011 21.9296 8.32011C21.7396 8.64011 21.6196 8.99012 21.4996 9.33012C16.3696 11.4201 14.6696 19.9501 14.5896 20.3301C13.1696 26.5601 9.51964 30.3902 4.33964 31.1102C4.23964 31.1202 4.14961 31.1402 4.05961 31.1602C0.879613 31.3702 0.69963 32.3901 0.63963 32.7301C0.42963 33.9101 1.96961 34.5902 2.61961 34.8802C4.20961 35.5802 5.94961 35.9202 7.73961 35.9202C11.1596 35.9202 14.7896 34.6702 18.0296 32.3102C20.1896 33.6502 22.8396 34.3601 25.6896 34.3601C27.8496 34.3601 30.1096 33.9602 32.3596 33.1302C41.8396 29.6402 44.2796 25.5201 44.6896 22.7101C44.7296 22.6801 44.7796 22.6702 44.8196 22.6402C46.4996 21.6002 47.2996 19.7401 46.8196 18.2001C47.5396 17.5601 49.3796 16.3101 52.7296 16.4701C53.2396 16.4901 53.6296 16.1102 53.6496 15.6202C53.6696 15.1302 53.2897 14.7201 52.7997 14.7001H52.8097ZM26.5996 7.86015C27.3496 8.30015 27.5596 9.39014 27.2296 10.4701C26.3796 9.48014 25.1596 8.86015 23.8596 8.86015C23.8596 8.86015 23.7796 8.87016 23.7396 8.87016C24.5396 7.84016 25.7596 7.36015 26.5896 7.86015H26.5996ZM3.33964 33.2502C3.20964 33.1902 3.09962 33.1401 2.99962 33.0901C3.37962 33.0101 3.83963 32.9502 4.25963 32.9302C4.51963 32.9102 4.74959 32.7901 4.90959 32.5901C4.71959 32.8401 4.46964 32.9002 4.58964 32.8802C10.5596 32.0402 14.7296 27.7301 16.3396 20.7001C16.3596 20.6001 18.3496 10.6502 23.8696 10.6402C24.7496 10.6402 25.6396 11.1302 26.1296 11.8902C27.4596 13.9502 28.4596 18.7602 20.3096 27.8602C19.5896 27.7702 18.8696 27.6302 18.1496 27.3702C18.0696 27.3402 17.9896 27.3102 17.9096 27.2902C15.2696 26.1202 14.6696 26.8902 14.4696 27.1502C13.7696 28.0502 14.7296 29.2602 15.1396 29.7702C15.5496 30.2902 16.0296 30.7502 16.5196 31.1802C12.1896 34.1302 7.22963 34.9502 3.32963 33.2402L3.33964 33.2502ZM31.7496 31.4701C25.7496 33.6801 19.6296 32.5602 16.5296 28.6702C16.7696 28.7502 17.0296 28.8501 17.2696 28.9601C17.3796 29.0101 17.5096 29.0402 17.6296 29.0402C17.6296 29.0402 17.5996 29.0402 17.5896 29.0402C17.5296 29.0402 17.5096 29.0402 17.5496 29.0502C18.4696 29.3802 19.3896 29.5502 20.3096 29.6502C20.4496 29.7102 20.6096 29.7201 20.7596 29.7001C24.7196 29.9801 28.5796 28.1602 31.8796 24.3102C31.9296 24.2402 37.5196 17.3302 41.7796 19.5602C42.4396 19.9102 42.9096 20.6202 42.9796 21.3902C43.1696 23.5402 41.9696 27.7001 31.7496 31.4601V31.4701ZM44.5896 20.5502C44.3096 19.5002 43.6297 18.5902 42.6797 18.0602C43.6297 17.7002 44.6196 17.8402 45.0096 18.4902C45.3696 19.0702 45.1696 19.9002 44.5796 20.5602L44.5896 20.5502Z" fill="black"/>
<path d="M40.1498 23.3102C39.7198 23.0602 39.1797 23.2102 38.9397 23.6302C38.8697 23.7402 37.2798 26.3902 33.1498 27.4102C32.6698 27.5302 32.3797 28.0102 32.4997 28.4902C32.5997 28.9002 32.9597 29.1702 33.3597 29.1702C33.4297 29.1702 33.4997 29.1702 33.5697 29.1402C38.4697 27.9302 40.3897 24.6602 40.4697 24.5202C40.7097 24.1002 40.5697 23.5602 40.1397 23.3102H40.1498Z" fill="black"/>
<path d="M22.6299 22.4901C22.8899 22.4901 23.1399 22.3802 23.3199 22.1602C26.4899 18.2402 26.0399 14.4702 26.0199 14.3102C25.9599 13.8302 25.4999 13.4802 25.0299 13.5502C24.5499 13.6102 24.1999 14.0502 24.2599 14.5402C24.2799 14.6702 24.6098 17.7502 21.9398 21.0502C21.6298 21.4302 21.6899 21.9902 22.0699 22.3002C22.2399 22.4302 22.4299 22.5001 22.6299 22.5001V22.4901Z" fill="black"/>
</svg>
