<svg width="42" height="30" viewBox="0 0 42 30" fill="none" xmlns="http://www.w3.org/2000/svg">
<path d="M5.41058 9.83995C2.88058 13.34 2.16064 17.7599 3.59064 21.0699C3.72064 21.3299 3.91059 21.4599 4.17059 21.4599C4.23059 21.4599 4.3606 21.46 4.4306 21.4C4.7506 21.27 4.88061 20.88 4.75061 20.56C3.52061 17.64 4.17061 13.75 6.44061 10.56C6.63061 10.3 6.57061 9.85001 6.31061 9.65001C5.99061 9.46001 5.60063 9.51995 5.40063 9.83995H5.41058Z" fill="black"/>
<path d="M35.4605 10.0301V9.84001C35.4005 9.19001 35.0706 8.61008 34.5506 8.28008C33.4506 7.50008 32.2105 7.05009 30.9205 6.79009C30.2105 6.66009 29.4905 6.92004 29.0405 7.37004C28.5905 6.92004 27.8705 6.66009 27.1605 6.79009C25.8605 7.05009 24.6305 7.57008 23.5305 8.28008C23.0105 8.60008 22.6905 9.19001 22.6205 9.84001V10.0301C21.9105 10.0301 21.2605 10.42 20.8705 11C20.1605 12.1 19.6405 13.3401 19.3805 14.6301C19.2505 15.2801 19.4405 15.9301 19.8305 16.3801L19.9605 16.5101L19.8305 16.6401C19.4405 17.1601 19.2505 17.8101 19.3805 18.3901C19.6405 19.6901 20.1605 20.9201 20.8705 22.0201C21.2605 22.6001 21.9105 22.9301 22.6205 22.9301V23.12C22.6805 23.77 23.0105 24.3501 23.5305 24.6801C24.6305 25.4601 25.8705 25.9101 27.1605 26.1701C27.2905 26.1701 27.4205 26.23 27.5505 26.23C28.1305 26.23 28.6505 25.9701 29.0405 25.6501C29.4305 26.0401 29.9505 26.23 30.5305 26.23C30.6605 26.23 30.7905 26.2301 30.9205 26.1701C32.2205 25.9101 33.4506 25.3901 34.5506 24.6801C35.0706 24.3601 35.3905 23.77 35.4605 23.12V22.9301C36.1705 22.9301 36.8205 22.54 37.2105 21.96C37.9205 20.86 38.4405 19.62 38.7005 18.33C38.8305 17.68 38.6405 17.1 38.2505 16.58L38.1205 16.45L38.2505 16.32C38.6405 15.8 38.8305 15.15 38.7005 14.57C38.4405 13.27 37.9205 12.04 37.2105 10.94C36.8205 10.36 36.1705 10.0301 35.4605 10.0301ZM30.6605 8.02007C31.7605 8.21007 32.8705 8.66999 33.8405 9.31999C34.0305 9.44999 34.1605 9.71007 34.2305 9.90007C34.2305 10.1601 34.1705 10.4201 33.9705 10.5501L30.3405 14.1801C30.1505 14.0501 29.8905 13.9901 29.6905 13.9201V8.79009C29.6905 8.34009 30.0805 7.95006 30.6605 8.01006V8.02007ZM29.0405 17.82C28.3305 17.82 27.7405 17.2401 27.7405 16.5201C27.7405 15.8001 28.3205 15.22 29.0405 15.22C29.7605 15.22 30.3405 15.8001 30.3405 16.5201C30.3405 17.2401 29.6905 17.82 29.0405 17.82ZM24.1705 9.38005C25.1405 8.73005 26.1805 8.28 27.3505 8.08H27.5405C27.9905 8.08 28.3805 8.47009 28.3805 8.92009V14.0501C28.1205 14.1101 27.9305 14.1801 27.7305 14.3101L24.1005 10.6801C23.9105 10.4901 23.8405 10.2901 23.8405 10.0301C23.8405 9.71008 23.9705 9.51005 24.1605 9.38005H24.1705ZM20.5405 14.83C20.7305 13.66 21.1905 12.6201 21.8405 11.6501C21.9705 11.3901 22.2305 11.2601 22.5505 11.2601C22.7405 11.2601 23.0005 11.3201 23.1305 11.5201C23.2605 11.6501 26.9605 15.4101 26.7605 15.1501C26.6305 15.3401 26.5705 15.6001 26.5005 15.8001H21.3705C21.1105 15.8001 20.9205 15.67 20.7205 15.48C20.5305 15.35 20.4605 15.09 20.5305 14.83H20.5405ZM21.9005 21.32C21.2505 20.35 20.8005 19.3101 20.6005 18.1401C20.5405 17.8801 20.6005 17.6201 20.7905 17.4301C20.9205 17.2401 21.1805 17.11 21.4405 17.11H26.5705C26.6305 17.37 26.7005 17.5601 26.8305 17.7601C25.4005 19.1901 23.4505 21.1401 23.2005 21.3901C22.8105 21.7801 22.1605 21.71 21.9005 21.32ZM27.5505 24.95H27.4205C26.2505 24.76 25.2105 24.3001 24.2405 23.6501C23.7905 23.3901 23.7205 22.74 24.1105 22.35C24.1705 22.29 24.6905 21.77 24.6305 21.83L27.7505 18.71C27.9405 18.84 28.2005 18.9 28.4005 18.97V24.1601C28.3305 24.6101 28.0105 24.94 27.5605 24.94L27.5505 24.95ZM33.8505 23.6501C32.8805 24.3001 31.8405 24.75 30.6705 24.95C30.1505 25.08 29.7005 24.6901 29.7005 24.1701V19.0401C29.9605 18.9801 30.1505 18.9101 30.3505 18.7801L33.9805 22.4101C34.1705 22.6001 34.2406 22.8001 34.1706 23.0601C34.1706 23.2601 34.0405 23.4501 33.8505 23.6401V23.6501ZM37.2906 17.4201C37.4206 17.6101 37.4805 17.8701 37.4805 18.1301C37.2905 19.3001 36.8306 20.3401 36.1806 21.3101C35.9206 21.7001 35.2705 21.76 34.9505 21.44L31.3205 17.8101C31.4505 17.6201 31.5105 17.3601 31.5805 17.1601H36.7105C36.9005 17.1601 37.1606 17.2301 37.2906 17.4201ZM37.2906 15.5401C37.1606 15.7301 36.9005 15.86 36.6405 15.86H31.5105C31.4505 15.6 31.3805 15.41 31.2505 15.21L34.8805 11.58C35.2005 11.26 35.8506 11.32 36.1806 11.71C36.8306 12.68 37.2805 13.7201 37.4805 14.8901C37.5505 15.0801 37.4806 15.3401 37.2906 15.5401Z" fill="black"/>
<path d="M28.9704 3.60996C27.0904 3.60996 25.2704 4.05994 23.5804 4.83994C23.6404 4.44994 23.7104 4.18997 23.7704 3.86997C24.0904 1.91997 22.1504 0.299984 20.3304 1.00998C19.1604 1.39998 17.9304 2.24002 15.6604 2.05002C5.99037 1.34002 -2.5796 12.95 1.2504 21.98C2.6104 25.23 0.860378 26.9799 2.48038 28.5999C3.32038 29.4399 4.56043 29.64 5.53043 29.12C6.31043 28.8 7.41038 27.7599 9.36038 27.9499C12.6104 28.2699 16.1704 27.0399 19.0304 24.6999C21.3704 27.6899 24.9404 29.4399 29.0304 29.4399C36.1704 29.4399 41.9503 23.66 41.9503 16.52C41.8803 9.37999 36.1104 3.59995 28.9704 3.59995V3.60996ZM18.2604 23.5999C15.6604 25.8099 12.4204 26.91 9.5004 26.65C7.1004 26.39 5.80042 27.6199 5.02042 27.9499C4.18042 28.3999 3.07041 27.8199 3.14041 26.7199C3.14041 26.4599 3.14041 26.2 3.20041 25.88C3.26041 24.84 3.39039 23.3499 2.55039 21.4699C-0.889615 13.2899 6.90037 2.65002 15.6004 3.30002C18.2004 3.49002 19.6904 2.51993 20.7904 2.19993C21.7004 1.87993 22.6704 2.64998 22.4804 3.62998C22.3504 4.46998 22.2204 4.98993 22.2204 5.57993C15.8604 9.59993 14.3704 17.72 18.2604 23.62V23.5999ZM29.0304 28.0799C23.3204 28.0799 19.1604 24.38 17.8704 19.51C17.5504 18.41 17.4204 17.37 17.4204 16.26C17.5504 9.50998 23.1304 4.83994 28.9704 4.83994C34.8104 4.83994 40.5904 9.24994 40.5904 16.4599C40.5904 22.8899 35.4004 28.0799 29.0404 28.0799H29.0304Z" fill="black"/>
</svg>
