<svg width="53" height="43" viewBox="0 0 53 43" fill="none" xmlns="http://www.w3.org/2000/svg">
<path d="M48.9202 39.2097C47.4202 39.2097 46.0202 38.2397 45.5402 36.7397L41.8702 25.1698C41.4702 23.8998 40.4801 22.8598 39.1601 22.2998C36.9801 21.3698 35.3202 19.5498 34.6002 17.2998C34.4802 16.9298 34.3902 16.5397 34.3202 16.0797C34.2802 15.8097 34.3802 15.5297 34.5902 15.3497C34.8002 15.1697 35.0902 15.0998 35.3502 15.1798C36.1102 15.3998 37.2202 15.6798 38.2102 15.7998C38.9102 15.8798 39.6102 15.4997 39.9402 14.8497L40.0202 14.6897C40.7802 13.2197 42.6002 12.6398 44.0802 13.3998L44.2402 13.4797C44.8902 13.8197 45.6802 13.7297 46.2102 13.2597C46.8002 12.7297 47.4802 11.9897 48.1902 11.0997C48.3602 10.8797 48.6401 10.7698 48.9101 10.7998C49.1901 10.8298 49.4302 10.9997 49.5502 11.2497C49.7502 11.6597 49.9102 12.0398 50.0302 12.3998C50.7402 14.6498 50.4302 17.0997 49.1802 19.1097C48.4202 20.3297 48.2202 21.7498 48.6202 23.0198L52.2902 34.5897C52.8802 36.4497 51.8502 38.4498 49.9802 39.0398C49.6302 39.1498 49.2701 39.2097 48.9101 39.2097H48.9202ZM36.2602 17.0897C36.8702 18.7497 38.1502 20.0998 39.8002 20.7998C41.5602 21.5498 42.8802 22.9598 43.4302 24.6798L47.1002 36.2497C47.4202 37.2597 48.5002 37.8197 49.5002 37.4997C50.5102 37.1797 51.0702 36.0997 50.7502 35.0997L47.0802 23.5298C46.5302 21.8098 46.8002 19.8898 47.8102 18.2698C48.7602 16.7498 49.0302 14.9197 48.5702 13.1997C48.1302 13.6997 47.7002 14.1297 47.3002 14.4897C46.2702 15.4097 44.7502 15.5897 43.5002 14.9397L43.3502 14.8597C42.6702 14.5097 41.8402 14.7697 41.4902 15.4497L41.4101 15.6097C40.7601 16.8597 39.4102 17.5898 38.0402 17.4298C37.4502 17.3598 36.8302 17.2397 36.2602 17.1097V17.0897Z" fill="black"/>
<path d="M38.4205 17.4398C38.2905 17.4398 38.1705 17.4399 38.0405 17.4199C37.4505 17.3499 36.8005 17.2299 36.0405 17.0399C35.8205 16.9899 35.6306 16.8399 35.5206 16.6499C35.2806 16.2199 35.0805 15.7599 34.9305 15.2899C34.3505 13.4599 34.5206 11.5199 35.4006 9.8099C36.2806 8.1099 37.7805 6.84986 39.6105 6.26986C43.3905 5.06986 47.4305 7.16979 48.6305 10.9498C48.7805 11.4198 48.8805 11.8999 48.9305 12.3999C48.9505 12.6199 48.8805 12.8499 48.7305 13.0199C48.2105 13.6199 47.7405 14.0998 47.3105 14.4798C46.2905 15.3998 44.7606 15.5799 43.5106 14.9299L43.3505 14.8498C43.0205 14.6798 42.6505 14.6499 42.3005 14.7599C41.9505 14.8699 41.6605 15.1098 41.4905 15.4398L41.4105 15.5998C40.8205 16.7298 39.6505 17.4398 38.4205 17.4398ZM36.7806 15.5399C37.3206 15.6599 37.8005 15.7499 38.2305 15.7999C38.9305 15.8799 39.6306 15.4998 39.9606 14.8498L40.0405 14.6998C40.4105 13.9898 41.0405 13.4598 41.8005 13.2198C42.5705 12.9798 43.3806 13.0499 44.0906 13.4199L44.2405 13.4998C44.8905 13.8398 45.6806 13.7499 46.2106 13.2799C46.5306 12.9999 46.8705 12.6498 47.2505 12.2298C47.2105 11.9698 47.1405 11.7098 47.0605 11.4498C46.1305 8.52979 43.0106 6.9098 40.0906 7.8298C38.6806 8.2798 37.5206 9.24979 36.8406 10.5698C36.1606 11.8898 36.0305 13.3899 36.4805 14.8099C36.5605 15.0599 36.6606 15.3099 36.7806 15.5499V15.5399Z" fill="black"/>
<path d="M3.98018 27.4499C3.04018 27.4499 2.10023 27.09 1.40023 26.37C0.730226 25.69 0.380226 24.79 0.400226 23.85C0.420226 22.9 0.810211 22.02 1.51021 21.37L10.4102 13.02C11.3802 12.11 11.8902 10.77 11.8102 9.34996C11.6702 6.98996 12.5902 4.70994 14.3302 3.07994C14.6102 2.81994 14.9302 2.56003 15.3102 2.30003C15.5402 2.14003 15.8302 2.10995 16.0802 2.21995C16.3302 2.32995 16.5202 2.54994 16.5702 2.82994C16.7102 3.59994 16.9502 4.72001 17.2902 5.65001C17.5302 6.31001 18.2002 6.77001 18.9502 6.78001H19.1302C19.9402 6.80001 20.6902 7.12993 21.2602 7.69993C21.8302 8.27993 22.1302 9.03995 22.1102 9.83995V10.02C22.0902 10.74 22.5302 11.41 23.1902 11.67C24.1302 12.04 25.2702 12.32 26.0502 12.49C26.3202 12.55 26.5502 12.75 26.6402 13.01C26.7302 13.27 26.6902 13.57 26.5202 13.79C26.2402 14.15 25.9702 14.45 25.6802 14.72C25.6802 14.72 25.6702 14.72 25.6602 14.73C23.9302 16.34 21.5802 17.13 19.2002 16.9C17.7402 16.76 16.3402 17.2 15.3602 18.12L6.46022 26.47C5.77022 27.12 4.88019 27.4399 3.99019 27.4399L3.98018 27.4499ZM15.2402 4.46995C13.9802 5.74995 13.3302 7.48 13.4302 9.27C13.5402 11.17 12.8402 12.98 11.5202 14.22L2.6202 22.5699C2.2502 22.9199 2.03022 23.39 2.02022 23.9C2.01022 24.4 2.2002 24.88 2.5602 25.25C3.3102 26.02 4.56023 26.04 5.34023 25.31L14.2402 16.9599C15.5602 15.7199 17.4202 15.12 19.3502 15.31C21.1602 15.48 22.9602 14.93 24.3202 13.77C23.7502 13.61 23.1402 13.4299 22.5902 13.2099C21.2902 12.6999 20.4402 11.42 20.4702 10.01V9.82994C20.4802 9.46994 20.3402 9.12997 20.0902 8.85997C19.8302 8.58997 19.4702 8.44004 19.0902 8.43004H18.9102C17.4902 8.40004 16.2202 7.50995 15.7602 6.21995C15.5602 5.65995 15.3902 5.04995 15.2502 4.46995H15.2402Z" fill="black"/>
<path d="M24.76 13.84C24.69 13.84 24.62 13.8401 24.55 13.8101C23.78 13.6101 23.13 13.4 22.58 13.19C21.28 12.68 20.43 11.4 20.46 9.99004V9.81011C20.47 9.46011 20.34 9.12003 20.09 8.85003C19.83 8.58003 19.47 8.42008 19.08 8.41008H18.9C17.48 8.38008 16.21 7.49 15.74 6.2C15.74 6.2 15.74 6.1901 15.74 6.1801C15.54 5.6301 15.36 5.00004 15.19 4.24004C15.14 4.02004 15.19 3.78002 15.32 3.59002C15.6 3.19002 15.9299 2.81002 16.2899 2.47002C19.1899 -0.249979 23.8 -0.149896 26.58 2.6801C27.93 4.0601 28.65 5.87008 28.61 7.78008C28.57 9.69008 27.77 11.4701 26.36 12.7901C26 13.1301 25.6 13.43 25.18 13.69C25.05 13.77 24.9 13.8101 24.76 13.8101V13.84ZM17.2899 5.67009C17.5299 6.32009 18.2 6.77009 18.94 6.79009H19.12C19.94 6.81009 20.71 7.14003 21.27 7.73003C21.82 8.31003 22.1199 9.06003 22.0999 9.85003V10.0301C22.0799 10.7501 22.52 11.4201 23.18 11.6801C23.59 11.8401 24.06 11.9901 24.62 12.1501C24.85 11.9901 25.06 11.8201 25.26 11.6401C26.35 10.6201 26.96 9.25008 27 7.78008C27.03 6.31008 26.47 4.92004 25.43 3.86004C23.27 1.65004 19.67 1.58 17.42 3.7C17.23 3.88 17.05 4.08008 16.88 4.28008C17.01 4.82008 17.1499 5.2801 17.2899 5.6801C17.2899 5.6801 17.2899 5.67999 17.2899 5.68999V5.67009Z" fill="black"/>
<path d="M26.8601 42.8201C24.8201 42.8201 22.8401 42.0701 21.3201 40.6901C20.2501 39.7201 18.8601 39.2502 17.5201 39.4102L5.3101 40.8301C3.3501 41.0601 1.57012 39.6701 1.34012 37.7401C1.23012 36.8101 1.49011 35.9002 2.07011 35.1602C2.66011 34.4102 3.52008 33.9301 4.48008 33.8201L16.6901 32.4002C18.0301 32.2402 19.2601 31.4702 20.0801 30.2902C21.4201 28.3302 23.5401 27.0502 25.9101 26.7802C26.3001 26.7302 26.7001 26.7201 27.1701 26.7401C27.4501 26.7401 27.7001 26.9001 27.8401 27.1401C27.9801 27.3801 27.9901 27.6802 27.8601 27.9302C27.5001 28.6302 27.0001 29.6601 26.7001 30.6101C26.4901 31.2701 26.7301 32.0201 27.3201 32.4701L27.4601 32.5801C28.1001 33.0801 28.5101 33.7901 28.6001 34.5901C28.6901 35.3901 28.4701 36.1702 27.9601 36.8002L27.8501 36.9401C27.3901 37.5101 27.3301 38.2901 27.7001 38.8801C28.2201 39.7301 28.9501 40.6201 29.4701 41.2201C29.6501 41.4301 29.7201 41.7201 29.6401 41.9901C29.5601 42.2601 29.3501 42.4702 29.0801 42.5402C28.6301 42.6602 28.2301 42.7402 27.8501 42.7902C27.5301 42.8302 27.2101 42.8501 26.8901 42.8501L26.8601 42.8201ZM18.0201 37.7601C19.6001 37.7601 21.1601 38.3701 22.4001 39.4901C23.7401 40.7001 25.5201 41.3102 27.3201 41.1802C26.9601 40.7202 26.6001 40.2201 26.2901 39.7201C25.5701 38.5401 25.6801 37.0102 26.5601 35.9102L26.6701 35.7701C26.9001 35.4901 27.0001 35.1301 26.9601 34.7701C26.9201 34.4101 26.7301 34.0801 26.4401 33.8601L26.3001 33.7501C25.1801 32.8801 24.7101 31.4201 25.1301 30.1101C25.3101 29.5501 25.5401 28.9801 25.7801 28.4501C24.0001 28.7401 22.4101 29.7401 21.4001 31.2201C20.3201 32.8001 18.6701 33.8202 16.8601 34.0302L4.65012 35.4501C4.12012 35.5101 3.66011 35.7702 3.33011 36.1802C3.02011 36.5702 2.8801 37.0602 2.9401 37.5602C3.0701 38.6002 4.04008 39.3501 5.11008 39.2201L17.3201 37.8002C17.5501 37.7702 17.7901 37.7601 18.0201 37.7601Z" fill="black"/>
<path d="M28.6905 41.7101C28.4805 41.7101 28.2605 41.7102 28.0505 41.6802C27.8305 41.6602 27.6205 41.5502 27.4805 41.3802C26.9905 40.7602 26.6005 40.2201 26.2905 39.7201C25.5705 38.5401 25.6805 37.0102 26.5605 35.9102L26.6705 35.7702C26.9005 35.4902 27.0005 35.1302 26.9605 34.7702C26.9205 34.4102 26.7305 34.0801 26.4405 33.8601L26.3005 33.7501C25.1805 32.8801 24.7105 31.4201 25.1305 30.1101C25.3105 29.5601 25.5605 28.9401 25.8905 28.2201C25.9805 28.0201 26.1605 27.8602 26.3705 27.7902C26.8505 27.6302 27.3405 27.5301 27.8305 27.4701C31.8105 27.0101 35.4305 29.8101 35.9005 33.7201C36.1305 35.5901 35.6005 37.4501 34.4305 38.9401C33.2305 40.4701 31.4905 41.4302 29.5405 41.6602C29.2605 41.6902 28.9705 41.7101 28.6805 41.7101H28.6905ZM28.5405 40.0801C28.8105 40.0801 29.0905 40.0802 29.3605 40.0402C30.8805 39.8602 32.2305 39.1102 33.1605 37.9302C34.0705 36.7802 34.4705 35.3602 34.2905 33.9202C33.9205 30.9002 31.1105 28.7301 28.0205 29.0901C27.7505 29.1201 27.4804 29.1701 27.2204 29.2401C26.9904 29.7501 26.8205 30.2001 26.6905 30.6101C26.4805 31.2701 26.7205 32.0201 27.3105 32.4701L27.4505 32.5801C28.0905 33.0801 28.5005 33.7901 28.5905 34.5901C28.6805 35.3901 28.4605 36.1702 27.9505 36.8002L27.8405 36.9401C27.3805 37.5101 27.3205 38.2902 27.6905 38.8802C27.9205 39.2502 28.1905 39.6501 28.5405 40.0901V40.0801Z" fill="black"/>
</svg>
