<svg width="37" height="40" viewBox="0 0 37 40" fill="none" xmlns="http://www.w3.org/2000/svg">
<path d="M26.0001 14.0002C25.9601 12.7602 25.6401 11.6501 24.8001 10.7301C24.4301 10.3201 23.8301 10.0201 23.3201 9.83012C22.9701 9.70012 22.0901 9.3402 21.7401 9.6702C21.3601 10.0202 22.62 10.5702 22.79 10.6802C23.23 10.9602 23.76 11.2802 24.1 11.6802C24.56 12.2102 24.9001 12.8902 25.1401 13.5502C25.2201 13.7802 25.3001 14.0001 25.4201 14.2101C25.5801 14.5001 25.3701 14.5101 25.1501 14.7101C24.9101 14.9301 24.6701 15.1502 24.4301 15.3802C23.6501 16.1402 22.8601 16.9801 22.2001 17.8501C21.9601 18.1701 21.7201 18.4801 21.5001 18.8201C21.3001 19.1301 20.7401 20.3701 21.6401 20.1101C22.4101 19.8901 23.1601 19.0202 23.7701 18.5102C23.9501 18.3602 24.0901 18.1602 24.2501 17.9902C24.5001 17.7302 24.6001 17.4701 24.9301 17.7101C25.3601 18.0001 25.76 18.2602 26.1 18.6502C26.37 18.9502 26.5601 19.3402 26.8401 19.6302C27.5001 20.3102 27.4601 19.0701 27.3801 18.7301C27.1601 18.3701 27.1101 18.0401 26.8101 17.7201C26.4101 17.3001 25.92 16.9902 25.35 16.8702C26.13 15.9702 26.82 15.1802 27.85 14.5302C28.9 13.8702 30.1201 13.7101 31.3101 13.4801C31.9801 13.3201 32.67 13.2902 33.35 13.4002C33.91 13.4902 34.27 14.5302 34.41 15.0402C34.71 16.0802 34.4101 17.0701 33.6401 17.8201C33.6401 16.6201 32.9401 14.8302 31.4001 15.1502C30.4901 15.3402 31.7901 16.1702 32.0101 16.3902C32.4801 16.8802 32.6401 17.9001 33.2601 18.2101C32.3201 19.2501 31.1301 20.0201 30.1101 20.9801C29.2301 21.8001 28.0501 23.3001 28.3801 24.6101C28.1401 24.3701 27.8401 24.2102 27.4901 24.1702C26.9201 24.0302 26.9301 24.6701 27.1801 24.9801C27.5101 25.3901 28.11 26.3402 28.66 26.3702C28.4 26.7702 27.95 27.0402 27.54 27.2702C27.32 26.5502 26.6001 25.7002 25.7601 25.7402C25.0101 25.7802 25.6001 26.5202 25.8201 26.7702C26.1001 27.0802 26.3601 27.4201 26.6501 27.7301C26.4201 27.8601 26.1901 27.9801 25.9601 28.1101C25.8701 27.7301 25.2601 26.9701 24.8401 27.4701C24.8101 27.5101 24.6301 28.3502 24.8001 28.2902C24.8401 28.3902 24.9401 28.4601 24.9501 28.5801C25.1401 28.8801 25.0101 28.8701 24.8701 29.2001C24.4601 30.1901 25.1701 31.1001 24.9401 32.0901C24.8201 32.6301 24.33 32.7201 23.85 32.6101C22.84 32.3801 21.93 31.7001 21.1 31.1001C18.8 29.4301 16.2201 31.7001 14.3401 32.9601C14.2101 32.5601 13.3901 31.5101 12.9301 32.0801C12.6801 32.3801 12.96 32.7901 13.1 33.0701C13.1 33.1601 13.2501 33.3302 13.3001 33.4202C13.4301 33.6802 12.8301 33.8501 12.6101 33.9601C12.4801 33.5701 11.5401 32.3002 11.0601 32.9302C10.9301 33.1002 11.27 34.0602 11.35 34.0202C11.35 34.1202 11.5101 34.2902 11.5601 34.3802C11.6401 34.5502 10.7301 34.9002 10.5501 35.0002C10.4201 34.6702 9.37007 33.3002 9.12007 34.2502C9.05007 34.5302 9.30008 34.8702 9.38008 35.1402C9.41008 35.2502 9.47006 35.3601 9.49006 35.4701C9.52006 35.6001 8.86005 35.8402 8.73005 35.9102C8.68005 35.6102 8.52007 35.3502 8.31007 35.1302C8.03007 34.8402 7.34006 34.6801 7.43006 35.3301C7.46006 35.6001 7.54005 35.8702 7.60005 36.1402C7.65005 36.3802 7.69006 36.3902 7.43006 36.5202C7.07006 36.6902 6.7101 36.8502 6.3401 36.9902C6.3401 36.5002 6.37007 35.2902 5.75007 35.1402C4.99007 34.9602 5.18009 36.9002 5.27009 37.2902C4.90009 37.3502 4.51008 37.3402 4.14008 37.2702C4.23008 36.9202 4.16005 36.5001 3.92005 36.2201C3.42005 35.6501 3.06005 36.4101 3.04005 36.8301C1.62005 35.9901 1.66005 34.6501 2.42005 33.3501C2.74005 32.8001 3.15008 32.3002 3.45008 31.7402C3.65008 31.3802 3.78008 31.3202 4.20008 31.2902C4.45008 31.2702 4.8401 31.3602 5.0301 31.5302C5.4801 31.8302 5.86009 32.2202 6.33009 32.5002C6.53009 32.6202 6.98009 32.7201 6.96009 32.3401C6.94009 32.0501 6.71005 31.8001 6.54005 31.5701C5.90005 30.7301 5.20006 30.0201 4.05006 30.2001C4.31006 29.1801 4.28007 28.1702 4.31007 27.1302C4.33007 26.1102 4.45009 25.1001 4.65009 24.1101C4.84009 23.1801 5.11007 22.3201 5.50007 21.4601C5.59007 21.2601 5.88009 20.3801 6.08009 20.3301C6.40009 20.2401 6.78006 20.2402 7.11006 20.2802C7.40006 20.0102 8.33004 21.1302 8.47004 21.2802C8.62004 21.4402 9.55006 22.3302 9.49006 21.6202C9.39006 20.2702 8.05009 18.8501 6.65009 19.2101C7.71009 17.3701 9.12008 14.9402 11.6301 15.3002C14.5201 15.7102 11.6801 19.7402 10.9001 20.7502C10.3501 21.4602 9.7501 22.1501 9.3401 22.9601C9.0001 23.6301 8.52004 24.7902 8.91004 25.5302C9.68004 27.0102 12.19 24.7801 12.79 24.1901C13.12 23.8601 13.4401 23.5202 13.7401 23.1702C13.8901 22.9902 14.0401 22.8102 14.1901 22.6302C14.4201 22.6402 14.6601 22.6302 14.8901 22.6602C15.6001 22.7502 16.2801 22.8802 16.8101 23.3902C17.4601 24.0202 17.8101 24.9301 18.4201 25.6101C19.0201 26.2801 18.7401 24.3702 18.3401 23.5602C17.6701 22.2102 16.2501 21.5701 14.8201 21.8201C15.6101 20.7601 16.41 19.6802 16.72 18.3802C17.05 17.0402 17 15.6202 16.72 14.2802C17.41 14.2602 18.0101 14.2801 18.6301 14.5801C18.8501 14.6901 20.1301 15.4701 20.3901 15.1101C20.7701 14.5801 18.9901 13.5201 18.6401 13.3401C17.9701 13.0001 17.1601 13.1502 16.4901 13.4202C16.2401 12.6502 15.9 11.7902 15.35 11.1802C15.06 10.8602 14.7001 10.6002 14.3901 10.3002C13.7301 9.67021 12.9301 8.61014 14.0501 7.98014C15.3301 7.25014 16.8301 8.07016 18.1801 7.75016C19.8301 7.35016 19.7701 5.62013 20.1801 4.34013C20.5701 3.11013 21.6801 3.08017 22.7701 3.26017C23.2501 3.34017 24.07 3.35015 24.47 3.62015C25.01 3.99015 25.62 4.35021 26.1 4.80021C26.85 5.71021 27.21 6.83016 27.72 7.88016C27.81 8.06016 28.1201 8.79012 28.3901 8.71012C28.7801 8.59012 28.2801 6.83019 28.2001 6.53019C27.8501 5.19019 27.2201 4.05015 26.0101 3.36015C27.5101 2.89015 28.8101 2.33021 30.0501 3.68021C31.0201 4.74021 31.8801 6.33022 31.6501 7.81022C31.5401 8.51022 30.9801 8.90019 30.8201 9.53019C30.7201 9.94019 30.7801 10.7202 31.2601 10.8902C31.8501 11.1102 32.5 9.88016 32.72 9.50016C33.16 8.74016 33.4101 7.89016 33.4001 7.00016C33.3701 5.27016 32.3901 3.71019 31.3401 2.41019C30.2401 1.06019 28.9401 0.0201257 27.1101 0.590126C26.3901 0.820126 25.8301 1.36022 25.1101 1.56022C24.4901 1.74022 23.8601 1.63012 23.2501 1.46012C21.9401 1.11012 20.82 0.88014 19.79 1.98014C18.92 2.91014 18.92 4.5001 17.79 5.1901C16.8 5.7901 15.4901 5.60014 14.3901 5.85014C13.3401 6.09014 12.5601 6.68011 12.1701 7.70011C11.6301 9.14011 12.0601 10.4502 12.9801 11.6402C13.4801 12.2802 14.2501 12.6601 14.6801 13.3401C15.3801 14.4301 15.3901 16.0702 15.1501 17.2902C14.8801 18.7202 14.1001 19.9202 13.1701 21.0102C12.3701 21.9402 11.6101 23.0002 10.5601 23.6702C11.1801 22.2202 12.4701 21.1702 13.3401 19.8802C14.0701 18.7902 14.2901 17.5301 14.2501 16.2301C14.2101 15.0001 13.8201 13.7302 12.4901 13.4302C10.7801 13.0402 9.09007 13.6801 7.81007 14.8301C7.18007 15.4001 6.77005 16.0202 6.42005 16.7902C6.26005 17.1402 6.09006 17.5002 5.86006 17.8102C5.58006 18.1802 5.19008 18.4502 4.89008 18.8002C4.39008 19.3902 4.08009 20.1101 3.90009 20.8601C3.64009 21.9001 3.35007 22.9301 3.12007 23.9801C2.91007 24.9401 2.76006 25.9102 2.74006 26.8902C2.72006 27.8102 2.95004 28.7201 2.66004 29.6101C2.21004 31.0101 0.910078 31.9702 0.570078 33.4202C0.230078 34.8602 0.730075 36.8901 1.63008 38.0701C2.27008 38.9101 3.25005 39.2902 4.29005 39.3002C6.65005 39.3002 8.95004 37.9902 10.97 36.9102C12.17 36.2602 13.4101 35.6902 14.6201 35.0402C16.0901 34.2502 17.6701 32.7302 19.4601 32.8902C21.0801 33.0402 22.0801 34.6502 23.7301 34.6502C25.3401 34.6502 26.47 33.0302 26.6 31.5402C26.64 31.0502 26.36 30.5302 26.6 30.0602C26.8 29.6702 27.23 29.4602 27.6 29.2602C28.63 28.7302 29.5501 27.9702 30.0901 26.9202C30.3601 26.3902 30.4701 25.8101 30.3801 25.2201C30.3201 24.8301 29.9701 24.3802 30.0301 24.0002C30.1401 23.3902 30.7301 22.8302 31.1301 22.3902C32.3501 21.0702 33.7401 19.9302 35.0101 18.6602C36.4001 17.2702 37.6501 14.5601 36.1501 12.8201C33.3501 9.60011 28.7801 11.8002 26.0101 14.0202L26.0001 14.0002Z" fill="black"/>
<path d="M14.7002 28.53C14.7302 28.39 14.3002 27.97 14.1802 27.88C13.7802 27.56 13.3802 27.32 12.9002 27.13C12.4702 26.96 11.8202 26.81 11.3602 26.97C11.2102 27.02 10.9102 27.14 10.9102 27.34C10.9302 27.63 11.3802 27.62 11.5702 27.7C11.7302 27.76 12.9402 28.49 13.0002 28.45C13.0202 28.4 13.7702 29.06 13.8602 29.08C14.0802 29.28 14.3002 29.74 14.6302 29.77C15.2602 29.82 14.8102 28.75 14.7002 28.53Z" fill="black"/>
<path d="M20.7698 29.4501C20.6098 30.1301 20.9798 30.6402 21.5698 30.0302C21.8798 29.7102 22.2298 29.3202 22.6398 29.1102C22.8298 28.9902 23.1498 28.7902 23.0598 28.5102C22.9598 28.1902 22.3298 28.2202 22.0698 28.2902C21.4998 28.4302 20.9398 28.8701 20.7798 29.4401L20.7698 29.4501Z" fill="black"/>
</svg>
