<svg width="45" height="42" viewBox="0 0 45 42" fill="none" xmlns="http://www.w3.org/2000/svg">
<path d="M27.1203 16.7998C26.9203 16.7998 26.7302 16.6697 26.6602 16.4697C26.5802 16.2197 26.7103 15.9497 26.9603 15.8697C27.2103 15.7897 27.4803 15.9198 27.5603 16.1698C27.6403 16.4198 27.5103 16.6897 27.2503 16.7697C27.2003 16.7897 27.1502 16.7898 27.1002 16.7898L27.1203 16.7998Z" fill="black"/>
<path d="M21.2701 36.9499C21.0101 36.9499 20.79 36.7399 20.79 36.4699C20.79 36.2299 20.9701 36.0299 21.2101 35.9999C23.1801 35.6899 25.0401 35.2098 26.7601 34.5698H26.7801C28.3301 33.9898 29.7801 33.27 31.0901 32.43C31.4501 32.2 31.81 31.9498 32.17 31.6898C34.68 29.8598 36.93 27.3999 38.85 24.3799C39.67 23.0899 40.43 21.6999 41.1 20.2599C41.1 20.2599 41.1 20.2399 41.11 20.2299C42.13 18.0399 42.7101 16.2399 42.9601 15.4099C42.0601 15.2799 40.0601 15.0398 37.5201 15.0698C35.7601 15.0898 34.0401 15.2299 32.3901 15.4899C31.0501 15.6999 29.7401 15.9999 28.5101 16.3599C28.2601 16.4399 27.99 16.2899 27.91 16.0399C27.83 15.7899 27.98 15.5198 28.23 15.4398C29.5 15.0598 30.8501 14.7599 32.2401 14.5399C33.9301 14.2699 35.7001 14.1299 37.5101 14.1099C41.0901 14.0699 43.56 14.5299 43.66 14.5499C43.79 14.5699 43.9 14.6499 43.97 14.7599C44.04 14.8699 44.0601 15.0099 44.0301 15.1299C44.0101 15.2299 43.42 17.5399 41.97 20.6599C41.97 20.6599 41.9701 20.6798 41.9601 20.6898C41.2701 22.1598 40.5 23.5699 39.66 24.8899C37.67 28.0099 35.34 30.5499 32.73 32.4599C32.36 32.7299 31.98 32.9899 31.6 33.2299C30.23 34.1099 28.7101 34.8599 27.0901 35.4599H27.0701C25.3001 36.1199 23.3701 36.62 21.3401 36.93C21.3101 36.93 21.2901 36.93 21.2701 36.93V36.9499Z" fill="black"/>
<path d="M11.9097 31.92C11.6497 31.92 11.4297 31.7099 11.4297 31.4399C11.4297 31.1699 11.6397 30.96 11.9097 30.96C12.1797 30.96 12.3897 31.1699 12.3897 31.4399C12.3897 31.7099 12.1797 31.92 11.9097 31.92Z" fill="black"/>
<path d="M27.8601 24.9397C27.7001 24.9397 27.5501 24.8597 27.4601 24.7197C27.3201 24.4997 27.3901 24.1998 27.6101 24.0598C28.5701 23.4598 29.4801 22.8897 30.3801 22.3397C32.1601 21.2597 33.5001 20.4998 34.7901 19.7698C35.2701 19.4998 35.7401 19.2297 36.2401 18.9397C37.9101 17.9797 39.9201 16.7998 43.3201 14.6198C43.5401 14.4798 43.8401 14.5398 43.9801 14.7698C44.1201 14.9898 44.0601 15.2898 43.8301 15.4298C40.4201 17.6098 38.3901 18.8098 36.7101 19.7698C36.2101 20.0598 35.7401 20.3297 35.2601 20.5997C33.9701 21.3297 32.6401 22.0898 30.8701 23.1598C29.9701 23.7098 29.0601 24.2698 28.1101 24.8698C28.0301 24.9198 27.9401 24.9397 27.8501 24.9397H27.8601Z" fill="black"/>
<path d="M36.5103 28.7998C36.5103 28.7998 36.4402 28.7998 36.4102 28.7898L27.2202 26.7498C26.9602 26.6898 26.8003 26.4398 26.8603 26.1798C26.9203 25.9198 27.1703 25.7597 27.4303 25.8197L36.6203 27.8598C36.8803 27.9198 37.0402 28.1698 36.9802 28.4298C36.9302 28.6498 36.7303 28.7998 36.5103 28.7998Z" fill="black"/>
<path d="M32.4499 32.5499C32.4499 32.5499 32.3699 32.5499 32.3299 32.5299L25.3198 30.9899C25.0598 30.9299 24.8999 30.6799 24.9599 30.4199C25.0199 30.1599 25.2699 30 25.5299 30.06L32.5498 31.5999C32.5498 31.5999 32.5799 31.5999 32.5899 31.6099C32.8399 31.6899 32.9799 31.9599 32.8999 32.2099C32.8299 32.4099 32.6499 32.5399 32.4499 32.5399V32.5499Z" fill="black"/>
<path d="M13.9501 40.3498C13.8501 40.3498 13.7601 40.3199 13.6801 40.2699C13.3901 40.0699 6.47016 35.2799 2.77015 27.3999C1.99015 25.7299 1.40016 24.0298 1.03016 22.3298C0.990165 22.1498 0.950109 21.9599 0.910109 21.7399C0.910109 21.7399 0.910109 21.7399 0.910109 21.7299C0.310109 18.5499 0.370111 15.0999 1.10011 11.4799C1.10011 11.4799 1.10011 11.4798 1.10011 11.4698C1.44011 9.78984 1.91015 8.07988 2.52015 6.37988C3.72016 3.00988 5.01013 0.859894 5.06013 0.769894C5.13013 0.659894 5.24013 0.579923 5.37013 0.549923C5.50013 0.519923 5.63013 0.549869 5.74013 0.619869C5.82013 0.679869 7.79016 2.02984 10.2102 4.46984C11.3602 5.63984 12.4301 6.85986 13.3701 8.10986C14.0501 8.99986 14.6701 9.91983 15.2301 10.8298C15.3701 11.0598 15.3001 11.3499 15.0701 11.4899C14.8401 11.6299 14.5501 11.5598 14.4101 11.3298C13.8701 10.4398 13.2601 9.54982 12.6101 8.68982C11.6901 7.47982 10.6602 6.2899 9.53016 5.1499C7.83016 3.4299 6.33014 2.24984 5.63014 1.71984C5.20014 2.51984 4.28012 4.30983 3.42012 6.70984C2.83012 8.35984 2.37011 10.0199 2.04011 11.6499C2.04011 11.6499 2.04011 11.6499 2.04011 11.6599C1.34011 15.1699 1.27011 18.5098 1.85011 21.5698C1.85011 21.5698 1.85011 21.5698 1.85011 21.5798C1.89011 21.7898 1.93016 21.9699 1.96016 22.1399C2.31016 23.7599 2.88014 25.3999 3.63014 26.9999C6.70014 33.5399 12.2301 37.9999 13.7901 39.1799C14.0001 38.7899 14.3302 38.1598 14.7102 37.3298C14.7302 37.2698 14.7701 37.2199 14.8101 37.1699C15.0001 36.9799 15.3001 36.9799 15.4901 37.1699C15.5801 37.2599 15.6301 37.3799 15.6301 37.5099C15.6301 37.5799 15.6202 37.6498 15.5902 37.7098C14.9002 39.2098 14.3701 40.0799 14.3501 40.1199C14.2801 40.2299 14.1701 40.3098 14.0401 40.3398C14.0101 40.3398 13.9701 40.3498 13.9401 40.3498H13.9501Z" fill="black"/>
<path d="M13.9504 40.3498C13.7304 40.3498 13.5303 40.1998 13.4803 39.9698C12.4203 35.1198 11.7503 32.6898 11.1103 30.3298C10.4603 27.9598 9.79033 25.5199 8.73033 20.6399C7.67033 15.7699 7.26034 13.2598 6.86034 10.8398C6.47034 8.42983 6.06035 5.93983 5.00035 1.08983C4.94035 0.829829 5.11035 0.579883 5.37035 0.519883C5.63035 0.459883 5.88035 0.629878 5.94035 0.889878C7.00035 5.75988 7.41035 8.2698 7.81035 10.6898C8.20035 13.0998 8.61033 15.5898 9.67033 20.4398C10.7303 25.2898 11.4003 27.7198 12.0403 30.0798C12.6903 32.4498 13.3603 34.8899 14.4203 39.7699C14.4803 40.0299 14.3103 40.2798 14.0503 40.3398C14.0203 40.3398 13.9804 40.3498 13.9504 40.3498Z" fill="black"/>
<path d="M7.0602 9.64003C6.9702 9.64003 6.88019 9.62007 6.80019 9.56007L2.70021 6.93007C2.48021 6.79007 2.4102 6.49003 2.5602 6.27003C2.7002 6.05003 3.00017 5.98002 3.22017 6.13002L7.32021 8.76003C7.54021 8.90003 7.61022 9.20006 7.46022 9.42006C7.37022 9.56006 7.2102 9.64003 7.0602 9.64003Z" fill="black"/>
<path d="M7.06003 9.64003C6.97003 9.64003 6.87001 9.61006 6.79001 9.55006C6.57001 9.40006 6.52001 9.11003 6.67001 8.89003L9.46005 4.54005C9.60005 4.32005 9.90003 4.25004 10.12 4.40004C10.34 4.55004 10.41 4.84007 10.26 5.06007L7.46005 9.42006C7.46005 9.42006 7.46004 9.42996 7.45004 9.43996C7.36004 9.56996 7.21002 9.65004 7.05002 9.65004L7.06003 9.64003Z" fill="black"/>
<path d="M8.21051 16.2999C8.13051 16.2999 8.04051 16.2799 7.96051 16.2299C7.73051 16.0899 7.66048 15.7998 7.80048 15.5798C7.80048 15.5798 7.80048 15.57 7.80048 15.56L12.5705 8.1299C12.7105 7.9099 13.0105 7.83988 13.2305 7.98988C13.4505 8.12988 13.5205 8.42992 13.3705 8.64992L8.60047 16.0798C8.51047 16.2198 8.35049 16.2999 8.19049 16.2999H8.21051Z" fill="black"/>
<path d="M8.20985 16.3001C8.11985 16.3001 8.02984 16.28 7.94984 16.22L1.29982 11.95C1.07982 11.81 1.00981 11.5101 1.15981 11.2901C1.29981 11.0701 1.59984 11 1.81984 11.15L8.4698 15.4201C8.6898 15.5601 8.75982 15.86 8.60982 16.08C8.51982 16.22 8.35985 16.3001 8.20985 16.3001Z" fill="black"/>
<path d="M9.43018 22.0999C9.17018 22.0999 8.9502 21.8899 8.9502 21.6199C8.9502 21.5299 8.9702 21.4499 9.0202 21.3699C9.0202 21.3699 9.02021 21.3599 9.03021 21.3499L11.7902 17.0798C11.8802 16.9498 12.0202 16.8599 12.1902 16.8599C12.4502 16.8599 12.6702 17.0698 12.6702 17.3398C12.6702 17.4398 12.6402 17.5399 12.5802 17.6099L9.84021 21.8599C9.76021 21.9999 9.60018 22.0999 9.43018 22.0999Z" fill="black"/>
<path d="M9.43025 22.0999C9.34025 22.0999 9.25024 22.0799 9.17024 22.0199L0.74025 16.6099C0.52025 16.4699 0.450235 16.1699 0.600235 15.9499C0.750235 15.7299 1.04027 15.66 1.26027 15.81L9.69026 21.2199C9.91026 21.3599 9.98028 21.6599 9.83028 21.8799C9.74028 22.0199 9.58025 22.0999 9.43025 22.0999Z" fill="black"/>
<path d="M10.9104 28.2499C10.8204 28.2499 10.7304 28.2299 10.6504 28.1699C10.4304 28.0299 10.3604 27.7299 10.5104 27.5099L11.2504 26.3499C11.3304 26.2099 11.4904 26.1199 11.6604 26.1199C11.9204 26.1199 12.1404 26.3299 12.1404 26.5999C12.1404 26.6899 12.1104 26.7799 12.0604 26.8599L11.3104 28.0299C11.2204 28.1699 11.0604 28.2499 10.9104 28.2499Z" fill="black"/>
<path d="M10.9104 28.2499C10.8204 28.2499 10.7304 28.2299 10.6504 28.1699L1.11037 22.0499C0.890367 21.9099 0.820352 21.6099 0.970352 21.3899C1.11035 21.1699 1.41039 21.0999 1.63039 21.2499L11.1704 27.3699C11.3904 27.5099 11.4604 27.8099 11.3104 28.0299C11.2204 28.1699 11.0604 28.2499 10.9104 28.2499Z" fill="black"/>
<path d="M12.3304 33.5399C12.2604 33.5399 12.1904 33.5199 12.1204 33.4899C11.8804 33.3699 11.7903 33.0899 11.9103 32.8499C11.9103 32.8499 11.9304 32.8199 11.9404 32.7999L12.5403 31.8699C12.6803 31.6499 12.9804 31.5799 13.2004 31.7299C13.4204 31.8699 13.4904 32.1699 13.3404 32.3899L12.7404 33.3198C12.6504 33.4598 12.4904 33.5399 12.3304 33.5399Z" fill="black"/>
<path d="M12.3297 33.5399C12.2397 33.5399 12.1497 33.5199 12.0697 33.4599L2.9297 27.5899C2.7097 27.4499 2.63969 27.1499 2.78969 26.9299C2.92969 26.7099 3.22972 26.6399 3.44972 26.7899L12.5897 32.6599C12.8097 32.7999 12.8797 33.0998 12.7297 33.3198C12.6397 33.4598 12.4797 33.5399 12.3297 33.5399Z" fill="black"/>
<path d="M17.0001 41.1799C17.0001 41.1799 16.9501 41.1799 16.9301 41.1799C16.8001 41.1599 16.6801 41.0898 16.6101 40.9798C16.5401 40.8798 14.8202 38.3698 13.2802 34.4898C11.8602 30.8998 10.3401 25.4198 11.2201 19.6998C12.0901 13.9798 15.1701 9.1998 17.6001 6.1998C20.2201 2.9498 22.6102 1.07985 22.7102 0.99985C22.8102 0.91985 22.9502 0.879874 23.0802 0.899874C23.2102 0.919874 23.3302 0.989825 23.4002 1.09983C23.4702 1.19983 25.1901 3.70982 26.7301 7.58982C28.1501 11.1798 29.6701 16.6599 28.7901 22.3799C27.9201 28.0999 24.8401 32.8799 22.4101 35.8799C19.7901 39.1299 17.4001 40.9998 17.3001 41.0798C17.2201 41.1498 17.1102 41.1799 17.0102 41.1799H17.0001ZM22.8801 2.07981C22.0901 2.74981 20.2501 4.4198 18.3101 6.8198C15.9601 9.7298 12.9902 14.3498 12.1502 19.8398C11.3102 25.3398 12.7802 30.6298 14.1502 34.1098C15.2802 36.9798 16.5501 39.1098 17.1001 39.9898C17.8901 39.3198 19.7301 37.6499 21.6701 35.2499C24.0201 32.3399 26.9902 27.7198 27.8302 22.2298C28.6702 16.7298 27.2001 11.4198 25.8201 7.93979C24.6901 5.07979 23.4301 2.95981 22.8801 2.07981Z" fill="black"/>
<path d="M17 41.1799C17 41.1799 16.9499 41.1799 16.9299 41.1799C16.6699 41.1399 16.49 40.8998 16.53 40.6398C17.28 35.7398 17.52 33.2199 17.76 30.7899C18 28.3499 18.25 25.8198 19 20.8898C19.75 15.9598 20.27 13.4798 20.76 11.0698C21.26 8.67977 21.77 6.20988 22.51 1.29988C22.55 1.03988 22.7899 0.859851 23.0499 0.899851C23.3099 0.939851 23.49 1.17977 23.45 1.43977C22.7 6.36977 22.18 8.84984 21.69 11.2598C21.19 13.6498 20.68 16.1199 19.94 21.0299C19.19 25.9299 18.94 28.4498 18.71 30.8798C18.47 33.3198 18.2199 35.8499 17.4699 40.7799C17.4299 41.0199 17.23 41.1898 17 41.1898V41.1799Z" fill="black"/>
<path d="M21.5597 10.03C21.4097 10.03 21.2697 9.95988 21.1697 9.82988L18.2897 5.90996C18.1297 5.69996 18.1797 5.39992 18.3897 5.23992C18.5997 5.07992 18.8997 5.12989 19.0597 5.33989L21.9397 9.25994C22.0997 9.46994 22.0497 9.76998 21.8397 9.92998C21.7497 9.98998 21.6597 10.0199 21.5597 10.0199V10.03Z" fill="black"/>
<path d="M21.5605 10.0298C21.4105 10.0298 21.2505 9.95975 21.1605 9.81975C21.0105 9.59975 21.0705 9.30984 21.2805 9.15984L25.4405 6.09978C25.6505 5.93978 25.9505 5.98976 26.1105 6.19976C26.2705 6.40976 26.2205 6.7098 26.0105 6.8698L21.8405 9.93975H21.8205C21.7405 10.0097 21.6405 10.0298 21.5505 10.0298H21.5605Z" fill="black"/>
<path d="M20.2502 16.66C20.1102 16.66 19.9602 16.5999 19.8702 16.4699C19.7102 16.2599 19.7502 15.96 19.9502 15.8H19.9602L27.0702 10.56C27.2802 10.4 27.5802 10.45 27.7402 10.66C27.9002 10.87 27.8502 11.1699 27.6402 11.3299L20.5302 16.56C20.4402 16.62 20.3402 16.65 20.2402 16.65L20.2502 16.66Z" fill="black"/>
<path d="M20.2503 16.6698C20.1003 16.6698 19.9603 16.5998 19.8603 16.4698L15.1803 10.0998C15.0203 9.88978 15.0704 9.58986 15.2804 9.42986C15.4904 9.26986 15.7903 9.31983 15.9503 9.52983L20.6303 15.8998C20.7903 16.1098 20.7404 16.4098 20.5304 16.5698C20.4404 16.6298 20.3503 16.6598 20.2503 16.6598V16.6698Z" fill="black"/>
<path d="M19.3105 22.5199C19.1605 22.5199 19.0105 22.4499 18.9205 22.3199C18.7705 22.1099 18.8105 21.81 19.0305 21.65L28.0405 15.06C28.2505 14.9 28.5505 14.95 28.7105 15.16C28.8705 15.37 28.8205 15.6699 28.6105 15.8299L19.6005 22.42C19.5205 22.48 19.4205 22.5099 19.3205 22.5099L19.3105 22.5199Z" fill="black"/>
<path d="M19.3101 22.5201C19.1601 22.5201 19.0201 22.45 18.9201 22.33L12.9801 14.2601C12.8201 14.0501 12.8702 13.75 13.0802 13.59C13.2902 13.43 13.5901 13.48 13.7501 13.69L19.6902 21.7601C19.8502 21.9701 19.8002 22.2701 19.5902 22.4301C19.5002 22.4901 19.4101 22.5201 19.3101 22.5201Z" fill="black"/>
<path d="M18.4903 28.7901C18.3403 28.7901 18.2002 28.72 18.1002 28.6C17.9402 28.39 17.9903 28.0901 18.2003 27.9301L28.1703 20.59C28.3803 20.43 28.6803 20.48 28.8403 20.69C29.0003 20.9 28.9503 21.2 28.7403 21.36L18.7703 28.7C18.6803 28.76 18.5903 28.7901 18.4903 28.7901Z" fill="black"/>
<path d="M18.4903 28.79C18.3403 28.79 18.2003 28.7199 18.1003 28.5999L11.3903 19.4699C11.2303 19.2599 11.2803 18.96 11.4903 18.8C11.7003 18.64 12.0003 18.69 12.1603 18.9L18.8703 28.03C19.0303 28.24 18.9803 28.5399 18.7703 28.6999C18.6803 28.7599 18.5903 28.79 18.4903 28.79Z" fill="black"/>
<path d="M17.9297 34.2398C17.7797 34.2398 17.6397 34.1699 17.5397 34.0499C17.3797 33.8399 17.4297 33.5398 17.6397 33.3798L26.7497 26.6799C26.9597 26.5199 27.2597 26.5698 27.4197 26.7798C27.5797 26.9898 27.5297 27.2898 27.3197 27.4498L18.2097 34.1498C18.1197 34.2098 18.0297 34.2398 17.9297 34.2398Z" fill="black"/>
<path d="M17.93 34.2398C17.78 34.2398 17.64 34.1698 17.54 34.0398L11.11 25.2898C10.95 25.0798 11 24.7798 11.21 24.6198C11.42 24.4598 11.72 24.5098 11.88 24.7198L18.31 33.4698C18.47 33.6798 18.42 33.9798 18.21 34.1398C18.12 34.1998 18.03 34.2298 17.93 34.2298V34.2398Z" fill="black"/>
</svg>
