<svg width="226" height="191" viewBox="0 0 226 191" fill="none" xmlns="http://www.w3.org/2000/svg">
<path d="M118.86 9.7199C117.47 7.7899 113.76 9.10991 113.59 11.3599C113.52 12.0599 113.82 12.75 114.31 13.3C116.31 15.49 120.47 15.8399 122.04 13.0199C125.28 7.03995 117.58 0.759925 111.89 2.99993C109.14 3.93993 106.84 6.39996 107.01 9.40996C107.1 12.54 109.08 15.2999 111.04 17.7499C113.02 20.1599 115.77 23.38 117.67 25.8C124.76 34.04 127.77 46.4299 123.14 56.5799C119.76 64.3999 109.9 66.5499 103.65 60.7299C100.05 57.4899 98.73 51.7 101.25 47.43C102.83 44.85 106.06 43.3299 109.05 44.1499C112.64 45.2299 116.08 49.2499 114.33 53.0999C113.2 55.9499 109.39 57.3899 107.19 54.8599C106.54 54.1699 106.11 53.36 105.77 52.53C105.7 52.37 105.78 52.1899 105.94 52.1199C106.1 52.0599 106.27 52.12 106.34 52.28C107.01 53.67 108.17 55.1599 109.79 55.1899C113.07 55.1699 114.54 50.7299 112.42 48.3999C110.52 46.0099 107.09 44.7999 104.47 46.8699C100.7 49.7999 101.91 56.1099 105.31 58.8899C108.79 61.9699 114.37 62.21 117.82 59.04C121.34 55.78 122.29 50.4899 122.25 45.8399C122.11 40.9499 120.8 35.9699 118.16 31.8399C116.31 28.9899 114.12 26.3599 111.96 23.6899C109.95 21.1799 107.04 18.0099 105.6 15.0799C103.72 11.6899 103.39 6.8199 106.13 3.7199C111.5 -2.9501 123.09 -0.0700455 124.66 8.27995C125.82 13.76 120.91 18.5899 115.6 15.8499C113.89 15.0199 112.16 13.3199 112.49 11.2099C112.87 8.20989 117.62 6.77988 119.27 9.44988C119.42 9.73988 119.01 9.95989 118.84 9.70989L118.86 9.7199Z" fill="#0A0908"/>
<path d="M186.479 59.2097C186.299 63.8297 185.589 68.4197 184.389 72.8497C175.339 104.79 144.289 122.17 112.959 122.55C112.859 122.55 112.759 122.55 112.659 122.55C112.559 122.55 112.459 122.55 112.359 122.55C81.0194 122.18 49.9694 104.79 40.9294 72.8497C39.7294 68.4197 39.0194 63.8297 38.8394 59.2097C38.6994 56.4297 40.8594 54.0597 43.6494 53.9597C46.4194 53.8497 51.1194 66.6897 51.2294 69.4597L112.369 69.6698H112.959L174.099 69.4597C174.209 66.6997 178.909 53.8597 181.679 53.9597C184.459 54.0697 186.629 56.4397 186.489 59.2097H186.479Z" fill="#E3170A"/>
<path d="M3.66962 159.05C5.64127 159.05 7.23962 157.452 7.23962 155.48C7.23962 153.508 5.64127 151.91 3.66962 151.91C1.69796 151.91 0.0996094 153.508 0.0996094 155.48C0.0996094 157.452 1.69796 159.05 3.66962 159.05Z" fill="#0A0908"/>
<path d="M221.65 159.05C223.622 159.05 225.22 157.452 225.22 155.48C225.22 153.508 223.622 151.91 221.65 151.91C219.678 151.91 218.08 153.508 218.08 155.48C218.08 157.452 219.678 159.05 221.65 159.05Z" fill="#0A0908"/>
<path d="M29.6392 144.95C28.2992 144.3 26.7192 144.05 24.9792 144.05C20.6892 144.05 16.2792 147.47 16.2792 152.47C16.2792 157.47 20.6892 160.89 24.9792 160.89C27.7792 160.89 30.1692 159.62 31.7192 157.75L33.9192 159.96C31.7192 162.41 28.4792 164 24.9692 164C18.6292 164 13.1592 158.84 13.1592 152.47C13.1592 146.1 18.6292 140.94 24.9692 140.94C27.6992 140.94 30.2492 141.62 32.7392 143.18V146.94H30.0092L29.6392 144.95Z" fill="black"/>
<path d="M40.2289 157.38C40.2289 159.09 41.2889 161.04 44.1489 161.04C46.3889 161.04 48.2189 159.86 50.4289 158.03V146.5H53.5389V163.9H51.0489L50.4889 161.07C48.4689 162.62 46.2289 163.99 44.1489 163.99C39.5489 163.99 37.1289 161.29 37.1289 157.37V146.5H40.2389V157.37L40.2289 157.38Z" fill="black"/>
<path d="M56.6191 163.9V146.5H59.1091L59.5792 149.05C61.3492 147.62 63.6492 146.41 65.6392 146.41C68.1292 146.41 69.6791 147.06 70.3591 147.47V151.45H67.7792L67.5591 149.71C67.3391 149.56 66.6891 149.31 65.6292 149.31C63.4592 149.31 61.7191 150.46 59.7291 152.14V163.91H56.6191V163.9Z" fill="black"/>
<path d="M73.459 163.9V146.5H75.949L76.4189 149.05C78.1889 147.62 80.4889 146.41 82.4789 146.41C84.9689 146.41 86.519 147.06 87.199 147.47V151.45H84.619L84.399 149.71C84.179 149.56 83.5289 149.31 82.4689 149.31C80.2989 149.31 78.559 150.46 76.569 152.14V163.91H73.459V163.9Z" fill="black"/>
<path d="M89.4492 146.5H92.5592L96.8492 160.79H98.8092L103.099 146.5H106.209L99.8392 167.84C99.3092 169.64 97.4792 170.64 95.7992 170.64L93.9692 170.33V167.53H95.7992C96.2992 167.53 96.9792 167.13 97.1392 166.35L97.8492 163.9H94.6492L89.4592 146.5H89.4492Z" fill="black"/>
<path d="M129.269 163.9H126.159V143.86H118.079V141.06H137.339V143.86H129.259V163.9H129.269Z" fill="black"/>
<path d="M142.619 140.32C143.709 140.32 144.609 141.13 144.609 142.12C144.609 143.11 143.709 143.89 142.619 143.89C141.529 143.89 140.659 143.11 140.659 142.12C140.659 141.13 141.529 140.32 142.619 140.32ZM144.179 163.9H141.069V146.5H144.179V163.9Z" fill="black"/>
<path d="M147.899 163.9V146.5H150.389L150.789 148.67C152.499 147.4 154.269 146.4 156.069 146.4C158.589 146.4 160.509 147.33 161.569 149.2C163.469 147.68 165.449 146.4 167.499 146.4C171.379 146.4 173.869 148.57 173.869 153.02V163.89H170.759V152.83C170.759 151 169.889 149.35 167.719 149.35C165.729 149.35 164.179 150.25 162.349 151.68C162.409 152.12 162.439 152.55 162.439 153.02V163.89H159.329V152.83C159.329 151 158.459 149.35 156.289 149.35C154.329 149.35 152.779 150.22 151.009 151.62V163.89H147.899V163.9Z" fill="black"/>
<path d="M190.379 158.81L192.279 161.2C191.909 161.67 189.829 164 185.349 164C180.499 164 176.619 160.15 176.619 155.18C176.619 150.21 180.439 146.42 185.289 146.42C190.139 146.42 193.709 150.21 193.709 155.18C193.709 155.55 193.679 156.08 193.649 156.3H179.829C180.389 158.97 182.629 160.99 185.359 160.99C188.339 160.99 189.859 159.44 190.389 158.82L190.379 158.81ZM179.939 153.4H190.319C189.949 151.32 187.829 149.52 185.289 149.52C182.749 149.52 180.569 151.17 179.949 153.4H179.939Z" fill="black"/>
<path d="M195.85 161.26L197.5 159.05C198.06 159.45 200.42 161.19 204.09 161.19C206.54 161.19 208.97 160.41 208.97 158.52C208.97 157.37 208.38 156.44 204.09 156.44C198.62 156.44 196.51 154.61 196.51 151.44C196.51 148.64 199.71 146.41 204.09 146.41C208.04 146.41 210.92 148.15 211.02 148.21V151.29H208.63L208.16 150.05C207.23 149.55 206.2 149.24 204.09 149.24C201.32 149.24 199.68 150.23 199.68 151.45C199.68 152.54 200.55 153.41 204.09 153.41C209.12 153.41 212.17 154.75 212.17 158.54C212.17 161.8 209.03 164.01 204.09 164.01C199.15 164.01 196.01 161.4 195.86 161.28L195.85 161.26Z" fill="black"/>
<path d="M24.47 189.84V189.98H20.4901V189.84L21.1301 189.59C21.4301 189.48 21.57 189.15 21.47 188.84L20.3301 185.88H16.73L15.5801 188.88C15.4701 189.18 15.62 189.52 15.92 189.63L16.47 189.84V189.98H13.54V189.84L13.6801 189.79C14.2101 189.58 14.64 189.15 14.85 188.62L18.47 179.23H19.3L22.8901 188.53C23.1001 189.06 23.5301 189.49 24.0601 189.7L24.47 189.84ZM20.05 185.12L18.54 181.23L17.0301 185.12H20.05Z" fill="black"/>
<path d="M34.3898 181.46V181.57L34.1597 181.66C33.8097 181.8 33.5798 182.14 33.5798 182.51V187.46C33.5798 189.02 32.2997 190.3 30.7397 190.3H29.9197C28.3597 190.3 27.0798 189.02 27.0798 187.46V182.51C27.0798 182.14 26.8497 181.8 26.4897 181.66L26.2598 181.57V181.46H29.0997V181.57L28.8698 181.66C28.5098 181.8 28.2798 182.14 28.2798 182.51V187.46C28.2798 188.68 28.8298 189.68 30.0598 189.68H30.7197C31.9397 189.68 32.9398 188.69 32.9398 187.46V182.51C32.9398 182.14 32.7097 181.8 32.3497 181.66L32.1198 181.57V181.46H34.3898Z" fill="black"/>
<path d="M43.13 183.11L43.02 183.13L42.36 182.38C42.18 182.19 41.93 182.08 41.67 182.08H39.79V188.95C39.79 189.32 40.02 189.66 40.38 189.8L40.61 189.89V190H37.77V189.89L38 189.8C38.36 189.66 38.59 189.32 38.59 188.95V182.08H36.71C36.44 182.08 36.2 182.19 36.02 182.38L35.36 183.13L35.25 183.11L35.48 181.46H42.9L43.13 183.11Z" fill="black"/>
<path d="M52.6904 182.5V188.95C52.6904 189.32 52.9205 189.66 53.2805 189.8L53.5104 189.89V190H50.6704V189.89L50.9005 189.8C51.2505 189.66 51.4904 189.32 51.4904 188.95V185.9H46.9604V188.95C46.9604 189.32 47.1904 189.66 47.5504 189.8L47.7805 189.89V190H44.9404V189.89L45.1704 189.8C45.5204 189.66 45.7604 189.32 45.7604 188.95V182.5C45.7604 182.13 45.5304 181.79 45.1704 181.65L44.9404 181.56V181.45H47.7805V181.56L47.5504 181.65C47.2004 181.79 46.9604 182.13 46.9604 182.5V185.29H51.4904V182.5C51.4904 182.13 51.2605 181.79 50.9005 181.65L50.6704 181.56V181.45H53.5104V181.56L53.2805 181.65C52.9305 181.79 52.6904 182.13 52.6904 182.5Z" fill="black"/>
<path d="M61.6403 188.34L61.3903 189.99H55.2803V189.88L55.5103 189.79C55.8603 189.65 56.1002 189.31 56.1002 188.94V182.49C56.1002 182.12 55.8703 181.78 55.5103 181.64L55.2803 181.55V181.44H60.8903L61.1202 183.09L61.0103 183.11L60.3502 182.36C60.1702 182.17 59.9202 182.06 59.6602 182.06H57.3002V185.17H58.5803C58.9503 185.17 59.2902 184.94 59.4302 184.58V184.56H59.5402V186.37H59.4302V186.35C59.2902 186 58.9503 185.76 58.5803 185.76H57.3002V189.33H60.1802C60.4502 189.33 60.7002 189.22 60.8702 189.03L61.5303 188.28L61.6403 188.32V188.34Z" fill="black"/>
<path d="M70.8704 182.5V188.95C70.8704 189.32 71.1004 189.66 71.4604 189.8L71.6904 189.89V190H70.2704L64.8405 182.45V188.97C64.8405 189.34 65.0704 189.68 65.4304 189.82L65.6604 189.91V190.02H63.4404V189.91L63.6704 189.82C64.0304 189.68 64.2604 189.34 64.2604 188.97V182.52C64.2604 182.15 64.0304 181.81 63.6704 181.67L63.4404 181.58V181.47H65.6804L70.3004 187.88V182.5C70.3004 182.13 70.0704 181.79 69.7104 181.65L69.4804 181.56V181.45H71.7004V181.56L71.4704 181.65C71.1204 181.79 70.8804 182.13 70.8804 182.5H70.8704Z" fill="black"/>
<path d="M81.3497 183.11L81.2397 183.13L80.5798 182.38C80.3998 182.19 80.1498 182.08 79.8898 182.08H78.0098V188.95C78.0098 189.32 78.2397 189.66 78.5997 189.8L78.8298 189.89V190H75.9897V189.89L76.2197 189.8C76.5697 189.66 76.8098 189.32 76.8098 188.95V182.08H74.9297C74.6597 182.08 74.4197 182.19 74.2397 182.38L73.5798 183.13L73.4697 183.11L73.6998 181.46H81.1198L81.3497 183.11Z" fill="black"/>
<path d="M85.1499 182.5V188.95C85.1499 189.32 85.3799 189.66 85.7399 189.8L85.9698 189.89V190H83.1299V189.89L83.3599 189.8C83.7099 189.66 83.9499 189.32 83.9499 188.95V182.5C83.9499 182.13 83.7199 181.79 83.3599 181.65L83.1299 181.56V181.45H85.9698V181.56L85.7399 181.65C85.3899 181.79 85.1499 182.13 85.1499 182.5Z" fill="black"/>
<path d="M92.3203 182.09C90.3103 182.09 88.9802 183.72 88.9802 185.73C88.9802 187.74 90.3103 189.37 92.3203 189.37C93.1703 189.37 94.0102 189.07 94.6602 188.52L95.0502 188.98C94.2902 189.62 93.3102 189.97 92.3002 189.97C89.5002 189.97 87.7402 188.05 87.7402 185.71C87.7402 183.37 89.5002 181.45 92.3002 181.45C93.1302 181.45 93.9503 181.7 94.6403 182.16L94.8403 181.75L94.9503 181.73L95.1802 183.38L95.0703 183.4C95.0703 183.4 94.2202 182.07 92.3002 182.07L92.3203 182.09Z" fill="black"/>
<path d="M104.24 180.53V188.68C104.24 189.16 104.52 189.59 104.97 189.76L105.26 189.87V190.01H101.67V189.87L101.95 189.76C102.39 189.58 102.68 189.16 102.68 188.68V180.53C102.68 180.05 102.4 179.62 101.95 179.45L101.67 179.34V179.2H105.26V179.34L104.97 179.45C104.53 179.63 104.24 180.05 104.24 180.53Z" fill="black"/>
<path d="M114.48 182.5V188.95C114.48 189.32 114.71 189.66 115.06 189.8L115.29 189.89V190H113.87L108.44 182.45V188.97C108.44 189.34 108.67 189.68 109.03 189.82L109.26 189.91V190.02H107.04V189.91L107.27 189.82C107.62 189.68 107.86 189.34 107.86 188.97V182.52C107.86 182.15 107.63 181.81 107.27 181.67L107.04 181.58V181.47H109.28L113.9 187.88V182.5C113.9 182.13 113.67 181.79 113.31 181.65L113.08 181.56V181.45H115.3V181.56L115.07 181.65C114.72 181.79 114.49 182.13 114.49 182.5H114.48Z" fill="black"/>
<path d="M125.051 185.72C125.051 188.12 123.831 190 120.881 190H117.061V189.89L117.291 189.8C117.641 189.66 117.881 189.32 117.881 188.95V182.5C117.881 182.13 117.651 181.79 117.291 181.65L117.061 181.56V181.45H120.881C123.831 181.45 125.051 183.33 125.051 185.71V185.72ZM123.831 185.72C123.831 183.39 122.841 182.06 120.881 182.06H119.101V189.36H120.881C122.831 189.36 123.831 188.03 123.831 185.72Z" fill="black"/>
<path d="M128.4 182.5V188.95C128.4 189.32 128.63 189.66 128.99 189.8L129.22 189.89V190H126.38V189.89L126.61 189.8C126.96 189.66 127.2 189.32 127.2 188.95V182.5C127.2 182.13 126.97 181.79 126.61 181.65L126.38 181.56V181.45H129.22V181.56L128.99 181.65C128.64 181.79 128.4 182.13 128.4 182.5Z" fill="black"/>
<path d="M139.66 189.84V189.95H136.521V189.84L137.031 189.64C137.261 189.55 137.38 189.29 137.3 189.05L136.401 186.71H133.54L132.62 189.09C132.53 189.32 132.661 189.59 132.891 189.68L133.331 189.86V189.97H131.021V189.86L131.13 189.82C131.56 189.66 131.89 189.32 132.05 188.9L134.93 181.46H135.591L138.43 188.83C138.59 189.26 138.93 189.59 139.35 189.75L139.67 189.84H139.66ZM136.151 186.09L134.961 183.02L133.771 186.09H136.151Z" fill="black"/>
<path d="M148.451 182.5V188.95C148.451 189.32 148.68 189.66 149.04 189.8L149.271 189.89V190H147.85L142.42 182.45V188.97C142.42 189.34 142.65 189.68 143.01 189.82L143.24 189.91V190.02H141.021V189.91L141.25 189.82C141.61 189.68 141.841 189.34 141.841 188.97V182.52C141.841 182.15 141.61 181.81 141.25 181.67L141.021 181.58V181.47H143.26L147.88 187.88V182.5C147.88 182.13 147.65 181.79 147.29 181.65L147.06 181.56V181.45H149.281V181.56L149.05 181.65C148.7 181.79 148.461 182.13 148.461 182.5H148.451Z" fill="black"/>
<path d="M161.52 180C158.98 180 157.31 182.06 157.31 184.6C157.31 187.14 158.98 189.2 161.52 189.2C162.6 189.2 163.65 188.81 164.48 188.12L164.98 188.71C164 189.53 162.78 189.97 161.52 189.97C157.97 189.97 155.75 187.55 155.75 184.59C155.75 181.63 157.97 179.21 161.52 179.21C162.57 179.21 163.6 179.53 164.47 180.1L164.72 179.59L164.86 179.57L165.16 181.67L165.02 181.69C165.02 181.69 163.94 180 161.51 180L161.53 180.02L161.52 180Z" fill="black"/>
<path d="M175.07 181.46V181.57L174.84 181.66C174.48 181.8 174.25 182.14 174.25 182.51V187.46C174.25 189.02 172.97 190.3 171.41 190.3H170.59C169.03 190.3 167.75 189.02 167.75 187.46V182.51C167.75 182.14 167.52 181.8 167.16 181.66L166.93 181.57V181.46H169.77V181.57L169.54 181.66C169.18 181.8 168.95 182.14 168.95 182.51V187.46C168.95 188.68 169.5 189.68 170.73 189.68H171.39C172.61 189.68 173.61 188.69 173.61 187.46V182.51C173.61 182.14 173.38 181.8 173.02 181.66L172.79 181.57V181.46H175.06H175.07Z" fill="black"/>
<path d="M183.7 189.82V189.93H181.71C181.71 189.93 181.51 189.49 180.89 188.12C180.38 186.97 179.98 185.9 179.4 185.9H178.39V188.9C178.39 189.27 178.62 189.61 178.98 189.75L179.21 189.84V189.95H176.37V189.84L176.6 189.75C176.95 189.61 177.19 189.27 177.19 188.9V182.45C177.19 182.08 176.96 181.74 176.6 181.6L176.37 181.51V181.4H179.57C181.97 181.4 182.52 182.41 182.52 183.66C182.52 184.6 182.2 185.42 180.98 185.76C181.42 186.27 181.74 186.98 182.04 187.64C182.25 188.14 182.45 188.58 182.61 188.94C182.79 189.33 183.11 189.63 183.5 189.79L183.71 189.83L183.7 189.82ZM180.27 185.19C180.8 185.03 181.26 184.62 181.26 183.66C181.26 182.24 180.29 182.03 179.54 182.03H178.39V185.28H179.54C179.77 185.28 180.04 185.26 180.29 185.19H180.27Z" fill="black"/>
<path d="M192.391 189.82V189.93H190.401C190.401 189.93 190.211 189.49 189.581 188.12C189.071 186.97 188.681 185.9 188.091 185.9H187.081V188.9C187.081 189.27 187.311 189.61 187.671 189.75L187.901 189.84V189.95H185.061V189.84L185.291 189.75C185.651 189.61 185.881 189.27 185.881 188.9V182.45C185.881 182.08 185.651 181.74 185.291 181.6L185.061 181.51V181.4H188.261C190.661 181.4 191.211 182.41 191.211 183.66C191.211 184.6 190.891 185.42 189.661 185.76C190.101 186.27 190.421 186.98 190.731 187.64C190.941 188.14 191.141 188.58 191.301 188.94C191.481 189.33 191.801 189.63 192.191 189.79L192.401 189.83L192.391 189.82ZM188.961 185.19C189.491 185.03 189.951 184.62 189.951 183.66C189.951 182.24 188.971 182.03 188.231 182.03H187.081V185.28H188.231C188.461 185.28 188.731 185.26 188.981 185.19H188.961Z" fill="black"/>
<path d="M195.74 182.5V188.95C195.74 189.32 195.97 189.66 196.33 189.8L196.56 189.89V190H193.72V189.89L193.95 189.8C194.31 189.66 194.54 189.32 194.54 188.95V182.5C194.54 182.13 194.31 181.79 193.95 181.65L193.72 181.56V181.45H196.56V181.56L196.33 181.65C195.97 181.79 195.74 182.13 195.74 182.5Z" fill="black"/>
<path d="M204.69 188.34L204.44 189.99H198.33V189.88L198.56 189.79C198.92 189.65 199.15 189.31 199.15 188.94V182.49C199.15 182.12 198.92 181.78 198.56 181.64L198.33 181.55V181.44H203.94L204.17 183.09L204.06 183.11L203.4 182.36C203.22 182.17 202.97 182.06 202.71 182.06H200.35V185.17H201.63C202 185.17 202.34 184.94 202.48 184.58V184.56H202.59V186.37H202.48V186.35C202.34 186 202 185.76 201.63 185.76H200.35V189.33H203.23C203.5 189.33 203.74 189.22 203.92 189.03L204.58 188.28L204.69 188.32V188.34Z" fill="black"/>
<path d="M209.63 184.95C210.7 185.55 211.81 186 211.81 187.75C211.81 189.06 210.44 189.97 208.93 189.97C208.33 189.97 207.56 189.86 206.82 189.14L206.61 189.46H206.5V187.79H206.61C206.61 187.79 207.28 189.35 208.94 189.35C209.92 189.35 210.59 188.85 210.59 187.73C210.59 187.07 209.95 186.51 209.01 185.97C207.98 185.38 206.84 184.96 206.84 183.59C206.84 182.22 207.92 181.42 209.43 181.42C210 181.42 210.62 181.6 211.13 181.9L211.29 181.56L211.4 181.54L211.63 183.19L211.52 183.21C211.52 183.21 210.97 182.04 209.41 182.04C208.74 182.04 207.74 182.36 207.74 183.18C207.74 184.05 208.68 184.4 209.6 184.94H209.62L209.63 184.95Z" fill="black"/>
</svg>
