<svg width="45" height="40" viewBox="0 0 45 40" fill="none" xmlns="http://www.w3.org/2000/svg">
<path d="M44.5099 20.92C44.4599 20.92 44.4098 20.92 44.2998 20.97C44.2498 20.97 44.1999 21.02 44.1499 21.02C44.0999 21.02 44.0499 21.0699 43.9999 21.0699C43.8999 21.1199 43.7399 21.22 43.5899 21.33C43.4399 21.43 43.3298 21.5399 43.1798 21.6899C43.1298 21.7399 43.0798 21.84 42.9698 21.9C42.9198 22 42.8699 22.05 42.7599 22.16C42.7099 22.26 42.6598 22.37 42.6098 22.42C42.5598 22.52 42.5099 22.63 42.4599 22.73C42.3599 22.94 42.3099 23.14 42.2499 23.4C42.2499 23.5 42.1999 23.61 42.1999 23.76V24.33V24.64C42.1999 24.85 42.1499 25 42.1499 25.16V25.26C42.1499 25.2933 42.1332 25.3267 42.0998 25.36C42.0998 25.41 42.0498 25.5099 42.0498 25.5699C42.0498 25.6299 41.9999 25.67 41.9999 25.72C41.9499 25.77 41.9499 25.82 41.9499 25.87C41.8999 25.97 41.8498 26.02 41.7998 26.08L41.7499 26.13C39.4799 27.47 36.9998 28.4 34.7298 29.02C34.8798 26.28 33.9598 22.98 30.8598 20.91C24.5098 16.68 22.1399 14.25 22.0799 14.25L22.0299 14.2L20.2198 9.34998C20.2198 4.95998 22.2799 0.0100098 22.2799 0.0100098L18.0498 4.44995L12.3199 1.30005C15.1099 3.52005 15.8298 7.39 16.0398 9.25L13.2998 14.1L13.0398 14.36C13.0398 14.36 10.6699 16.73 4.25986 21.02C0.339861 23.65 -0.330139 28.5599 1.00986 32.0699C2.19986 35.0599 4.61986 36.77 7.50986 36.77C7.86986 36.77 8.22988 36.72 8.58988 36.67C9.46988 37.13 10.4498 37.34 11.4298 37.34C12.5098 37.34 13.6498 37.08 14.6798 36.51C15.4498 37.03 16.3798 37.34 17.4698 37.34C18.5598 37.34 19.4798 37.03 20.3098 36.51C21.3898 37.08 22.5298 37.34 23.6098 37.34C24.5898 37.34 25.5699 37.13 26.4499 36.67C27.5299 37.75 28.9299 38.79 30.5799 39.3C31.2999 39.51 31.9699 39.61 32.6999 39.61C34.1999 39.61 35.6899 39.15 37.1399 38.22C39.7699 36.57 41.5798 34.0399 42.3498 30.9399C42.8098 29.0299 42.7599 27.48 42.7099 26.91L42.7599 26.86C42.8099 26.76 42.8598 26.6 42.9098 26.45C42.9598 26.4 42.9599 26.2999 42.9599 26.1899C42.9599 26.0799 43.0099 26.0401 43.0099 25.9301C43.0099 25.8201 43.0598 25.72 43.0598 25.62V25.3101C43.0598 25.1001 43.0599 24.8999 43.0099 24.6899C43.0099 24.5899 42.9599 24.48 42.9599 24.38V24.23C42.9599 24.18 42.9598 24.13 42.9098 24.08C42.9098 23.98 42.9098 23.87 42.8598 23.77V23.46C42.8598 23.25 42.8598 23.05 42.9098 22.89C42.9098 22.79 42.9599 22.68 42.9599 22.63C43.0099 22.53 43.0098 22.42 43.0598 22.37C43.1098 22.27 43.1098 22.22 43.1598 22.11C43.2098 22.01 43.2598 21.96 43.3098 21.85C43.4098 21.7 43.5198 21.5899 43.6198 21.4399C43.7198 21.3399 43.8298 21.2301 43.9298 21.1801C43.9798 21.1301 44.0299 21.13 44.0799 21.08C44.1299 21.03 44.1798 21.03 44.2298 21.03C44.3798 20.98 44.4398 20.9301 44.4898 20.9301L44.5099 20.92ZM30.1098 22.0601C32.8998 23.9201 33.6198 27.0199 33.3598 29.4399C31.9698 29.7999 30.6798 30.01 29.5398 30.21C29.4898 29.8 29.4399 29.38 29.3299 29.02C28.5599 25.35 25.7199 21.12 23.3899 18.08L22.9798 16.9399C24.4298 18.0799 26.6998 19.78 30.0998 22.05L30.1098 22.0601ZM17.4599 5.69995L18.3399 6.21997L19.0099 5.5L19.5299 4.97998C19.2699 6.26998 19.0099 7.66001 18.9599 9.01001L17.2599 9.06006C17.1599 8.03006 16.8999 6.57996 16.3799 5.07996L17.4599 5.69995ZM16.8399 10.35L19.1598 10.25L20.9198 14.95C20.3998 14.38 20.0898 14.02 20.0398 13.97L18.8498 12.6801L18.9999 15.62C18.4799 14.74 18.0699 14.07 18.0199 14.02L17.4999 13.14L16.9798 14.02C16.9298 14.07 16.5698 14.69 16.0998 15.47L16.2499 12.73L15.0598 14.02C15.0098 14.07 14.7999 14.33 14.4399 14.74L16.8098 10.35H16.8399ZM2.17984 31.62C0.989844 28.57 1.55983 24.3399 4.91983 22.0699C8.32983 19.7999 10.5998 18.04 11.9898 16.91L11.6299 18.05C9.30986 21.1 6.46985 25.38 5.68985 28.99C5.11985 31.62 5.63988 33.8899 7.02988 35.4399C4.85988 35.3399 3.10984 33.94 2.17984 31.62ZM8.62986 35.23C6.97986 34.04 6.35984 31.87 6.92984 29.29C7.90984 24.7 12.5599 18.76 14.7799 16.13L14.6798 17.83C14.4698 18.19 14.2698 18.55 14.1098 18.86C12.3498 22.22 10.7498 30.89 13.2298 35.02C13.3798 35.23 13.4899 35.43 13.6399 35.64C11.9399 36.36 10.0299 36.21 8.62986 35.23ZM17.4599 36.11C16.0699 36.11 15.0298 35.54 14.3098 34.35C12.0898 30.68 13.6898 22.4801 15.2398 19.4301C15.8098 18.3501 16.8399 16.59 17.4599 15.51C18.0799 16.59 19.1598 18.3501 19.6798 19.4301C21.2298 22.4801 22.8298 30.63 20.6098 34.35C19.8898 35.54 18.8599 36.11 17.4599 36.11ZM21.2799 35.59C21.4299 35.38 21.5899 35.23 21.6899 35.02C24.2199 30.89 22.5698 22.22 20.8098 18.86C20.6598 18.6 20.4998 18.29 20.3498 17.98L20.2499 16.12C22.4699 18.75 27.1199 24.69 28.1499 29.28C28.2499 29.64 28.2998 30.05 28.2998 30.42C26.5398 30.63 25.4098 30.6801 25.4098 30.6801H24.8899L24.3199 33.73L24.4198 33.9399C24.6798 34.4599 25.0398 35.08 25.5598 35.75C24.2698 36.27 22.7199 36.21 21.2799 35.59ZM36.4599 37.1899C34.5999 38.3299 32.7399 38.64 30.8799 38.12C28.2999 37.35 26.3398 34.97 25.5598 33.58L25.8698 31.9301C27.8298 31.8301 35.0598 31.26 41.4098 27.85C41.4598 29.81 40.8899 34.4599 36.4499 37.1899H36.4599Z" fill="black"/>
</svg>
