<svg width="68" height="68" viewBox="0 0 68 68" fill="none" xmlns="http://www.w3.org/2000/svg">
<path d="M34 68C15.2 68 0 52.8 0 34C0 15.2 15.2 0 34 0C52.8 0 68 15.2 68 34C68 52.8 52.8 68 34 68ZM34 4C17.4 4 4 17.4 4 34C4 50.6 17.4 64 34 64C50.6 64 64 50.6 64 34C64 17.4 50.6 4 34 4Z" fill="white"/>
<path d="M32.6 14.5999L52 33.9999L32.6 53.3999L29.8 50.5999L46.4 33.9999L29.8 17.3999L32.6 14.5999Z" fill="white"/>
<path d="M49.2002 36L15.2002 36L15.2002 32L49.2002 32L49.2002 36Z" fill="white"/>
</svg>
