<?xml version="1.0" encoding="UTF-8"?>
<svg id="Layer_2" data-name="Layer 2" xmlns="http://www.w3.org/2000/svg" viewBox="0 0 120.42 121.07">
  <defs>
    <style>
      .cls-1 {
        fill: #087e8b;
      }

      .cls-1, .cls-2 {
        stroke-width: 0px;
      }

      .cls-2 {
        fill: #0b3954;
      }
    </style>
  </defs>
  <g id="Layer_1-2" data-name="Layer 1">
    <g>
      <g>
        <path class="cls-2" d="m55.2,88.52H3.55c-1.95,0-3.53-1.58-3.53-3.53V27.8c0-3.23,3.98-4.77,6.15-2.37l51.66,57.19c2.05,2.27.44,5.9-2.62,5.9Z"/>
        <path class="cls-2" d="m76.07,101.42l9.1,10.08c1.71,1.89.92,4.94-1.5,5.72-7.96,2.57-16.76,3.86-26.4,3.86H3.55c-1.95,0-3.53-1.58-3.53-3.53v-13.76c0-1.95,1.58-3.53,3.53-3.53h69.91c1,0,1.95.42,2.62,1.16Z"/>
      </g>
      <path class="cls-1" d="m120.42,60.54c0,12.34-2.85,23.03-8.56,32.08-2.45,3.89-5.32,7.4-8.59,10.54-1.65,1.58-3.4,3.07-5.26,4.45-1.44,1.08-3.48.86-4.69-.47L.93,5.91C-1.14,3.64.47,0,3.54,0h49.25c13.38,0,25.13,2.48,35.28,7.44,10.15,4.96,18.07,11.93,23.78,20.93,5.71,9,8.56,19.72,8.56,32.17Z"/>
    </g>
  </g>
</svg>