<svg width="281" height="266" viewBox="0 0 281 266" fill="none" xmlns="http://www.w3.org/2000/svg">
<path d="M1.88989 91.71L2.32007 77.9799L18.05 83.4099V88.8499L23.05 89.14V80.9899C19.24 80.2299 15.8 79.18 12.75 77.84C10.18 76.7 7.81992 75.2399 5.66992 73.4799C3.51992 71.7199 2.5001 69.5499 2.6001 66.9699L4.6001 20.7899L10.46 15.4999L33.9199 15.21L38.5 20.0699L40.9299 68.5399C40.0699 68.7299 39.0699 68.9499 37.9299 69.1799C36.7799 69.4199 35.71 69.6099 34.71 69.7499C33.71 69.8899 32.8499 69.9899 32.1399 70.0399C31.4199 70.0899 31.0701 70.02 31.0701 69.83V37.14C31.1601 35.9 31.1199 34.76 30.9299 33.71C30.7399 32.85 30.4099 32.0699 29.9299 31.3499C29.4499 30.6299 28.74 30.28 27.78 30.28C26.73 30.28 25.9901 30.73 25.5601 31.64C25.1301 32.55 24.8199 33.5199 24.6299 34.5699C24.4399 35.8099 24.39 37.2399 24.49 38.8599V73.9799C27.54 74.7399 30.3 75.65 32.78 76.7C34.88 77.75 36.8101 79.0399 38.5701 80.5599C40.3301 82.0899 41.31 84.0899 41.5 86.5699V86.71C41.59 89.19 41.5501 91.2599 41.3601 92.9299C41.1701 94.5999 40.65 95.98 39.79 97.08C38.93 98.18 37.6399 98.9399 35.9299 99.3699C34.2099 99.7999 31.83 100.01 28.78 100.01H28.6399L12.48 99.8699C9.51998 99.5799 7.05004 98.85 5.04004 97.65C3.04004 96.46 1.94 94.4299 1.75 91.5699L1.88989 91.71Z" fill="#2E3532"/>
<path d="M47.3706 99.5701L50.5205 15.6301L59.9604 15.4901L62.2505 64.8101L69.9705 63.8101L72.9705 15.4901L83.9805 15.3501L87.8406 100L71.9604 99.8601L70.6704 78.4101L62.0906 79.8401C61.9906 82.1301 61.8504 84.4701 61.6604 86.8501C61.4704 88.8501 61.3305 91.0201 61.2305 93.3601C61.1305 95.7001 61.0404 97.8201 60.9404 99.7301L47.3506 99.5901L47.3706 99.5701Z" fill="#2E3532"/>
<path d="M140.04 99.7201L143.19 15.7802L155.49 15.6401L156.49 57.8101L168.79 15.4901L176.52 15.3501L177.37 24.9801L166.08 60.8101L179.66 75.1101L180.52 100L169.37 99.7201L168.94 81.5501L155.92 73.2601L155.35 99.7201H140.04Z" fill="#2E3532"/>
<path d="M227 99.7199C222.8 99.7199 219.25 99.7 216.34 99.65C213.43 99.6 210.55 99.58 207.69 99.58C204.83 99.58 201.78 99.5599 198.54 99.5099C195.3 99.4599 191.29 99.4399 186.53 99.4399L189.68 15.4999L223.15 15.21L224.15 30.7C223.2 30.8 222.2 30.84 221.15 30.84C220.1 30.84 219.15 30.8899 218.29 30.9799C217.24 31.0799 216.24 31.1199 215.29 31.1199L214 24.0699L203.99 24.64L206.56 65.6699H223.29V75.2499H206.99L207.56 87.5499L226.44 86.9799L227.01 99.9899V99.7L227 99.7199Z" fill="#2E3532"/>
<path d="M232.871 91.71L233.301 77.9799L249.031 83.4099V88.8499L254.041 89.14V80.9899C250.231 80.2299 246.79 79.18 243.74 77.84C241.17 76.7 238.81 75.2399 236.66 73.4799C234.51 71.7199 233.491 69.5499 233.581 66.9699L235.581 20.7899L241.44 15.4999L264.9 15.21L269.48 20.0699L271.91 68.5399C271.05 68.7299 270.05 68.9499 268.91 69.1799C267.76 69.4199 266.69 69.6099 265.69 69.7499C264.69 69.8899 263.831 69.9899 263.121 70.0399C262.401 70.0899 262.051 70.02 262.051 69.83V37.14C262.141 35.9 262.1 34.76 261.91 33.71C261.72 32.85 261.39 32.0699 260.91 31.3499C260.43 30.6299 259.72 30.28 258.76 30.28C257.71 30.28 256.971 30.73 256.541 31.64C256.111 32.55 255.801 33.5199 255.611 34.5699C255.421 35.8099 255.37 37.2399 255.47 38.8599V73.9799C258.52 74.7399 261.28 75.65 263.76 76.7C265.86 77.75 267.791 79.0399 269.551 80.5599C271.311 82.0899 272.29 84.0899 272.48 86.5699V86.71C272.57 89.19 272.531 91.2599 272.341 92.9299C272.151 94.5999 271.621 95.98 270.771 97.08C269.911 98.18 268.62 98.9399 266.91 99.3699C265.2 99.7999 262.81 100.01 259.76 100.01H259.621L243.46 99.8699C240.5 99.5799 238.031 98.85 236.021 97.65C234.021 96.46 232.92 94.4299 232.73 91.5699L232.871 91.71Z" fill="#2E3532"/>
<path d="M4.92017 112.75L45.1401 112.31L57.3604 123.42L59.5803 173.93L47.3604 195.26L61.1401 210.81L62.4702 247.25L53.3604 262.14C46.2504 261.99 38.6202 261.88 30.4702 261.81C22.3202 261.74 12.1703 261.63 0.0302734 261.48L4.92017 112.76V112.75ZM21.1401 241.47L36.0303 241.25L39.3604 215.03L22.9202 204.59L21.1401 241.47ZM40.0303 163.7L39.5903 133.19L24.7002 131.63L23.5903 181.92L40.0303 163.7Z" fill="#E94F37"/>
<path d="M134.46 261.47C127.94 261.47 122.42 261.44 117.91 261.36C113.39 261.29 108.91 261.25 104.47 261.25C100.03 261.25 95.2798 261.22 90.2498 261.14C85.2098 261.07 78.9898 261.03 71.5898 261.03L76.4797 112.09L128.47 111.65L130.03 161.53C128.55 161.68 126.99 161.75 125.36 161.75C123.73 161.75 122.25 161.83 120.92 161.97C119.29 162.12 117.73 162.19 116.25 162.19L114.25 125.42L98.6997 126.31L102.7 182.44H128.7V197.33H103.37L104.26 242.59L133.59 241.7L134.48 261.92V261.48L134.46 261.47Z" fill="#E94F37"/>
<path d="M220 112.3L262.88 111.86L272.43 124.08L275.76 202.36L269.54 216.8L266.65 217.24L280.65 260.79L260.87 261.68L250.2 219.69L240.87 221.02V261.68L215.32 261.46L219.99 112.3H220ZM247.55 131.85H239.33L239.11 209.69L247.78 208.58L251.78 202.36L252.89 141.85L247.56 131.85H247.55Z" fill="#E94F37"/>
<path d="M206.4 199.9C206.21 191.11 205.21 180.11 202.26 167.77C199.56 156.49 195.91 146.98 192.45 139.47C189.99 134.53 186.2 128.26 180.37 122.03C177.12 118.56 173.88 115.77 170.93 113.56C170.93 113.56 173.36 101.51 164.62 109.8C164.53 109.86 160.91 109.85 159.04 110.45C156.19 111.37 154.61 111.89 153.09 112.56C149.9 113.95 149.26 114.33 148.81 114.77C147.79 115.76 147.68 116.44 146.5 118.12C145.38 119.71 144.27 120.83 143.54 121.5C142.73 120.99 141.16 120.16 139.96 120.66C139.92 120.68 139.85 120.71 139.77 120.75C139.37 120.98 138.67 121.69 138.63 124.19C138.53 130.54 137.41 134.3 152.22 143.65C152.22 143.65 158.46 160.39 144.43 188.78C144.43 188.78 135.77 204.63 149.3 208.53C149.3 208.53 150.38 220.9 155.88 229.47C155.88 229.47 159.38 233.74 158.93 243.53C158.93 243.53 160.05 250.17 162.27 256.71C162.27 256.71 162.58 257.89 160.59 261.6C160.59 261.6 160.31 267.47 179.49 264.12C179.49 264.12 184.29 262.21 186.75 252.56C186.75 252.56 186.09 249.54 190.26 249.78C190.26 249.78 201.09 251.2 199.88 241.47C199.88 241.47 198.51 239.79 199.16 237.42C199.81 235.05 207.6 219.18 206.39 199.9" fill="#E94F37"/>
<path d="M161.841 186.84C166.741 181.32 168.92 177.56 169.22 177.76C169.53 177.97 167.43 182.14 164.67 186.15C161.87 190.22 157.111 195.97 153.591 199.81C152.871 200.6 151.65 201.9 150.72 203.98C149.54 206.6 149.65 208.54 149.32 208.53C148.92 208.52 148.25 205.69 149.23 203C149.54 202.15 149.92 201.57 150.06 201.36C153.33 196.45 161.841 186.84 161.841 186.84Z" fill="#F6F7EB"/>
<path d="M133.901 18.3801C133.901 18.3801 133.881 18.3301 133.881 18.3001C133.761 17.6101 133.201 17.1201 132.551 17.1201H95.3108C94.6608 17.1201 94.1007 17.6101 93.9907 18.3001C93.9707 18.3301 93.9707 18.3501 93.9707 18.3801L92.9607 27.2201C92.9407 27.3201 92.9307 27.4201 92.9307 27.5201C92.9307 28.3301 93.5308 28.9901 94.2808 28.9901H133.581C133.971 28.9901 134.341 28.8101 134.591 28.4801C134.851 28.1701 134.971 27.7501 134.911 27.3401L133.901 18.3801ZM95.8108 26.0501L96.4907 20.0201H131.371L132.071 26.0501H95.8108ZM134.931 49.7101L133.901 60.3801L133.171 67.9001L131.751 82.6701V82.7201L130.211 98.6901C130.161 99.1801 129.891 99.5901 129.531 99.8101C129.341 99.9301 129.121 100 128.881 100H99.0007C98.6707 100 98.3608 99.8601 98.1208 99.6301C98.1208 99.6301 98.1108 99.6301 98.1008 99.6201C98.1008 99.6201 98.1008 99.6101 98.0908 99.6001C97.9208 99.4201 97.7907 99.2001 97.7207 98.9501C97.7007 98.8601 97.6807 98.7701 97.6707 98.6801L96.1306 82.6901L94.7708 68.4701L94.0007 60.3701L92.9707 49.7001C92.9207 49.2901 93.0508 48.8801 93.3008 48.5601C93.5608 48.2601 93.9208 48.0801 94.3008 48.0801H133.601C133.981 48.0801 134.341 48.2601 134.601 48.5601C134.861 48.8701 134.981 49.2801 134.951 49.7001M136.121 31.0301H91.8008C91.0608 31.0301 90.4707 31.6901 90.4707 32.5001V44.5701C90.4707 45.3801 91.0608 46.0401 91.8008 46.0401H136.121C136.861 46.0401 137.471 45.3801 137.471 44.5701V32.5001C137.471 31.6901 136.871 31.0301 136.121 31.0301ZM113.961 3.37009C114.091 3.37009 114.221 3.39008 114.341 3.43008L114.401 3.4501C114.401 3.4501 114.401 3.4501 114.411 3.4501C114.441 3.4601 114.471 3.47007 114.501 3.48007C114.531 3.50007 114.571 3.51012 114.601 3.53012C114.631 3.55012 114.661 3.57012 114.691 3.59012C114.721 3.61012 114.751 3.63012 114.781 3.65012C114.811 3.67012 114.841 3.70006 114.861 3.72006C114.891 3.74006 114.911 3.77008 114.931 3.80008C114.961 3.83008 114.981 3.8601 115.001 3.8801C115.041 3.9401 115.081 3.99008 115.111 4.05008C115.111 4.05008 115.111 4.05009 115.111 4.06009C115.131 4.09009 115.141 4.12012 115.161 4.15012C115.171 4.18012 115.181 4.20007 115.191 4.23007C115.191 4.23007 115.191 4.2501 115.191 4.2601C115.221 4.3301 115.241 4.39006 115.251 4.47006C115.271 4.54006 115.281 4.62009 115.281 4.69009C115.281 4.73009 115.281 4.77008 115.281 4.80008V15.0801H112.591V4.80008C112.591 3.99008 113.191 3.34012 113.931 3.34012M113.931 6.27011C113.791 6.27011 113.641 6.24009 113.501 6.19009L104.471 2.87009C103.771 2.61009 103.391 1.78011 103.631 1.02011C103.871 0.260112 104.631 -0.159932 105.341 0.100068L114.371 3.42007C115.071 3.68007 115.451 4.51011 115.211 5.27011C115.021 5.88011 114.501 6.27011 113.941 6.27011" fill="#2E3532"/>
</svg>
