<svg width="428" height="260" viewBox="0 0 428 260" fill="none" xmlns="http://www.w3.org/2000/svg">
<path d="M214.34 0.199953C255.26 0.189953 288.56 33.5699 288.56 74.6299C288.56 115.42 255.33 148.58 214.28 148.73C173.03 148.89 140.08 115.39 140.1 73.3201C140.11 33.4301 173.84 0.219953 214.33 0.199953H214.34Z" fill="#FAFAFA"/>
<path d="M136.23 200.9C132.98 207.63 129.88 214.03 126.57 220.87C123.11 214.75 119.86 209 116.39 202.86C114.71 207.75 113.21 212.26 111.6 216.73C111.12 218.07 111.2 220.79 109.23 220.03C106.94 219.14 109.06 217.18 109.59 215.82C113.12 206.73 115.84 197.38 119.03 188.18C119.68 186.31 120.32 184.44 121.12 182.14C124.94 189.48 128.54 196.4 132.33 203.67C135.99 196.44 139.51 189.51 143.26 182.11C145.01 187.14 146.57 191.66 148.15 196.18C150.64 203.34 153.08 210.51 155.67 217.63C156.37 219.54 155.88 219.89 154.05 219.83C150.89 219.72 147.71 219.7 144.55 219.83C142.88 219.9 142.28 219.26 141.82 217.74C140.33 212.8 138.66 207.91 137.05 203.01C136.85 202.41 136.6 201.83 136.24 200.89L136.23 200.9Z" fill="#FAFAFA"/>
<path d="M238.1 196.58C246.95 199.75 249.93 208.13 244.66 214.73C242.14 217.88 238.65 219.17 234.77 219.26C228.78 219.4 222.78 219.26 216.79 219.33C215.39 219.35 214.93 218.95 214.94 217.52C214.99 206.86 214.99 196.21 214.94 185.55C214.94 184.11 215.4 183.72 216.79 183.74C221.87 183.81 226.95 183.8 232.02 183.76C235.39 183.73 238.32 184.59 240.03 187.76C241.43 190.37 240.79 193.13 238.09 196.58H238.1Z" fill="#FAFAFA"/>
<path d="M252.999 201.4C252.999 196.15 253.049 190.89 252.969 185.64C252.949 184.02 253.239 183.22 255.119 183.31C261.349 183.62 267.629 182.79 273.839 183.77C280.129 184.76 284.519 189.22 285.039 194.85C285.589 200.87 282.179 206.1 276.069 208.3C274.639 208.82 274.239 209.3 274.939 210.73C275.789 212.45 276.489 214.24 277.819 215.67C279.339 217.3 281.099 218.22 283.389 217.64C284.199 217.44 285.169 217.05 285.309 218.35C285.429 219.46 284.489 219.66 283.629 219.77C280.499 220.16 277.869 219.18 275.819 216.77C274.569 215.3 273.639 213.62 272.959 211.81C272.389 210.3 271.879 208.79 269.719 209.15C269.129 209.25 268.539 208.86 268.569 208.13C268.599 207.33 269.259 207.32 269.849 207.3C270.519 207.28 271.179 207.3 271.849 207.27C278.319 206.92 282.449 203.1 282.959 197C283.409 191.56 279.489 186.99 273.339 185.77C268.526 184.817 266.119 186.76 266.119 191.6C266.119 200.27 266.069 208.94 266.159 217.61C266.179 219.34 265.769 219.94 263.969 219.84C261.139 219.68 258.299 219.69 255.469 219.84C253.569 219.94 252.879 219.46 252.939 217.41C253.089 212.08 252.989 206.74 252.989 201.4H252.999Z" fill="#FAFAFA"/>
<path d="M364.079 201.64C364.079 196.39 364.119 191.15 364.049 185.91C364.029 184.42 364.249 183.65 366.039 183.73C371.439 183.98 376.869 183.36 382.249 184.1C391.579 185.38 397.399 191.64 397.629 200.48C397.869 209.97 391.889 217.55 382.699 219.22C376.919 220.27 371.069 219.64 365.249 219.79C363.699 219.83 364.079 218.7 364.079 217.87C364.059 212.46 364.069 207.05 364.069 201.64H364.079Z" fill="#FAFAFA"/>
<path d="M56.8792 183.76C67.9392 183.76 75.2493 190.9 75.2493 201.7C75.2493 212.55 67.6992 219.8 56.3892 219.79C45.8092 219.79 38.1492 212.09 38.1592 201.48C38.1692 191.08 45.8992 183.76 56.8792 183.76Z" fill="#FAFAFA"/>
<path d="M178.129 183.76C189.089 183.76 196.369 191.01 196.339 201.86C196.309 212.55 188.729 219.8 177.569 219.79C166.939 219.79 159.249 212.15 159.239 201.57C159.239 191.03 166.939 183.75 178.119 183.76H178.129Z" fill="#FAFAFA"/>
<path d="M355.19 221.12C345.87 213.94 337 207.1 328.14 200.29C327.27 200.83 327.61 201.56 327.6 202.16C327.57 207.16 327.6 212.16 327.57 217.15C327.57 218.18 327.86 219.67 326.34 219.69C324.65 219.71 325.23 218.19 325.23 217.2C325.27 206.62 325.32 196.05 325.39 185.47C325.39 184.59 325.1 183.64 325.86 182.63C334.77 189.62 343.66 196.59 352.51 203.54C353.38 202.97 353.05 202.23 353.04 201.64C352.94 196.4 353.34 191.15 352.8 185.91C352.71 185.06 352.49 183.87 353.88 183.82C355.17 183.78 355.18 184.84 355.18 185.79C355.18 197.36 355.18 208.93 355.18 221.11L355.19 221.12Z" fill="#FAFAFA"/>
<path d="M17.5396 201.75C17.5396 206.33 17.6096 210.91 17.4996 215.49C17.4596 217.23 18.0496 217.83 19.7696 217.84C24.0396 217.87 28.0896 217.35 31.2896 214.12C31.8896 213.51 32.6595 212.91 33.3895 213.85C34.0295 214.67 33.5497 215.52 32.8497 216.02C31.6997 216.84 30.5296 217.72 29.2196 218.19C22.0296 220.8 14.9395 220.77 8.43954 216.36C-2.32046 209.05 -1.28032 192.26 10.3397 186.18C16.8297 182.78 23.6097 182.81 30.3297 185.79C30.8597 186.02 31.3397 186.36 31.8397 186.67C32.6697 187.19 33.4596 187.9 32.7796 188.88C32.0896 189.87 31.1995 189.34 30.4195 188.74C27.2995 186.34 23.6997 185.69 19.8497 185.74C17.9497 185.76 17.4596 186.48 17.5096 188.28C17.6196 192.77 17.5496 197.27 17.5496 201.77L17.5396 201.75Z" fill="#FAFAFA"/>
<path d="M302.6 181.67C308.48 194.51 314.17 206.94 320.06 219.78C315.59 219.78 311.49 219.78 307.38 219.78C306.25 219.78 306.05 218.78 305.87 218.06C305.23 215.59 303.71 214.94 301.28 215.15C298.64 215.38 295.95 215.31 293.29 215.16C291.7 215.08 290.78 215.59 290.36 217.11C290.23 217.59 289.98 218.03 289.78 218.49C289.37 219.43 288.71 220.14 287.67 219.6C286.59 219.04 287.22 218.16 287.62 217.46C288.24 216.35 289.28 215.44 287.33 214.35C286.26 213.75 286.6 212.29 287.98 212.37C289.9 212.47 290.3 211.35 290.85 210C294.38 201.38 297.96 192.78 301.52 184.17C301.8 183.5 302.1 182.84 302.61 181.67H302.6Z" fill="#FAFAFA"/>
<path d="M91.3097 219.77C87.7397 219.86 84.3597 219.16 81.3097 217.22C80.3697 216.62 79.2796 215.75 79.9796 214.64C80.8096 213.32 81.8296 214.39 82.6896 215C86.3496 217.62 90.3996 218.52 94.7596 217.42C98.3496 216.52 99.0096 214.01 96.4396 211.35C93.9396 208.77 90.8797 206.85 88.1097 204.59C85.0897 202.11 81.9196 199.69 80.9496 195.59C79.8096 190.78 81.8295 186.66 86.4295 184.89C91.2195 183.04 96.0396 183.21 100.72 185.48C101.09 185.66 101.44 185.9 101.77 186.15C102.43 186.65 102.83 187.33 102.36 188.09C101.79 189.02 100.95 188.47 100.41 188.08C98.3095 186.56 95.9695 185.81 93.4195 185.72C91.9295 185.67 90.2396 185.57 89.5196 187.25C88.7796 188.95 90.0695 190.04 91.1595 191.09C94.4095 194.2 98.2097 196.68 101.3 199.97C103.56 202.39 105.45 204.98 105.5 208.48C105.58 214.58 100.7 219.3 93.8297 219.76C92.9997 219.82 92.1697 219.76 91.3297 219.76L91.3097 219.77Z" fill="#FAFAFA"/>
<path d="M413.6 219.77C410.12 219.87 406.81 219.21 403.81 217.37C402.8 216.75 401.499 215.89 402.239 214.68C403.149 213.19 404.2 214.52 405.12 215.15C408.74 217.63 412.729 218.52 416.989 217.44C420.589 216.53 421.279 214.04 418.719 211.38C416.229 208.8 413.159 206.88 410.399 204.61C407.369 202.13 404.199 199.71 403.219 195.62C402.069 190.81 404.079 186.69 408.659 184.9C413.449 183.04 418.269 183.21 422.949 185.46C423.319 185.64 423.669 185.88 423.999 186.12C424.659 186.61 425.079 187.27 424.629 188.05C424.069 189 423.239 188.47 422.689 188.08C420.589 186.57 418.259 185.8 415.699 185.71C414.199 185.66 412.519 185.56 411.779 187.21C411.019 188.9 412.289 190 413.379 191.05C416.619 194.16 420.429 196.64 423.519 199.93C425.789 202.35 427.679 204.93 427.739 208.43C427.829 214.53 422.98 219.26 416.1 219.74C415.27 219.8 414.44 219.74 413.6 219.74V219.77Z" fill="#FAFAFA"/>
<path d="M262.079 249.5C261.159 250.78 260.239 252.06 259.329 253.35C257.836 255.457 256.316 255.43 254.769 253.27C253.949 252.13 253.129 251 251.739 249.94C251.739 252.26 251.749 254.58 251.739 256.9C251.739 257.53 251.889 258.29 250.839 258.32C249.949 258.35 249.699 257.89 249.709 257.09C249.719 252.64 249.709 248.18 250.259 243.54C252.009 246.02 253.759 248.49 255.499 250.97C256.586 252.523 257.663 252.563 258.729 251.09C260.429 248.73 262.129 246.36 263.829 243.99C263.929 243.86 264.049 243.74 264.319 243.45C264.939 245.14 264.599 246.76 264.629 248.32C264.699 251.15 264.659 253.98 264.639 256.81C264.639 257.52 264.839 258.37 263.599 258.33C262.349 258.29 262.659 257.4 262.649 256.73C262.619 254.35 262.639 251.97 262.639 249.59L262.099 249.5H262.079Z" fill="#FAF8F8"/>
<path d="M317.249 250.82C317.249 248.82 317.279 246.82 317.239 244.82C317.219 243.81 317.469 243.25 318.629 243.3C320.539 243.38 322.469 243.21 324.339 243.77C327.649 244.76 329.779 247.89 329.559 251.42C329.349 254.9 327.019 257.57 323.619 258.22C317.949 259.3 317.249 258.74 317.249 253.08C317.249 252.33 317.249 251.58 317.249 250.83V250.82Z" fill="#FAF7F8"/>
<path d="M125.549 258.08C124.009 258.62 123.139 258.21 122.479 256.97C121.859 255.8 121.029 254.74 120.359 253.6C119.749 252.58 118.799 252.78 117.929 252.87C116.769 252.99 117.209 253.98 117.159 254.64C117.089 255.55 117.139 256.47 117.129 257.38C117.129 257.95 116.909 258.31 116.259 258.32C115.589 258.32 115.119 258.15 115.119 257.37C115.119 253.05 115.119 248.73 115.109 244.4C115.109 243.5 115.609 243.28 116.379 243.31C117.709 243.36 119.059 243.26 120.359 243.47C124.219 244.1 125.869 248.27 123.299 251.22C122.299 252.36 122.289 253.01 123.079 254.1C123.949 255.31 124.659 256.62 125.569 258.08H125.549Z" fill="#FAF7F7"/>
<path d="M194.149 251.19C194.149 248.75 194.189 246.75 194.129 244.76C194.099 243.69 194.499 243.28 195.569 243.3C197.899 243.35 200.229 243.3 202.559 243.32C203.209 243.32 203.919 243.21 203.969 244.24C204.019 245.44 203.199 245.31 202.459 245.32C201.299 245.33 200.129 245.32 198.969 245.32C196.009 245.32 195.969 245.43 196.159 248.41C196.229 249.5 196.599 249.87 197.649 249.83C199.059 249.78 200.479 249.85 201.889 249.81C202.709 249.79 203.109 250.05 203.069 250.95C203.029 251.81 202.489 251.82 201.889 251.82C200.889 251.82 199.879 251.94 198.899 251.8C196.729 251.49 195.959 252.24 196.129 254.49C196.239 256.03 196.699 256.52 198.179 256.43C199.749 256.33 201.339 256.43 202.919 256.41C203.699 256.41 204.199 256.64 204.169 257.54C204.129 258.43 203.479 258.3 202.919 258.32C202.589 258.34 202.249 258.34 201.919 258.32C199.439 258.21 196.249 259.34 194.669 257.91C193.039 256.44 194.419 253.19 194.159 251.18L194.149 251.19Z" fill="#FAF8F8"/>
<path d="M299.73 250.86C299.73 245.173 302.576 242.657 308.27 243.31C308.35 243.31 308.44 243.31 308.52 243.31C309.22 243.31 309.57 243.59 309.56 244.35C309.54 245.16 309.07 245.3 308.43 245.3C306.77 245.3 305.09 245.41 303.44 245.28C301.53 245.13 301.75 246.35 301.78 247.52C301.81 248.62 301.39 249.98 303.37 249.82C304.78 249.71 306.2 249.82 307.61 249.8C308.31 249.8 308.67 250.03 308.66 250.81C308.66 251.59 308.29 251.82 307.6 251.81C306.44 251.8 305.27 251.81 304.11 251.81C302.07 251.82 300.86 254 301.86 255.85C302.22 256.51 302.83 256.38 303.39 256.39C305.05 256.41 306.72 256.4 308.38 256.4C309.08 256.4 309.73 256.42 309.75 257.4C309.77 258.47 309 258.3 308.37 258.3C305.96 258.32 303.54 258.27 301.13 258.32C300.01 258.35 299.69 257.87 299.72 256.83C299.77 254.84 299.73 252.84 299.73 250.84V250.86Z" fill="#FAF8F8"/>
<path d="M99.0693 250.84C99.0693 249.59 98.8191 248.28 99.1291 247.11C99.4691 245.81 97.5692 243.5 100.639 243.31C105.599 242.99 108.059 244.35 108.349 247.59C108.589 250.22 106.929 252.38 104.369 252.77C104.119 252.81 103.859 252.85 103.619 252.81C101.499 252.46 100.759 253.39 101.089 255.42C101.179 255.99 101.089 256.58 101.089 257.16C101.089 257.79 100.999 258.3 100.169 258.31C99.2692 258.33 99.0493 257.85 99.0493 257.07C99.0693 254.99 99.0493 252.91 99.0493 250.83L99.0693 250.84Z" fill="#FAF6F7"/>
<path d="M165.77 242.6C166.41 244.08 166.84 245.06 167.26 246.05C168.93 250.03 170.58 254.01 172.26 258.03C170.67 258.74 169.79 258.26 169.45 256.72C169.04 254.88 167.95 254.22 166.05 254.41C164.28 254.59 162.3 253.98 161.84 256.66C161.66 257.72 161.16 258.85 159.33 258.03C161.4 253.07 163.48 248.08 165.77 242.6Z" fill="#FAF7F8"/>
<path d="M142.43 243.58C144.13 242.92 144.91 243.49 145.44 244.94C146.47 247.78 147.65 250.57 149.05 254.07C150.41 250.56 151.49 247.73 152.6 244.91C153.24 243.28 153.27 243.29 155.49 243.54C153.39 248.52 151.3 253.46 148.95 259.02C146.64 253.56 144.57 248.66 142.43 243.58Z" fill="#FAF7F7"/>
<path d="M181.049 251.85C181.049 250.85 180.989 249.85 181.059 248.86C181.229 246.66 181.259 244.65 178.049 245.28C177.339 245.42 177.039 245 177.039 244.26C177.039 243.45 177.469 243.3 178.129 243.3C180.699 243.3 183.269 243.32 185.849 243.3C186.629 243.3 187.099 243.47 187.059 244.4C187.019 245.23 186.529 245.42 185.909 245.29C183.009 244.66 182.919 246.36 183.019 248.5C183.139 251.15 183.079 253.81 183.019 256.46C182.999 257.15 183.519 258.24 182.099 258.31C180.659 258.38 181.079 257.3 181.059 256.58C181.009 255.01 181.039 253.43 181.039 251.85H181.049Z" fill="#FAFAFA"/>
<path d="M286.639 251.92C286.639 250.92 286.589 249.92 286.639 248.92C286.759 246.78 286.949 244.64 283.649 245.3C282.949 245.44 282.619 245.04 282.619 244.29C282.619 243.48 283.049 243.32 283.719 243.33C286.309 243.33 288.889 243.33 291.479 243.33C292.099 243.33 292.609 243.37 292.639 244.22C292.679 245.15 292.199 245.48 291.429 245.31C288.349 244.63 288.569 246.61 288.619 248.61C288.679 251.36 288.639 254.11 288.629 256.87C288.629 257.63 288.739 258.4 287.539 258.34C286.479 258.29 286.639 257.57 286.639 256.94C286.619 255.27 286.639 253.6 286.639 251.94V251.92Z" fill="#FAFAFA"/>
<path d="M222.67 250.57C222.67 248.74 222.65 246.91 222.67 245.08C222.68 244.31 222.37 243.27 223.75 243.32C225.15 243.37 224.68 244.47 224.7 245.17C224.75 248.25 224.79 251.33 224.7 254.4C224.66 255.89 225.08 256.54 226.65 256.41C228.05 256.3 229.48 256.39 230.89 256.39C231.56 256.39 232.26 256.33 232.32 257.31C232.38 258.32 231.7 258.31 231.01 258.31C228.68 258.31 226.35 258.27 224.02 258.33C222.86 258.36 222.63 257.78 222.65 256.8C222.69 254.72 222.66 252.64 222.66 250.56L222.67 250.57Z" fill="#F9F4F5"/>
<path d="M241.74 250.97C241.74 252.97 241.74 254.97 241.74 256.97C241.74 257.64 241.77 258.32 240.76 258.33C239.81 258.33 239.68 257.79 239.68 257.04C239.68 252.87 239.69 248.71 239.68 244.54C239.68 243.74 239.92 243.29 240.82 243.31C241.86 243.34 241.74 244.08 241.74 244.72C241.76 246.8 241.74 248.89 241.74 250.97Z" fill="#F9F1F3"/>
<path d="M275.259 250.76C275.259 252.84 275.259 254.93 275.259 257.01C275.259 257.71 275.239 258.34 274.239 258.33C273.269 258.32 273.199 257.72 273.199 257C273.199 252.83 273.209 248.67 273.199 244.5C273.199 243.67 273.509 243.28 274.369 243.31C275.229 243.34 275.249 243.91 275.249 244.51C275.249 246.59 275.249 248.68 275.249 250.76H275.259Z" fill="#F9F1F3"/>
<path d="M135.15 251.07C135.15 252.99 135.15 254.9 135.15 256.82C135.15 257.55 135.28 258.38 134.07 258.33C133.09 258.28 133.09 257.63 133.09 256.95C133.09 252.87 133.09 248.78 133.09 244.7C133.09 244.02 133.09 243.36 134.07 243.32C135.27 243.26 135.14 244.09 135.15 244.83C135.16 246.91 135.15 249 135.15 251.08V251.07Z" fill="#F9F1F3"/>
<path d="M217.779 142.12C182.039 142.12 152.669 115.47 149.429 81.27C145.379 38.48 180.469 3.22992 223.359 7.19992C238.639 8.60992 251.829 14.9699 263.109 25.3499C264.889 26.9799 264.309 28.89 263.869 30.68C262.979 34.28 260.439 36.7299 257.469 38.6999C250.459 43.3499 242.609 44.7999 234.349 44.4499C225.739 44.0899 217.389 41.8599 208.859 40.9399C202.079 40.2099 195.369 40.43 188.829 42.56C175.679 46.84 167.709 55.54 166.319 69.56C164.809 84.7 169.439 97.01 182.489 103.8C188.209 106.78 194.319 108.16 200.749 108.35C209.079 108.6 217.139 106.7 225.289 105.46C233.689 104.18 242.039 103.77 250.239 106.67C253.729 107.9 256.989 109.53 259.769 112.01C261.469 113.53 262.849 115.29 263.649 117.45C264.849 120.68 264.439 122.46 261.919 124.7C248.969 136.21 233.749 141.81 217.799 142.12H217.779Z" fill="#E51572"/>
<path d="M273.429 38.21C287.119 58.2 288.379 88.47 273.659 110.5C272.859 110.33 272.909 109.53 272.669 109.02C267.639 98.15 259.14 92.2599 247.23 91.1699C238.38 90.3599 229.83 92.28 221.25 93.95C213.73 95.42 206.209 96.99 198.459 95.72C190.439 94.4 184.37 90.55 181.86 82.49C179.18 73.9 180.059 65.71 186.389 58.91C190.869 54.1 197.04 52.98 203.34 52.79C210.91 52.56 218.22 54.42 225.56 55.86C232.2 57.17 238.849 58.28 245.639 57.91C258.909 57.19 268.209 50.75 273.419 38.2L273.429 38.21Z" fill="#E51572"/>
<path d="M228.09 201.55C228.09 196.89 228.15 192.23 228.06 187.57C228.03 186 228.52 185.48 230.05 185.71C231.44 185.92 232.89 185.86 234.25 186.17C236.97 186.79 238.59 188.88 238.43 191.31C238.27 193.87 236.29 195.74 233.61 196.24C232.56 196.44 230.51 195.42 230.59 197.18C230.68 199.02 232.75 197.94 233.93 198.17C235.31 198.45 236.76 198.44 238.11 198.81C241.85 199.83 244.25 202.65 244.65 206.16C245.12 210.27 243.45 213.28 239.96 215.31C236.67 217.23 233.02 217.39 229.33 217.38C227.83 217.38 228.09 216.39 228.09 215.52C228.09 210.86 228.09 206.2 228.09 201.54V201.55Z" fill="#E51572"/>
<path d="M377.209 201.79C377.209 197.21 377.319 192.63 377.159 188.05C377.089 185.98 377.779 185.63 379.689 185.72C389.349 186.17 395.349 192.18 395.309 201.57C395.269 210.62 388.339 217.58 379.209 217.89C377.449 217.95 377.159 217.31 377.189 215.78C377.269 211.12 377.219 206.46 377.219 201.79H377.209Z" fill="#E51572"/>
<path d="M54.3696 201.94C54.3696 197.28 54.4296 192.61 54.3396 187.95C54.2996 186.28 54.9795 185.73 56.5095 185.71C62.7495 185.65 67.8094 187.97 70.9194 193.46C74.1294 199.12 74.0396 205.04 70.5996 210.55C67.2796 215.86 62.1394 218.06 55.9094 217.85C54.4594 217.8 54.3596 217.06 54.3596 215.94C54.3896 211.28 54.3696 206.61 54.3696 201.95V201.94Z" fill="#E51572"/>
<path d="M175.469 201.76C175.469 197.26 175.589 192.76 175.419 188.27C175.339 186.17 176.239 185.72 178.039 185.68C187.399 185.48 194.389 192.74 194.149 202.48C193.929 211.46 186.259 218.43 177.319 217.89C175.749 217.8 175.419 217.19 175.439 215.75C175.519 211.09 175.469 206.42 175.469 201.76Z" fill="#E51572"/>
<path d="M297.419 199.55C299.629 204.42 301.57 208.71 303.57 213.14C300.13 213.14 296.99 213.18 293.84 213.12C292.94 213.1 291.98 213.01 292.6 211.53C294.21 207.7 295.709 203.82 297.409 199.55H297.419Z" fill="#E51672"/>
<path d="M319.289 250.78C319.289 250.03 319.289 249.29 319.289 248.54C319.289 245.17 320.029 244.61 323.389 245.49C326.529 246.31 328.179 249.48 327.169 252.77C326.379 255.34 322.509 257.27 320.039 256.39C319.299 256.12 319.309 255.59 319.299 255.01C319.289 253.6 319.299 252.19 319.299 250.78H319.289Z" fill="#E51772"/>
<path d="M118.949 245.3C121.129 245.32 122.24 246.27 122.3 248.15C122.36 249.93 120.81 251.09 118.62 250.88C115.67 250.6 117.519 248.33 117.159 247.02C116.699 245.3 117.949 245.17 118.939 245.3H118.949Z" fill="#E51B73"/>
<path d="M101.149 248.18C101.049 246.51 100.759 245.07 103.099 245.27C104.949 245.43 106.159 246.08 106.289 248C106.419 249.81 104.939 250.88 102.759 250.93C100.149 250.99 101.469 249.03 101.149 248.18Z" fill="#E51B74"/>
<path d="M165.74 247.34C166.33 248.83 166.69 249.93 167.2 250.95C167.96 252.5 167.27 252.68 165.88 252.76C163.96 252.87 163.26 252.45 164.32 250.54C164.82 249.63 165.17 248.64 165.74 247.33V247.34Z" fill="#E62B79"/>
</svg>
