<svg width="227" height="191" viewBox="0 0 227 191" fill="none" xmlns="http://www.w3.org/2000/svg">
<path d="M119.69 10.1901C118.3 8.26011 114.59 9.58013 114.42 11.8301C114.35 12.5301 114.65 13.2202 115.14 13.7702C117.14 15.9602 121.3 16.3102 122.87 13.4902C126.11 7.51016 118.41 1.23014 112.72 3.47014C109.97 4.41014 107.67 6.87017 107.84 9.88017C107.93 13.0102 109.91 15.7701 111.87 18.2201C113.85 20.6301 116.6 23.8502 118.5 26.2702C125.59 34.5102 128.6 46.9002 123.97 57.0502C120.59 64.8702 110.73 67.0201 104.48 61.2001C100.88 57.9601 99.5602 52.1702 102.08 47.9002C103.66 45.3202 106.89 43.8002 109.88 44.6202C113.47 45.7002 116.91 49.7201 115.16 53.5701C114.03 56.4201 110.22 57.8601 108.02 55.3301C107.37 54.6401 106.94 53.8302 106.6 53.0002C106.53 52.8402 106.61 52.6601 106.77 52.5901C106.93 52.5301 107.1 52.5902 107.17 52.7502C107.84 54.1402 109 55.6302 110.62 55.6602C113.9 55.6402 115.37 51.2002 113.25 48.8702C111.35 46.4802 107.92 45.2701 105.3 47.3401C101.53 50.2701 102.74 56.5802 106.14 59.3602C109.62 62.4402 115.2 62.6802 118.65 59.5102C122.17 56.2502 123.12 50.9602 123.08 46.3102C122.94 41.4202 121.63 36.4402 118.99 32.3102C117.14 29.4602 114.95 26.8302 112.79 24.1602C110.78 21.6502 107.87 18.4802 106.43 15.5502C104.55 12.1602 104.22 7.29011 106.96 4.19011C112.33 -2.47989 123.92 0.400169 125.49 8.75017C126.65 14.2302 121.74 19.0601 116.43 16.3201C114.72 15.4901 112.99 13.7902 113.32 11.6802C113.7 8.68022 118.45 7.25021 120.1 9.92021C120.25 10.2102 119.84 10.4302 119.67 10.1802L119.69 10.1901Z" fill="#0A0908"/>
<path d="M187.311 59.6701C187.131 64.2901 186.421 68.8802 185.221 73.3102C176.171 105.25 145.121 122.63 113.791 123.01C113.691 123.01 113.591 123.01 113.491 123.01C113.391 123.01 113.291 123.01 113.191 123.01C81.8505 122.64 50.8006 105.25 41.7606 73.3102C40.5606 68.8802 39.8505 64.2901 39.6705 59.6701C39.5305 56.8901 41.6906 54.5201 44.4806 54.4201C47.2506 54.3101 51.9506 67.1501 52.0606 69.9201L113.201 70.1301H113.791L174.931 69.9201C175.041 67.1601 179.741 54.3201 182.511 54.4201C185.291 54.5301 187.461 56.9001 187.321 59.6701H187.311Z" fill="#E3170A"/>
<path d="M4.48999 159.52C6.46165 159.52 8.06006 157.922 8.06006 155.95C8.06006 153.979 6.46165 152.38 4.48999 152.38C2.51833 152.38 0.919922 153.979 0.919922 155.95C0.919922 157.922 2.51833 159.52 4.48999 159.52Z" fill="#0A0908"/>
<path d="M222.48 159.52C224.452 159.52 226.05 157.922 226.05 155.95C226.05 153.979 224.452 152.38 222.48 152.38C220.509 152.38 218.91 153.979 218.91 155.95C218.91 157.922 220.509 159.52 222.48 159.52Z" fill="#0A0908"/>
<path d="M30.4702 145.41C29.1302 144.76 27.5503 144.51 25.8103 144.51C21.5203 144.51 17.1104 147.93 17.1104 152.93C17.1104 157.93 21.5203 161.35 25.8103 161.35C28.6103 161.35 31.0003 160.08 32.5503 158.21L34.7502 160.42C32.5502 162.87 29.3103 164.46 25.8003 164.46C19.4603 164.46 13.9902 159.3 13.9902 152.93C13.9902 146.56 19.4603 141.4 25.8003 141.4C28.5303 141.4 31.0803 142.08 33.5703 143.64V147.4H30.8403L30.4702 145.41Z" fill="black"/>
<path d="M41.0503 157.84C41.0503 159.55 42.1102 161.5 44.9702 161.5C47.2102 161.5 49.0402 160.32 51.2502 158.49V146.96H54.3604V164.36H51.8704L51.3103 161.53C49.2903 163.08 47.0502 164.45 44.9702 164.45C40.3702 164.45 37.9502 161.75 37.9502 157.83V146.96H41.0603V157.83L41.0503 157.84Z" fill="black"/>
<path d="M57.4502 164.36V146.96H59.9402L60.4102 149.51C62.1802 148.08 64.4802 146.87 66.4702 146.87C68.9602 146.87 70.5102 147.52 71.1902 147.93V151.91H68.6104L68.3901 150.17C68.1701 150.02 67.5202 149.77 66.4602 149.77C64.2902 149.77 62.5503 150.92 60.5603 152.6V164.37H57.4502V164.36Z" fill="black"/>
<path d="M74.2803 164.36V146.96H76.7703L77.2402 149.51C79.0102 148.08 81.3103 146.87 83.3003 146.87C85.7903 146.87 87.3403 147.52 88.0203 147.93V151.91H85.4402L85.2202 150.17C85.0002 150.02 84.3503 149.77 83.2903 149.77C81.1203 149.77 79.3801 150.92 77.3901 152.6V164.37H74.2803V164.36Z" fill="black"/>
<path d="M90.2705 146.97H93.3804L97.6704 161.26H99.6304L103.92 146.97H107.031L100.66 168.31C100.13 170.11 98.3006 171.11 96.6206 171.11L94.7905 170.8V168H96.6206C97.1206 168 97.8004 167.6 97.9604 166.82L98.6704 164.37H95.4705L90.2805 146.97H90.2705Z" fill="black"/>
<path d="M130.091 164.36H126.98V144.32H118.9V141.52H138.16V144.32H130.081V164.36H130.091Z" fill="black"/>
<path d="M143.44 140.78C144.53 140.78 145.43 141.59 145.43 142.58C145.43 143.57 144.53 144.35 143.44 144.35C142.35 144.35 141.48 143.57 141.48 142.58C141.48 141.59 142.35 140.78 143.44 140.78ZM145 164.36H141.89V146.96H145V164.36Z" fill="black"/>
<path d="M148.721 164.36V146.96H151.211L151.611 149.13C153.321 147.86 155.091 146.86 156.891 146.86C159.411 146.86 161.331 147.79 162.391 149.66C164.291 148.14 166.271 146.86 168.321 146.86C172.201 146.86 174.691 149.03 174.691 153.48V164.35H171.581V153.29C171.581 151.46 170.711 149.81 168.541 149.81C166.551 149.81 165.001 150.71 163.171 152.14C163.231 152.58 163.261 153.01 163.261 153.48V164.35H160.151V153.29C160.151 151.46 159.281 149.81 157.111 149.81C155.151 149.81 153.601 150.68 151.831 152.08V164.35H148.721V164.36Z" fill="black"/>
<path d="M191.21 159.27L193.11 161.66C192.74 162.13 190.66 164.46 186.18 164.46C181.33 164.46 177.45 160.61 177.45 155.64C177.45 150.67 181.27 146.88 186.12 146.88C190.97 146.88 194.54 150.67 194.54 155.64C194.54 156.01 194.51 156.54 194.48 156.76H180.66C181.22 159.43 183.46 161.45 186.19 161.45C189.17 161.45 190.69 159.9 191.22 159.28L191.21 159.27ZM180.77 153.86H191.15C190.78 151.78 188.66 149.98 186.12 149.98C183.58 149.98 181.4 151.63 180.78 153.86H180.77Z" fill="black"/>
<path d="M196.67 161.72L198.32 159.51C198.88 159.91 201.24 161.65 204.91 161.65C207.36 161.65 209.79 160.87 209.79 158.98C209.79 157.83 209.2 156.9 204.91 156.9C199.44 156.9 197.33 155.07 197.33 151.9C197.33 149.1 200.53 146.87 204.91 146.87C208.86 146.87 211.74 148.61 211.84 148.67V151.75H209.45L208.98 150.51C208.05 150.01 207.02 149.7 204.91 149.7C202.14 149.7 200.5 150.69 200.5 151.91C200.5 153 201.37 153.87 204.91 153.87C209.94 153.87 212.99 155.21 212.99 159C212.99 162.26 209.85 164.47 204.91 164.47C199.97 164.47 196.83 161.86 196.68 161.74L196.67 161.72Z" fill="black"/>
<path d="M25.2903 190.3V190.44H21.3103V190.3L21.9502 190.05C22.2502 189.94 22.3903 189.61 22.2903 189.3L21.1501 186.34H17.5503L16.4001 189.34C16.2901 189.64 16.4402 189.98 16.7402 190.09L17.2903 190.3V190.44H14.3604V190.3L14.5002 190.25C15.0302 190.04 15.4602 189.61 15.6702 189.08L19.2903 179.69H20.1204L23.7102 188.99C23.9202 189.52 24.3501 189.95 24.8801 190.16L25.2903 190.3ZM20.8704 185.58L19.3604 181.69L17.8503 185.58H20.8704Z" fill="black"/>
<path d="M35.2197 181.92V182.03L34.9897 182.12C34.6397 182.26 34.4097 182.6 34.4097 182.97V187.92C34.4097 189.48 33.1298 190.76 31.5698 190.76H30.7498C29.1898 190.76 27.9097 189.48 27.9097 187.92V182.97C27.9097 182.6 27.6798 182.26 27.3198 182.12L27.0898 182.03V181.92H29.9297V182.03L29.6997 182.12C29.3397 182.26 29.1099 182.6 29.1099 182.97V187.92C29.1099 189.14 29.6596 190.14 30.8896 190.14H31.5498C32.7698 190.14 33.7698 189.15 33.7698 187.92V182.97C33.7698 182.6 33.5397 182.26 33.1797 182.12L32.9497 182.03V181.92H35.2197Z" fill="black"/>
<path d="M43.96 183.57L43.8501 183.59L43.1899 182.84C43.0099 182.65 42.76 182.54 42.5 182.54H40.6201V189.41C40.6201 189.78 40.85 190.12 41.21 190.26L41.4399 190.35V190.46H38.6001V190.35L38.8301 190.26C39.1901 190.12 39.4199 189.78 39.4199 189.41V182.54H37.54C37.27 182.54 37.0301 182.65 36.8501 182.84L36.1899 183.59L36.0801 183.57L36.3101 181.92H43.73L43.96 183.57Z" fill="black"/>
<path d="M53.5098 182.97V189.42C53.5098 189.79 53.7399 190.13 54.0999 190.27L54.3298 190.36V190.47H51.4897V190.36L51.7197 190.27C52.0697 190.13 52.3098 189.79 52.3098 189.42V186.37H47.7798V189.42C47.7798 189.79 48.0099 190.13 48.3699 190.27L48.5999 190.36V190.47H45.7598V190.36L45.9897 190.27C46.3397 190.13 46.5798 189.79 46.5798 189.42V182.97C46.5798 182.6 46.3497 182.26 45.9897 182.12L45.7598 182.03V181.92H48.5999V182.03L48.3699 182.12C48.0199 182.26 47.7798 182.6 47.7798 182.97V185.76H52.3098V182.97C52.3098 182.6 52.0797 182.26 51.7197 182.12L51.4897 182.03V181.92H54.3298V182.03L54.0999 182.12C53.7499 182.26 53.5098 182.6 53.5098 182.97Z" fill="black"/>
<path d="M62.4604 188.81L62.2104 190.46H56.1006V190.35L56.3306 190.26C56.6806 190.12 56.9204 189.78 56.9204 189.41V182.96C56.9204 182.59 56.6906 182.25 56.3306 182.11L56.1006 182.02V181.91H61.7104L61.9404 183.56L61.8306 183.58L61.1704 182.83C60.9904 182.64 60.7405 182.53 60.4805 182.53H58.1206V185.64H59.4004C59.7704 185.64 60.1105 185.41 60.2505 185.05V185.03H60.3606V186.84H60.2505V186.82C60.1105 186.47 59.7704 186.23 59.4004 186.23H58.1206V189.8H61.0005C61.2705 189.8 61.5204 189.69 61.6904 189.5L62.3506 188.75L62.4604 188.79V188.81Z" fill="black"/>
<path d="M71.6897 182.97V189.42C71.6897 189.79 71.9198 190.13 72.2798 190.27L72.5098 190.36V190.47H71.0898L65.6597 182.92V189.44C65.6597 189.81 65.8898 190.15 66.2498 190.29L66.4797 190.38V190.49H64.2598V190.38L64.4897 190.29C64.8497 190.15 65.0798 189.81 65.0798 189.44V182.99C65.0798 182.62 64.8497 182.28 64.4897 182.14L64.2598 182.05V181.94H66.4998L71.1199 188.35V182.97C71.1199 182.6 70.8898 182.26 70.5298 182.12L70.2998 182.03V181.92H72.5198V182.03L72.2898 182.12C71.9398 182.26 71.6997 182.6 71.6997 182.97H71.6897Z" fill="black"/>
<path d="M82.1699 183.57L82.0601 183.59L81.3999 182.84C81.2199 182.65 80.97 182.54 80.71 182.54H78.8301V189.41C78.8301 189.78 79.0599 190.12 79.4199 190.26L79.6499 190.35V190.46H76.8101V190.35L77.04 190.26C77.39 190.12 77.6299 189.78 77.6299 189.41V182.54H75.75C75.48 182.54 75.2401 182.65 75.0601 182.84L74.3999 183.59L74.29 183.57L74.52 181.92H81.9399L82.1699 183.57Z" fill="black"/>
<path d="M85.9702 182.97V189.42C85.9702 189.79 86.2003 190.13 86.5603 190.27L86.7903 190.36V190.47H83.9502V190.36L84.1802 190.27C84.5302 190.13 84.7703 189.79 84.7703 189.42V182.97C84.7703 182.6 84.5402 182.26 84.1802 182.12L83.9502 182.03V181.92H86.7903V182.03L86.5603 182.12C86.2103 182.26 85.9702 182.6 85.9702 182.97Z" fill="black"/>
<path d="M93.1404 182.56C91.1304 182.56 89.8005 184.19 89.8005 186.2C89.8005 188.21 91.1304 189.84 93.1404 189.84C93.9904 189.84 94.8305 189.54 95.4805 188.99L95.8706 189.45C95.1106 190.09 94.1306 190.44 93.1206 190.44C90.3206 190.44 88.5605 188.52 88.5605 186.18C88.5605 183.84 90.3206 181.92 93.1206 181.92C93.9506 181.92 94.7704 182.17 95.4604 182.63L95.6604 182.22L95.7705 182.2L96.0005 183.85L95.8904 183.87C95.8904 183.87 95.0406 182.54 93.1206 182.54L93.1404 182.56Z" fill="black"/>
<path d="M105.06 181V189.15C105.06 189.63 105.34 190.06 105.79 190.23L106.08 190.34V190.48H102.49V190.34L102.77 190.23C103.21 190.05 103.5 189.63 103.5 189.15V181C103.5 180.52 103.22 180.09 102.77 179.92L102.49 179.81V179.67H106.08V179.81L105.79 179.92C105.35 180.1 105.06 180.52 105.06 181Z" fill="black"/>
<path d="M115.31 182.97V189.42C115.31 189.79 115.54 190.13 115.89 190.27L116.12 190.36V190.47H114.7L109.27 182.92V189.44C109.27 189.81 109.5 190.15 109.86 190.29L110.09 190.38V190.49H107.87V190.38L108.1 190.29C108.45 190.15 108.69 189.81 108.69 189.44V182.99C108.69 182.62 108.46 182.28 108.1 182.14L107.87 182.05V181.94H110.11L114.73 188.35V182.97C114.73 182.6 114.5 182.26 114.14 182.12L113.91 182.03V181.92H116.13V182.03L115.9 182.12C115.55 182.26 115.32 182.6 115.32 182.97H115.31Z" fill="black"/>
<path d="M125.87 186.18C125.87 188.58 124.65 190.46 121.7 190.46H117.88V190.35L118.11 190.26C118.46 190.12 118.7 189.78 118.7 189.41V182.96C118.7 182.59 118.47 182.25 118.11 182.11L117.88 182.02V181.91H121.7C124.65 181.91 125.87 183.79 125.87 186.17V186.18ZM124.65 186.18C124.65 183.85 123.66 182.52 121.7 182.52H119.92V189.82H121.7C123.65 189.82 124.65 188.49 124.65 186.18Z" fill="black"/>
<path d="M129.23 182.97V189.42C129.23 189.79 129.46 190.13 129.82 190.27L130.05 190.36V190.47H127.21V190.36L127.44 190.27C127.79 190.13 128.03 189.79 128.03 189.42V182.97C128.03 182.6 127.8 182.26 127.44 182.12L127.21 182.03V181.92H130.05V182.03L129.82 182.12C129.47 182.26 129.23 182.6 129.23 182.97Z" fill="black"/>
<path d="M140.48 190.3V190.41H137.34V190.3L137.85 190.1C138.08 190.01 138.2 189.75 138.12 189.51L137.22 187.17H134.36L133.44 189.55C133.35 189.78 133.48 190.05 133.71 190.14L134.15 190.32V190.43H131.84V190.32L131.95 190.28C132.38 190.12 132.71 189.78 132.87 189.36L135.75 181.92H136.41L139.25 189.29C139.41 189.72 139.75 190.05 140.17 190.21L140.49 190.3H140.48ZM136.97 186.55L135.78 183.48L134.59 186.55H136.97Z" fill="black"/>
<path d="M149.27 182.97V189.42C149.27 189.79 149.5 190.13 149.86 190.27L150.09 190.36V190.47H148.67L143.24 182.92V189.44C143.24 189.81 143.47 190.15 143.83 190.29L144.06 190.38V190.49H141.84V190.38L142.07 190.29C142.43 190.15 142.66 189.81 142.66 189.44V182.99C142.66 182.62 142.43 182.28 142.07 182.14L141.84 182.05V181.94H144.08L148.7 188.35V182.97C148.7 182.6 148.47 182.26 148.11 182.12L147.88 182.03V181.92H150.1V182.03L149.87 182.12C149.52 182.26 149.28 182.6 149.28 182.97H149.27Z" fill="black"/>
<path d="M162.35 180.46C159.81 180.46 158.14 182.52 158.14 185.06C158.14 187.6 159.81 189.66 162.35 189.66C163.43 189.66 164.48 189.27 165.31 188.58L165.81 189.17C164.83 189.99 163.61 190.43 162.35 190.43C158.8 190.43 156.58 188.01 156.58 185.05C156.58 182.09 158.8 179.67 162.35 179.67C163.4 179.67 164.43 179.99 165.3 180.56L165.55 180.05L165.69 180.03L165.99 182.13L165.85 182.15C165.85 182.15 164.77 180.46 162.34 180.46L162.36 180.48L162.35 180.46Z" fill="black"/>
<path d="M175.89 181.92V182.03L175.66 182.12C175.3 182.26 175.07 182.6 175.07 182.97V187.92C175.07 189.48 173.79 190.76 172.23 190.76H171.41C169.85 190.76 168.57 189.48 168.57 187.92V182.97C168.57 182.6 168.34 182.26 167.98 182.12L167.75 182.03V181.92H170.59V182.03L170.36 182.12C170 182.26 169.77 182.6 169.77 182.97V187.92C169.77 189.14 170.32 190.14 171.55 190.14H172.21C173.43 190.14 174.43 189.15 174.43 187.92V182.97C174.43 182.6 174.2 182.26 173.84 182.12L173.61 182.03V181.92H175.88H175.89Z" fill="black"/>
<path d="M184.521 190.28V190.39H182.531C182.531 190.39 182.33 189.95 181.71 188.58C181.2 187.43 180.8 186.36 180.22 186.36H179.21V189.36C179.21 189.73 179.441 190.07 179.801 190.21L180.031 190.3V190.41H177.19V190.3L177.42 190.21C177.77 190.07 178.01 189.73 178.01 189.36V182.91C178.01 182.54 177.78 182.2 177.42 182.06L177.19 181.97V181.86H180.39C182.79 181.86 183.341 182.87 183.341 184.12C183.341 185.06 183.021 185.88 181.801 186.22C182.241 186.73 182.561 187.44 182.861 188.1C183.071 188.6 183.27 189.04 183.43 189.4C183.61 189.79 183.931 190.09 184.321 190.25L184.531 190.29L184.521 190.28ZM181.091 185.65C181.621 185.49 182.081 185.08 182.081 184.12C182.081 182.7 181.111 182.49 180.361 182.49H179.21V185.74H180.361C180.591 185.74 180.861 185.72 181.111 185.65H181.091Z" fill="black"/>
<path d="M193.21 190.28V190.39H191.22C191.22 190.39 191.03 189.95 190.4 188.58C189.89 187.43 189.5 186.36 188.91 186.36H187.9V189.36C187.9 189.73 188.13 190.07 188.49 190.21L188.72 190.3V190.41H185.88V190.3L186.11 190.21C186.47 190.07 186.7 189.73 186.7 189.36V182.91C186.7 182.54 186.47 182.2 186.11 182.06L185.88 181.97V181.86H189.08C191.48 181.86 192.03 182.87 192.03 184.12C192.03 185.06 191.71 185.88 190.48 186.22C190.92 186.73 191.24 187.44 191.55 188.1C191.76 188.6 191.96 189.04 192.12 189.4C192.3 189.79 192.62 190.09 193.01 190.25L193.22 190.29L193.21 190.28ZM189.78 185.65C190.31 185.49 190.77 185.08 190.77 184.12C190.77 182.7 189.79 182.49 189.05 182.49H187.9V185.74H189.05C189.28 185.74 189.55 185.72 189.8 185.65H189.78Z" fill="black"/>
<path d="M196.56 182.97V189.42C196.56 189.79 196.79 190.13 197.15 190.27L197.38 190.36V190.47H194.54V190.36L194.77 190.27C195.13 190.13 195.36 189.79 195.36 189.42V182.97C195.36 182.6 195.13 182.26 194.77 182.12L194.54 182.03V181.92H197.38V182.03L197.15 182.12C196.79 182.26 196.56 182.6 196.56 182.97Z" fill="black"/>
<path d="M205.51 188.81L205.26 190.46H199.15V190.35L199.38 190.26C199.74 190.12 199.97 189.78 199.97 189.41V182.96C199.97 182.59 199.74 182.25 199.38 182.11L199.15 182.02V181.91H204.76L204.99 183.56L204.88 183.58L204.22 182.83C204.04 182.64 203.791 182.53 203.531 182.53H201.17V185.64H202.45C202.82 185.64 203.161 185.41 203.301 185.05V185.03H203.41V186.84H203.301V186.82C203.161 186.47 202.82 186.23 202.45 186.23H201.17V189.8H204.051C204.321 189.8 204.56 189.69 204.74 189.5L205.4 188.75L205.51 188.79V188.81Z" fill="black"/>
<path d="M210.45 185.42C211.52 186.02 212.63 186.47 212.63 188.22C212.63 189.53 211.26 190.44 209.75 190.44C209.15 190.44 208.38 190.33 207.64 189.61L207.43 189.93H207.32V188.26H207.43C207.43 188.26 208.1 189.82 209.76 189.82C210.74 189.82 211.41 189.32 211.41 188.2C211.41 187.54 210.77 186.98 209.83 186.44C208.8 185.85 207.66 185.43 207.66 184.06C207.66 182.69 208.74 181.89 210.25 181.89C210.82 181.89 211.44 182.07 211.95 182.37L212.11 182.03L212.22 182.01L212.45 183.66L212.34 183.68C212.34 183.68 211.79 182.51 210.23 182.51C209.56 182.51 208.56 182.83 208.56 183.65C208.56 184.52 209.5 184.87 210.42 185.41H210.44L210.45 185.42Z" fill="black"/>
</svg>
