<svg width="255" height="255" viewBox="0 0 255 255" fill="none" xmlns="http://www.w3.org/2000/svg">
<path d="M118.87 0.610107H119.62C120.37 1.02011 121.17 0.700049 121.95 0.800049C122.93 0.690049 123.94 1.03011 124.91 0.610107H129.82C130.43 1.01011 131.11 0.710049 131.75 0.800049C132.49 0.700049 133.26 1.01011 133.97 0.610107H135.86C139.52 1.04011 143.21 1.02009 146.87 1.59009C157.62 3.24009 167.97 6.23006 177.94 10.5601C189.5 15.5701 200.05 22.2001 209.66 30.3401C221.54 40.4001 231.25 52.2401 238.83 65.8201C246.05 78.7401 250.7 92.5499 253.12 107.13C253.84 111.48 254.15 115.85 254.17 120.25C254.27 121 253.96 121.79 254.36 122.52V122.9C253.94 123.8 254.27 124.76 254.17 125.69C254.17 126.88 254.17 128.06 254.17 129.25C254.17 130 254.17 130.75 254.17 131.51C254.17 132.24 254.17 132.98 254.17 133.71C254.3 147.09 251.17 159.85 246.6 172.3C242.55 183.33 236.97 193.56 229.91 202.97C229.41 203.63 229.09 205.01 227.68 204.2C227.29 203.36 227.38 202.47 227.38 201.6C227.37 196.95 227.38 192.29 227.38 187.64C227.38 185.11 227.27 185 224.7 185C209.35 185 194.01 185 178.66 185C174.62 185 174.55 184.93 174.55 180.9C174.55 175.68 174.54 170.46 174.55 165.24C174.56 162.29 174.85 161.99 177.8 161.99C195.54 161.98 213.27 161.99 231.01 161.99C231.64 161.99 232.27 161.95 232.9 161.99C234.31 162.08 234.95 161.53 234.95 160.04C234.93 151.05 234.93 142.05 234.95 133.06C234.95 131.63 234.41 130.95 232.95 131.04C232.39 131.08 231.82 131.04 231.25 131.04C212.88 131.04 194.52 131.04 176.15 131.04C175.46 131.04 174.77 131.04 174.07 131.04C171.32 130.98 170.83 130.48 170.78 127.66C170.77 126.91 170.78 126.15 170.78 125.4C170.78 88.9799 170.78 52.5599 170.78 16.1399C170.78 13.7399 169.557 12.5367 167.11 12.53C157.74 12.53 148.37 12.57 138.99 12.5C137.05 12.48 135.87 13.1601 134.9 14.8301C126.18 29.8401 117.19 44.6901 108.32 59.6101C105.14 64.9601 102.06 70.3699 98.7903 75.6799C98.4303 76.2699 98.0902 76.87 97.7102 77.45C96.1802 79.79 95.2803 79.7901 93.8103 77.3701C84.7803 62.5501 75.6804 47.76 66.6204 32.96C64.5504 29.58 62.5102 26.1901 60.4102 22.8201C59.9802 22.1301 59.5202 21.4401 59.4502 20.5901C59.5402 19.6401 60.3102 19.2601 60.9902 18.8301C76.7002 9.20008 93.6902 3.27007 111.98 1.07007C114.26 0.800068 116.59 0.959893 118.88 0.639893L118.87 0.610107Z" fill="#F3AC21"/>
<path d="M129.07 254.29C129.07 254.39 129.07 254.5 129.07 254.6H125.3C125.3 254.49 125.3 254.39 125.3 254.28C126.57 253.39 127.83 253.38 129.09 254.28L129.07 254.29Z" fill="#FDF4E3"/>
<path d="M124.91 0.610107C123.97 1.34011 122.88 0.849971 121.87 0.969971C121.76 0.879971 121.73 0.79998 121.77 0.72998C121.81 0.65998 121.85 0.620117 121.89 0.620117H124.91V0.610107Z" fill="#F5BA47"/>
<path d="M121.89 0.610107C121.89 0.730107 121.89 0.849971 121.87 0.969971C121.12 0.839971 120.28 1.36011 119.63 0.610107H121.89Z" fill="#F8CF7F"/>
<path d="M133.96 0.610107C133.31 1.34011 132.46 0.839971 131.71 0.969971C131.58 0.889971 131.53 0.80998 131.57 0.72998C131.61 0.64998 131.65 0.600098 131.69 0.600098H133.95L133.96 0.610107Z" fill="#F7C461"/>
<path d="M131.7 0.610107C131.7 0.730107 131.7 0.849971 131.71 0.969971C131.07 0.899971 130.351 1.24011 129.811 0.610107H131.7Z" fill="#F4B73F"/>
<path d="M19.2097 61.4099C22.5197 55.4599 26.6398 50.1 31.0498 44.96C39.3198 35.32 48.7598 27.0301 59.5698 20.3201C71.5698 39.9201 83.5698 59.5201 95.5598 79.1001C96.4098 78.6401 96.7797 77.8899 97.1797 77.1899C103.01 67.1299 109.01 57.1599 114.94 47.1699C120.91 37.1199 126.9 27.0901 132.93 17.0701C133.76 15.7001 134.62 14.3399 135.39 12.9399C135.81 12.1899 136.33 11.9299 137.18 11.9399C148 11.9699 158.82 11.9899 169.63 11.9199C171.18 11.9199 171.17 12.67 171.17 13.77C171.18 21.95 171.23 30.12 171.25 38.3C171.31 68.24 171.37 98.1701 171.37 128.11C171.37 129.95 171.88 130.39 173.68 130.38C193.55 130.32 213.43 130.36 233.3 130.3C234.98 130.3 235.51 130.67 235.49 132.45C235.39 141.82 235.39 151.19 235.49 160.56C235.51 162.32 234.95 162.58 233.38 162.57C214.76 162.52 196.15 162.54 177.53 162.54C175.896 162.54 175.08 163.387 175.08 165.08C175.08 170.93 175.13 176.78 175.04 182.63C175.02 184.08 175.46 184.39 176.84 184.38C193 184.33 209.17 184.35 225.33 184.35C227.97 184.35 227.96 184.35 227.97 187.08C227.99 192.86 228.03 198.65 228.06 204.43C224.68 208.6 221.13 212.63 217.51 216.59C216.47 217.21 215.32 217.09 214.2 217.09C202.32 217.09 190.44 217.09 178.55 217.09C175.73 217.09 175.69 217.14 175.68 219.91C175.68 227.2 175.68 234.5 175.68 241.79C175.68 242.85 175.8 243.94 175.11 244.88C166.98 248.47 158.47 250.77 149.74 252.33C143.99 253.36 138.2 254.1 132.35 254.13C131.63 253.19 131.86 252.08 131.86 251.03C131.84 230.85 131.85 210.66 131.85 190.48C131.85 159.35 131.85 128.23 131.85 97.1001C131.85 92.5201 131.1 87.97 131.62 82.95C123.11 97.41 114.68 111.37 106.47 125.46C105.43 127.25 104.19 128.05 102.09 128C97.4998 127.89 92.9098 127.89 88.3198 128C86.2398 128.05 84.9596 127.27 83.8896 125.51C76.0396 112.7 68.0597 99.9599 60.1797 87.1699C59.7697 86.4999 59.4098 85.7799 58.8198 85.1299C58.4998 85.8499 58.6497 86.4801 58.6497 87.0901C58.6497 103 58.6497 118.91 58.6497 134.82C58.6497 135.39 58.6497 135.95 58.6497 136.52C58.5797 138.85 58.2099 139.27 55.8499 139.28C44.4099 139.31 32.9598 139.31 21.5198 139.28C18.9698 139.28 18.6396 138.85 18.6396 135.83C18.6396 114.89 18.6396 93.95 18.6396 73.01C18.6396 70.31 18.6496 67.5999 18.6396 64.8999C18.6396 63.6899 18.7697 62.5199 19.1997 61.3899L19.2097 61.4099Z" fill="#222222"/>
<path d="M19.21 61.4099C19.24 62.0999 19.28 62.79 19.28 63.48C19.28 87.88 19.3 112.27 19.24 136.67C19.24 138.4 19.6799 138.85 21.4099 138.84C32.9199 138.76 44.4199 138.74 55.9299 138.86C57.9499 138.88 58.24 138.23 58.23 136.44C58.17 119.46 58.1899 102.49 58.1899 85.51C58.1899 84.89 58.1899 84.28 58.1899 83.45C58.9799 83.87 59.22 84.5401 59.55 85.0801C67.99 98.6901 76.4301 112.3 84.8301 125.93C85.4901 127 86.16 127.49 87.48 127.46C92.51 127.37 97.5401 127.37 102.57 127.46C104.06 127.49 104.9 127.04 105.67 125.73C114.02 111.56 122.44 97.42 130.84 83.28C131.15 82.75 131.48 82.23 132.21 81.72C132.21 82.86 132.21 83.9999 132.21 85.1399C132.62 130.79 132.26 176.43 132.37 222.08C132.4 232.77 132.37 243.46 132.36 254.15C131.25 254.2 130.15 254.25 129.05 254.3C127.79 254.3 126.52 254.3 125.26 254.3C107.92 253.94 91.32 250.3 75.47 243.23C70.02 240.8 64.82 237.9 59.72 234.82C59.76 234.03 60.4399 233.68 60.8999 233.2C65.2699 228.64 67.73 223.12 67.7 216.9C67.62 202.65 56.1001 192.38 43.3601 192.78C36.3401 193 30.6201 195.64 25.8301 200.62C25.4601 201.01 25.18 201.59 24.48 201.46C18.93 194.18 14.5799 186.2 10.9399 177.83C4.83994 163.81 1.49992 149.13 0.669922 133.87C0.669922 133.24 0.669922 132.61 0.669922 131.99C0.669922 131.23 0.669922 130.48 0.669922 129.72C0.669922 128.2 0.669922 126.68 0.669922 125.16C0.669922 124.53 0.669922 123.9 0.669922 123.27C0.669922 122.52 0.669932 121.76 0.679932 121.01C1.79993 100.25 7.57989 80.89 18.1399 62.97C18.4499 62.44 18.84 61.9499 19.2 61.4299L19.21 61.4099Z" fill="#F3AC21"/>
<path d="M24.4805 201.44C30.2405 194.65 37.5204 191.56 46.4504 192.3C57.0804 193.18 66.7704 202.67 67.9304 213.28C68.7804 221.13 66.5904 227.89 61.1804 233.62C60.7604 234.07 60.2205 234.41 59.7405 234.8C46.2205 226.28 34.7405 215.56 25.2505 202.71C24.9605 202.31 24.7405 201.86 24.4805 201.44Z" fill="#222222"/>
<path d="M175.14 244.89C175.13 235.9 175.14 226.92 175.08 217.93C175.08 216.89 175.34 216.52 176.44 216.52C190.14 216.57 203.84 216.58 217.53 216.59C209.92 224.53 201.25 231.11 191.82 236.72C186.48 239.89 181 242.79 175.13 244.89H175.14Z" fill="#F3AC21"/>
</svg>
