<svg width="227" height="214" viewBox="0 0 227 214" fill="none" xmlns="http://www.w3.org/2000/svg">
<path d="M224.45 0.0400391C224.08 0.0400391 223.71 0.150078 223.42 0.330078C223.29 0.380078 223.16 0.419971 223.03 0.469971C221.57 0.999971 220.1 1.52005 218.64 2.05005C215.74 3.09005 212.84 4.12993 209.94 5.17993C205.84 6.64993 201.74 8.1301 197.64 9.6001C192.57 11.4201 187.5 13.2401 182.44 15.0701C176.64 17.1601 170.84 19.2401 165.03 21.3301C158.73 23.6001 152.43 25.8599 146.12 28.1299C139.55 30.4899 132.98 32.85 126.42 35.21C119.82 37.58 113.22 39.9601 106.62 42.3301C100.22 44.6301 93.8198 46.93 87.4198 49.23C81.4598 51.37 75.4899 53.5199 69.5299 55.6599C64.2299 57.5599 58.9398 59.4701 53.6398 61.3701C49.2498 62.9501 44.8499 64.5301 40.4599 66.1101C37.1999 67.2801 33.9499 68.4501 30.6899 69.6201C24.4699 71.8601 18.3599 74.3501 12.2199 76.8201C10.5799 77.4801 8.91984 78.1501 7.42984 79.1001C5.46984 80.3501 4.11996 82.0899 3.04996 84.1299C0.82996 88.3399 0.319882 92.9699 0.219882 97.6499C0.119882 102.65 0.189852 107.65 0.189852 112.65V195.06C0.109852 196.71 0.189852 198.62 0.189852 201.09V202.9H0.339999C1.22 208.69 6.25994 213.18 12.2799 213.18H222.5C224.75 213.18 226.55 211.37 226.55 209.13V2.08008C226.48 0.940078 225.55 0.0500488 224.45 0.0500488V0.0400391ZM24.1899 77.27C24.4699 76.94 24.8799 76.7601 25.2799 76.6001C38.8399 71.1701 52.7899 66.6899 66.5099 61.6899C72.1299 59.6399 77.75 57.59 83.37 55.55C89.44 53.34 95.51 51.1299 101.58 48.9199C107.89 46.6199 114.2 44.32 120.51 42.02C126.86 39.71 133.2 37.4001 139.55 35.0801C145.72 32.8301 151.89 30.5801 158.07 28.3301C163.86 26.2201 169.65 24.11 175.44 22C180.64 20.1 185.85 18.2101 191.05 16.3101C195.46 14.7001 199.87 13.1 204.27 11.49C207.68 10.25 211.08 9.01002 214.49 7.77002C214.76 7.67002 215.02 7.57998 215.29 7.47998C214.17 8.43998 213.03 9.38009 211.91 10.3401C209.74 12.1801 207.56 14.0301 205.39 15.8701C202.51 18.3001 199.6 20.7399 196.73 23.1699C193.27 26.1199 189.76 29.07 186.3 32.05C182.28 35.4 178.3 38.7999 174.32 42.1899C125.37 83.6199 76.3799 125.05 27.4599 166.56C26.2799 167.56 25.0898 168.55 23.8798 169.54V108.85C23.8798 98.9101 23.8099 88.97 23.7699 79.03C23.7699 78.41 23.7798 77.73 24.1798 77.26L24.1899 77.27ZM114.09 182.98H113.98L28.7599 182.61C25.8099 182.57 23.8898 180.18 23.8898 177.67C23.8898 176.34 24.41 175.02 25.62 173.98L177.86 44.71C181.47 41.61 186.15 42.87 188.44 45.96C189.88 47.88 190.36 50.53 189.1 53.26L135.47 169.3C131.6 177.67 123.27 182.98 114.09 182.98ZM222.79 156.29C222.79 171.29 210.63 183.38 195.62 183.35H192.19C186.51 183.35 180.84 183.39 175.16 183.24C168.01 183.06 158.65 184.94 152.12 181.36C146.55 178.3 144.16 171.3 144.64 164.99C145.19 158.28 148.44 152.24 150.98 146.23C154.08 138.89 157.43 131.71 160.71 124.48C167.2 110.18 173.83 95.95 180.62 81.79C190.39 61.26 199.05 38.33 216.01 22.55C216.82 21.81 217.78 21.48 218.74 21.48C220.8 21.48 222.79 23.1 222.79 25.53V156.28V156.29Z" fill="black"/>
<path d="M0.179688 95.77V96.6499C0.179688 96.1299 0.179727 95.6201 0.219727 95.1001C0.179727 95.3201 0.179688 95.54 0.179688 95.76V95.77Z" fill="black"/>
<path d="M0.259766 94.4399C0.369766 92.9999 0.559814 91.68 0.809814 90.46C0.479814 91.75 0.289766 93.0799 0.259766 94.4399Z" fill="black"/>
</svg>
