<svg width="205" height="257" viewBox="0 0 205 257" fill="none" xmlns="http://www.w3.org/2000/svg">
<path d="M204.89 109.47V230.95C204.89 243.2 196.26 253.51 184.76 256.04H20.2402C8.74023 253.51 0.110352 243.2 0.110352 230.95V25.53C0.110352 12.44 9.88031 1.63004 22.5703 0.0400391H182.43C195.12 1.63004 204.89 12.44 204.89 25.53C204.89 39.76 193.39 51.26 179.16 51.26H58.3203C54.4503 51.26 51.3303 54.38 51.3303 58.3V197.78C51.3303 201.7 54.4503 204.82 58.3203 204.82H95.4602C97.4402 204.82 99.1802 204.03 100.47 202.79C101.76 201.5 102.55 199.72 102.55 197.78V160.69C102.55 158.76 103.34 156.97 104.58 155.68C105.87 154.44 107.6 153.65 109.54 153.65H146.63C148.61 153.65 150.35 152.86 151.64 151.57C152.93 150.33 153.72 148.55 153.72 146.61V109.47C153.72 105.6 156.84 102.43 160.76 102.43H197.85C201.77 102.43 204.89 105.6 204.89 109.47Z" fill="black"/>
</svg>
