<svg width="95" height="101" viewBox="0 0 95 101" fill="none" xmlns="http://www.w3.org/2000/svg">
<path d="M53.3705 17.4501C53.5105 19.0201 53.4705 20.5501 53.2605 22.0401C53.0505 23.5201 52.7606 24.9601 52.4006 26.3401C52.0406 27.7201 51.6205 29.0601 51.1405 30.3501C50.6605 31.6401 50.2005 32.8801 49.7605 34.0501C49.1305 35.6301 48.4505 37.3101 47.7005 39.1001C46.9505 40.8901 46.0705 42.6301 45.0405 44.3301C44.0205 46.0301 42.8105 47.5901 41.4205 49.0101C40.0305 50.4301 38.4005 51.5701 36.5405 52.4301C34.6805 53.2901 32.5405 53.7501 30.1205 53.8101C27.7005 53.8701 24.9605 53.3901 21.8905 52.3701C17.3505 50.8601 14.0006 48.9201 11.8306 46.5401C9.67055 44.1701 8.28054 41.5401 7.69054 38.6701C7.09054 35.8001 7.11052 32.7601 7.74052 29.5601C8.37052 26.3601 9.23053 23.1301 10.3105 19.8701C11.4405 16.4801 12.8305 13.3601 14.4905 10.5201C16.1505 7.68006 18.1705 5.38008 20.5705 3.60008C22.9705 1.83008 25.7406 0.71008 28.9006 0.26008C32.0606 -0.18992 35.7005 0.260085 39.8205 1.64009C42.2005 2.43009 44.2105 3.40006 45.8505 4.52006C47.4905 5.65006 48.8405 6.89006 49.9205 8.24006C51.0005 9.59006 51.8005 11.0601 52.3205 12.6301C52.8405 14.2001 53.1805 15.8101 53.3605 17.4401L53.3705 17.4501ZM38.2005 27.6901C38.7905 26.2101 39.3205 24.7701 39.7905 23.3701C40.2605 21.9701 40.4705 20.6701 40.4405 19.4601C40.4105 18.2501 40.0406 17.1901 39.3306 16.2601C38.6206 15.3401 37.4105 14.5901 35.7205 14.0301C33.7005 13.3601 32.0205 13.1301 30.6805 13.3501C29.3305 13.5701 28.1905 14.1301 27.2505 15.0401C26.3105 15.9501 25.4905 17.1801 24.8005 18.7301C24.1005 20.2801 23.4306 22.0401 22.7706 24.0201C22.0106 26.3101 21.3705 28.3201 20.8505 30.0301C20.3305 31.7401 20.1305 33.2301 20.2505 34.4901C20.3705 35.7501 20.8506 36.8201 21.7106 37.6901C22.5706 38.5601 24.0006 39.3301 26.0206 40.0001C27.8506 40.6101 29.4406 40.5501 30.7806 39.8201C32.1206 39.0901 33.2505 38.0501 34.1905 36.6801C35.1305 35.3101 35.9105 33.7901 36.5505 32.1201C37.1805 30.4501 37.7406 28.9701 38.2106 27.7101L38.2005 27.6901Z" fill="#FF8811"/>
<path d="M94.7403 41.0401C94.7303 42.6201 94.5403 44.1401 94.1903 45.5901C93.8303 47.0501 93.4104 48.4401 92.9204 49.7901C92.4304 51.1301 91.8804 52.4201 91.2804 53.6601C90.6804 54.9001 90.1004 56.0801 89.5504 57.2101C88.7804 58.7201 87.9303 60.3301 87.0203 62.0301C86.1003 63.7401 85.0603 65.3901 83.8703 66.9801C82.6903 68.5701 81.3403 70.0101 79.8203 71.2901C78.3003 72.5701 76.5703 73.5501 74.6303 74.2201C72.6903 74.8901 70.5203 75.1501 68.1103 74.9801C65.7003 74.8101 63.0104 74.0701 60.0504 72.7601C55.6804 70.8201 52.5303 68.5601 50.6003 65.9901C48.6703 63.4201 47.5503 60.6701 47.2303 57.7601C46.9103 54.8401 47.2203 51.8201 48.1603 48.6901C49.1003 45.5601 50.2603 42.4301 51.6503 39.2901C53.1003 36.0201 54.7803 33.0501 56.7103 30.3901C58.6303 27.7301 60.8704 25.6301 63.4304 24.0901C65.9904 22.5501 68.8604 21.7101 72.0404 21.5601C75.2204 21.4101 78.8104 22.2201 82.7804 23.9801C85.0804 25.0001 86.9903 26.1501 88.5103 27.4301C90.0303 28.7101 91.2603 30.0801 92.2103 31.5301C93.1603 32.9801 93.8104 34.5101 94.1804 36.1301C94.5504 37.7501 94.7403 39.3801 94.7503 41.0201L94.7403 41.0401ZM78.6604 49.7701C79.3904 48.3501 80.0604 46.9701 80.6604 45.6201C81.2604 44.2701 81.6004 43.0001 81.6804 41.7901C81.7604 40.5901 81.5003 39.4901 80.8803 38.5001C80.2603 37.5101 79.1303 36.6501 77.5003 35.9301C75.5603 35.0701 73.9004 34.6801 72.5504 34.7601C71.1904 34.8401 70.0003 35.2901 68.9803 36.1101C67.9603 36.9301 67.0303 38.0701 66.1903 39.5501C65.3503 41.0301 64.5104 42.7201 63.6704 44.6201C62.6904 46.8301 61.8604 48.7601 61.1804 50.4201C60.5004 52.0701 60.1603 53.5301 60.1503 54.8001C60.1503 56.0701 60.5304 57.1701 61.2904 58.1201C62.0604 59.0701 63.4103 59.9701 65.3603 60.8401C67.1303 61.6201 68.7103 61.7201 70.1103 61.1201C71.5103 60.5301 72.7404 59.5901 73.8104 58.3201C74.8804 57.0501 75.8003 55.6101 76.6003 54.0001C77.3903 52.4001 78.0804 50.9801 78.6804 49.7701H78.6604Z" fill="#FF8811"/>
<path d="M35.6804 87.5903C35.6804 87.5903 35.5604 87.8403 30.6004 85.6103C9.68037 76.2303 2.40038 57.2203 0.670381 51.6103C-0.0196193 49.3903 1.23041 47.0303 3.45041 46.3403C5.67041 45.6503 8.03037 46.9003 8.72037 49.1203C9.77037 52.5003 15.9004 69.7803 34.0504 77.9203C50.0504 85.0903 65.0304 80.5503 69.2404 78.9903C71.4204 78.1803 73.8404 79.2903 74.6504 81.4703C75.4604 83.6503 74.3504 86.0703 72.1704 86.8803C70.1004 87.6503 69.6003 87.6103 68.0703 88.5903C63.9703 91.2103 66.1903 98.4103 62.5703 100.1C61.5803 100.56 60.3304 100.53 59.3904 100.1C56.1004 98.5903 57.9104 92.7303 54.4804 90.3703C52.5004 89.0103 49.2604 89.1503 47.8504 90.5803C46.2004 92.2503 47.2904 95.4703 45.6504 96.1503C45.1704 96.3503 44.5504 96.2903 44.1304 96.0403C43.4304 95.6403 43.2804 94.7903 43.0604 93.8803C42.6304 92.0903 42.3204 90.8003 41.8004 90.0003C40.8804 88.5703 39.3504 88.7103 35.7004 87.5803L35.6804 87.5903Z" fill="#E03616"/>
</svg>
