<svg width="174" height="157" viewBox="0 0 174 157" fill="none" xmlns="http://www.w3.org/2000/svg">
<path d="M75.3597 16.81C76.9697 19.46 78.2397 22.18 79.1597 24.97C80.0797 27.76 80.8197 30.53 81.3997 33.28C81.9797 36.03 82.3997 38.74 82.6897 41.43C82.9697 44.12 83.2397 46.69 83.4797 49.15C83.7497 52.47 84.0097 56.02 84.2597 59.82C84.4997 63.62 84.4697 67.46 84.1497 71.33C83.8297 75.21 83.0697 79 81.8697 82.71C80.6697 86.42 78.7997 89.85 76.2697 92.98C73.7397 96.11 70.3797 98.79 66.1897 101C61.9997 103.22 56.7497 104.77 50.4597 105.65C41.1597 106.95 33.5697 106.46 27.6897 104.17C21.8097 101.88 17.0997 98.47 13.5397 93.94C9.97967 89.41 7.36968 84.05 5.67968 77.87C3.99968 71.69 2.6897 65.26 1.7597 58.59C0.829699 51.92 0.519711 44.95 0.959711 38.51C1.39971 32.08 2.94968 26.26 5.61968 21.04C8.28968 15.83 12.1997 11.45 17.3597 7.89998C22.5097 4.34998 29.3197 1.97997 37.7697 0.799973C42.6497 0.119973 47.0297 0.0499703 50.8897 0.60997C54.7497 1.16997 58.2197 2.16997 61.2997 3.60997C64.3797 5.04997 67.0597 6.91998 69.3397 9.23997C71.6297 11.56 73.6297 14.08 75.3597 16.8V16.81ZM57.6097 48.04C57.3597 44.91 57.0397 41.92 56.6397 39.05C56.2397 36.18 55.4797 33.7 54.3797 31.61C53.2697 29.52 51.6897 27.96 49.6297 26.96C47.5697 25.95 44.8097 25.7 41.3297 26.18C37.1997 26.76 34.0397 27.83 31.8597 29.38C29.6797 30.93 28.1597 32.92 27.3097 35.33C26.4497 37.75 26.0897 40.63 26.2197 43.96C26.3497 47.3 26.6997 50.98 27.2697 55.02C27.9297 59.72 28.5497 63.8 29.1297 67.26C29.7097 70.72 30.6497 73.51 31.9597 75.63C33.2597 77.75 35.0497 79.2 37.3097 79.98C39.5797 80.77 42.7697 80.87 46.9097 80.29C50.6697 79.76 53.3997 78.28 55.1197 75.83C56.8397 73.39 57.9197 70.55 58.3797 67.33C58.8397 64.1 58.8897 60.75 58.5497 57.25C58.1997 53.76 57.8897 50.69 57.6197 48.04H57.6097Z" fill="#FF8811"/>
<path d="M168.68 22.2399C170.03 25.0299 171.03 27.8599 171.68 30.7299C172.32 33.5999 172.8 36.4299 173.11 39.2099C173.42 41.9999 173.58 44.7399 173.61 47.4499C173.63 50.1599 173.65 52.7399 173.66 55.2099C173.61 58.5399 173.53 62.0999 173.41 65.8999C173.29 69.6999 172.88 73.5199 172.19 77.3499C171.5 81.1799 170.38 84.8799 168.82 88.4599C167.27 92.0399 165.08 95.2699 162.26 98.1399C159.44 101.02 155.84 103.35 151.45 105.16C147.06 106.96 141.7 108 135.35 108.27C125.97 108.67 118.46 107.45 112.83 104.61C107.2 101.77 102.83 97.9199 99.7301 93.0699C96.6201 88.2199 94.5301 82.6399 93.4501 76.3199C92.3701 70.0099 91.6902 63.4799 91.4002 56.7499C91.1002 49.7399 91.4802 43.0499 92.5302 36.6899C93.5802 30.3299 95.6901 24.6899 98.8501 19.7499C102.01 14.8199 106.32 10.8399 111.79 7.79991C117.26 4.75991 124.26 3.05992 132.79 2.68992C137.72 2.47992 142.08 2.83993 145.87 3.75993C149.66 4.68993 153.02 6.01991 155.94 7.73991C158.86 9.46991 161.35 11.5899 163.41 14.1099C165.46 16.6299 167.22 19.3399 168.67 22.2199L168.68 22.2399ZM148.01 51.6199C148.06 48.4799 148.03 45.4699 147.91 42.5799C147.79 39.6899 147.27 37.1499 146.37 34.9599C145.47 32.7699 144.04 31.0699 142.09 29.8699C140.14 28.6699 137.41 28.1499 133.9 28.2999C129.73 28.4799 126.49 29.2399 124.17 30.5699C121.85 31.8999 120.15 33.7299 119.07 36.0599C117.98 38.3899 117.34 41.2199 117.16 44.5499C116.97 47.8799 116.96 51.5899 117.14 55.6599C117.34 60.3999 117.57 64.5199 117.81 68.0199C118.05 71.5199 118.72 74.3899 119.82 76.6199C120.91 78.8499 122.55 80.4699 124.73 81.4599C126.91 82.4599 130.08 82.8699 134.25 82.6899C138.04 82.5299 140.91 81.3099 142.85 79.0399C144.79 76.7699 146.15 74.0599 146.91 70.8899C147.68 67.7199 148.05 64.3899 148.05 60.8699C148.05 57.3599 148.03 54.2699 148.01 51.6099V51.6199Z" fill="#FF8811"/>
<path d="M105.42 155.59C101.99 156.07 98.4402 156.4 94.7702 156.54C49.8002 158.28 20.4202 131.2 12.4902 122.86C9.35019 119.55 9.48018 114.32 12.7902 111.18C16.1002 108.03 21.3302 108.17 24.4802 111.48C29.2702 116.51 55.1102 141.55 94.1402 140.04C128.52 138.71 150.91 117.66 156.96 111.24C160.09 107.92 165.32 107.76 168.64 110.88C171.96 114.01 172.12 119.24 168.99 122.56C160.7 131.37 138.93 150.9 105.43 155.6L105.42 155.59Z" fill="#FF8811"/>
</svg>
