<svg width="65" height="59" viewBox="0 0 65 59" fill="none" xmlns="http://www.w3.org/2000/svg">
<path d="M31.7598 29.0199C31.7398 28.7499 31.7097 28.4799 31.6797 28.2099C31.5597 27.1199 31.3698 26.0499 31.1298 24.9999C30.8298 23.6899 30.5297 22.4699 30.2397 21.3299C30.0097 20.4799 29.7697 19.6099 29.5197 18.6799C29.2697 17.7599 28.9598 16.8399 28.5998 15.9099C28.2398 14.9899 27.8197 14.0699 27.3397 13.1499C26.9997 12.4999 26.4498 11.5699 25.5398 10.5199C25.0998 10.0099 24.2997 9.10989 22.9997 8.22989C21.5597 7.25989 20.2597 6.83989 19.8697 6.72989C18.7197 6.40989 17.4497 6.25989 16.0797 6.28989C14.6997 6.30989 13.1797 6.58987 11.5197 7.10987C8.63974 8.00987 6.39975 9.22989 4.80975 10.7599C3.21975 12.2999 2.10974 14.0399 1.48974 16.0099C0.859739 17.9899 0.649744 20.0999 0.869744 22.3699C1.08974 24.6399 1.56975 26.9599 2.30975 29.3199C3.01975 31.5899 3.84976 33.7599 4.78976 35.8099C5.54976 37.4599 6.47975 39.0299 8.08975 40.6099C8.20975 40.7199 8.32974 40.8399 8.45974 40.9499C10.1397 42.5099 12.0397 44.2699 14.2497 44.0599C15.7197 43.9199 16.4998 42.9799 17.3198 41.9799C18.1698 40.9499 19.0497 39.8599 20.7797 39.5199C23.5297 38.9899 24.7497 41.0699 27.1797 39.9899C27.4497 39.8599 27.7097 39.7199 27.9597 39.5499C29.2297 38.6999 30.0197 37.3799 30.2497 36.9899C30.9897 35.7599 31.3297 34.4099 31.3997 34.1399C31.4897 33.7999 31.5597 33.4399 31.6097 33.0899C31.8097 31.7299 31.8597 30.3499 31.7397 28.9899L31.7598 29.0199ZM15.9297 34.7399C15.0997 34.5899 14.3897 34.1899 13.8097 33.5299C13.2397 32.8599 12.7397 31.9499 12.3397 30.7699C12.2197 30.4299 12.0997 30.0599 11.9697 29.6899C11.6697 28.7699 11.3398 27.7499 10.9798 26.6199C10.5498 25.2499 10.2098 23.9799 9.97976 22.8299C9.73976 21.6799 9.69973 20.6499 9.85973 19.7599C10.0197 18.8699 10.4298 18.0899 11.0998 17.4199C11.7698 16.7499 12.8097 16.1999 14.2197 15.7599C15.3997 15.3899 16.3797 15.3199 17.1497 15.5599C17.9297 15.7899 18.5697 16.2299 19.0797 16.8999C19.5797 17.5699 19.9897 18.3899 20.2997 19.3599C20.6097 20.3399 20.8998 21.3699 21.1598 22.4399C21.3798 23.2599 21.6398 24.1899 21.9198 25.2399C21.9498 25.3599 21.9798 25.4799 22.0098 25.5899C22.3298 26.7899 22.4998 27.9699 22.5398 29.1199C22.5598 30.2699 22.3498 31.3199 21.8898 32.2699C21.4398 33.2199 20.5698 33.8899 19.2898 34.2899C17.8898 34.7399 16.7697 34.8899 15.9297 34.7399Z" fill="#FF8811"/>
<path d="M31.7595 29.02C31.7395 28.75 31.7095 28.48 31.6795 28.21C31.2295 27.8 30.7595 27.42 30.2695 27.06C29.3395 26.39 28.2895 25.89 27.1395 25.56C25.9895 25.24 24.7195 25.09 23.3395 25.12C22.8895 25.12 22.4195 25.17 21.9295 25.23C20.9395 25.36 19.8895 25.59 18.7795 25.94C15.8995 26.84 13.6695 28.06 12.0795 29.59C12.0495 29.62 12.0195 29.65 11.9895 29.68C10.4495 31.19 9.3595 32.91 8.7495 34.85C8.1795 36.65 7.9595 38.57 8.0995 40.62C8.2195 40.73 8.3395 40.85 8.4695 40.96C10.1495 42.52 12.0495 44.28 14.2595 44.07C15.7295 43.93 16.5095 42.99 17.3295 41.99C17.2995 41.87 17.2795 41.75 17.2495 41.63C17.0095 40.48 16.9695 39.45 17.1195 38.56C17.2795 37.67 17.6995 36.89 18.3695 36.22C19.0395 35.55 20.0795 35.01 21.4795 34.56C22.6595 34.19 23.6395 34.12 24.4195 34.36C25.1995 34.59 25.8395 35.04 26.3395 35.7C26.8495 36.37 27.2595 37.19 27.5595 38.17C27.6995 38.62 27.8395 39.09 27.9695 39.57C29.2395 38.72 30.0295 37.4 30.2595 37.01C30.9995 35.78 31.3395 34.43 31.4095 34.16C31.4995 33.82 31.5695 33.46 31.6195 33.11C31.8195 31.75 31.8695 30.37 31.7495 29.01L31.7595 29.02Z" fill="#FF8811"/>
<path d="M63.9404 25.9599C63.9604 25.6899 63.9804 25.4199 63.9904 25.1499C64.0504 24.0599 64.0404 22.97 63.9604 21.89C63.8804 20.55 63.7804 19.2999 63.6704 18.1299C63.5804 17.2599 63.4804 16.3499 63.3804 15.3999C63.2804 14.4499 63.1304 13.4899 62.9204 12.5199C62.7104 11.5599 62.4404 10.5799 62.1204 9.58994C61.8804 8.88994 61.5004 7.88994 60.7704 6.70994C60.4204 6.13994 59.7704 5.11995 58.6304 4.03995C57.3604 2.84995 56.1504 2.22994 55.7804 2.05994C54.6904 1.55994 53.4604 1.20993 52.1104 1.01993C50.7404 0.819933 49.2004 0.849951 47.4804 1.09995C44.5004 1.52995 42.0904 2.36995 40.2704 3.62995C38.4504 4.88995 37.0804 6.43994 36.1504 8.27994C35.2104 10.1299 34.6704 12.1799 34.5204 14.4599C34.3704 16.7299 34.4704 19.0999 34.8304 21.5499C35.1604 23.9099 35.6304 26.18 36.2304 28.35C36.7204 30.1 37.3804 31.7999 38.7204 33.6099C38.8204 33.7399 38.9204 33.87 39.0304 34.01C40.4404 35.82 42.0304 37.87 44.2504 38.01C45.7304 38.11 46.6404 37.3 47.6204 36.45C48.6204 35.57 49.6704 34.6299 51.4304 34.5799C54.2304 34.4999 55.1004 36.75 57.6804 36.07C57.9704 35.99 58.2504 35.89 58.5204 35.76C59.9104 35.12 60.9004 33.9499 61.1904 33.5999C62.1204 32.4999 62.6704 31.23 62.7804 30.98C62.9204 30.65 63.0504 30.32 63.1604 29.98C63.5804 28.67 63.8504 27.32 63.9504 25.95L63.9404 25.9599ZM47.4004 29.07C46.6004 28.79 45.9704 28.28 45.5004 27.54C45.0404 26.79 44.7004 25.8099 44.5004 24.5799C44.4404 24.2199 44.3804 23.85 44.3104 23.45C44.1604 22.5 44.0004 21.43 43.8304 20.26C43.6204 18.84 43.5004 17.53 43.4504 16.35C43.4004 15.17 43.5204 14.1499 43.8304 13.2999C44.1304 12.4399 44.6604 11.7399 45.4304 11.1899C46.2004 10.6399 47.3104 10.2599 48.7804 10.0499C50.0104 9.87993 50.9804 9.95995 51.7104 10.32C52.4404 10.67 53.0004 11.21 53.4004 11.95C53.7904 12.69 54.0604 13.57 54.2004 14.57C54.3404 15.59 54.4704 16.6499 54.5604 17.7499C54.6504 18.5899 54.7504 19.5499 54.8604 20.6299C54.8704 20.7499 54.8804 20.8699 54.9004 20.9899C55.0204 22.2299 55.0104 23.4099 54.8504 24.5599C54.6904 25.6999 54.3104 26.7 53.7004 27.57C53.1004 28.43 52.1304 28.9599 50.8104 29.1499C49.3504 29.3699 48.2204 29.3299 47.4204 29.0599L47.4004 29.07Z" fill="#FF8811"/>
<path d="M63.9407 25.96C63.9607 25.69 63.9807 25.42 63.9907 25.15C63.6107 24.68 63.2107 24.22 62.7807 23.79C61.9707 22.97 61.0207 22.32 59.9307 21.81C58.8407 21.31 57.6107 20.96 56.2507 20.77C55.8007 20.7 55.3307 20.67 54.8407 20.65C53.8407 20.62 52.7707 20.68 51.6207 20.85C48.6407 21.28 46.2407 22.12 44.4207 23.38C44.3807 23.41 44.3507 23.43 44.3107 23.46C42.5407 24.71 41.2007 26.23 40.2907 28.04C39.4407 29.73 38.9107 31.59 38.7207 33.63C38.8207 33.76 38.9207 33.89 39.0307 34.03C40.4407 35.84 42.0307 37.89 44.2507 38.03C45.7307 38.13 46.6407 37.32 47.6207 36.47C47.6107 36.35 47.6007 36.22 47.6007 36.1C47.5507 34.92 47.6707 33.9 47.9707 33.05C48.2707 32.2 48.8107 31.49 49.5807 30.94C50.3507 30.39 51.4607 30.01 52.9207 29.8C54.1507 29.63 55.1307 29.71 55.8507 30.07C56.5807 30.42 57.1407 30.97 57.5307 31.7C57.9207 32.45 58.2007 33.32 58.3407 34.33C58.4107 34.8 58.4707 35.28 58.5207 35.77C59.9107 35.13 60.9007 33.96 61.1907 33.61C62.1207 32.51 62.6707 31.24 62.7807 30.99C62.9207 30.66 63.0507 30.33 63.1607 29.99C63.5807 28.68 63.8507 27.33 63.9507 25.96H63.9407Z" fill="#FF8811"/>
<path d="M44.0399 57.15C42.8699 57.52 41.6499 57.83 40.3799 58.1C24.8099 61.3 13.0099 53.56 9.75987 51.11C8.46987 50.14 8.21987 48.31 9.18987 47.02C10.1599 45.73 11.9899 45.48 13.2799 46.45C15.2399 47.93 25.6899 55.16 39.1999 52.38C51.0999 49.93 57.6899 41.3 59.4299 38.72C60.3299 37.38 62.1399 37.02 63.4799 37.92C64.8199 38.82 65.1799 40.63 64.2799 41.97C61.8999 45.52 55.4399 53.58 44.0399 57.16V57.15Z" fill="#FF8811"/>
</svg>
