<svg width="53" height="48" viewBox="0 0 53 48" fill="none" xmlns="http://www.w3.org/2000/svg">
<path d="M22.3708 14.1201C22.7808 14.5001 23.0908 14.9001 23.3008 15.3101C23.5108 15.7301 23.6708 16.1401 23.7808 16.5501C23.8908 16.9601 23.9608 17.3801 23.9908 17.7901C24.0208 18.2001 24.0408 18.5901 24.0708 18.9701C24.0808 19.4801 24.0908 20.0201 24.0808 20.6001C24.0808 21.1801 23.9908 21.7701 23.8208 22.3801C23.6508 22.9801 23.3608 23.5801 22.9308 24.1801C22.5108 24.7701 21.9008 25.3401 21.1108 25.8601C20.3208 26.3901 19.3008 26.8601 18.0408 27.2801C16.7908 27.7001 15.2408 28.0301 13.4108 28.2701C10.7008 28.6301 8.52077 28.6901 6.88077 28.4401C5.23077 28.1901 3.94077 27.7501 3.00077 27.1101C2.06077 26.4701 1.42077 25.6901 1.06077 24.7701C0.700767 23.8501 0.450767 22.8801 0.310767 21.8601C0.170767 20.8001 0.220781 19.7801 0.480781 18.7801C0.730781 17.7801 1.30078 16.8501 2.17078 16.0001C3.04078 15.1501 4.26078 14.4001 5.82078 13.7701C7.38078 13.1301 9.39078 12.6501 11.8508 12.3101C13.2708 12.1201 14.5308 12.0301 15.6408 12.0501C16.7408 12.0701 17.7208 12.1601 18.5808 12.3301C19.4408 12.5001 20.1708 12.7401 20.7908 13.0601C21.4008 13.3801 21.9308 13.7301 22.3708 14.1201Z" fill="#FF8811"/>
<path d="M47.5899 5.02012C48.0899 5.77012 48.4899 6.55013 48.7899 7.35013C49.0899 8.15013 49.3399 8.95012 49.5299 9.74012C49.7299 10.5301 49.8799 11.3201 49.9999 12.1001C50.1099 12.8801 50.2199 13.6201 50.3199 14.3401C50.4399 15.3001 50.5499 16.3301 50.6699 17.4301C50.7799 18.5301 50.8199 19.6501 50.7699 20.7801C50.7199 21.9101 50.5399 23.0201 50.2299 24.1101C49.9199 25.2001 49.4199 26.2201 48.7199 27.1601C48.0199 28.1001 47.0699 28.9101 45.8799 29.6101C44.6899 30.3001 43.1799 30.8101 41.3599 31.1401C38.6699 31.6201 36.4599 31.5601 34.7299 30.9601C32.9999 30.3601 31.5899 29.4201 30.4999 28.1401C29.4099 26.8601 28.5899 25.3401 28.0399 23.5601C27.4799 21.7801 27.0299 19.9301 26.6799 18.0001C26.3299 16.0701 26.1699 14.0501 26.2199 12.1701C26.2799 10.3001 26.6599 8.59014 27.3799 7.04014C28.0999 5.50014 29.1899 4.18012 30.6399 3.09012C32.0999 2.00012 34.0499 1.24012 36.4899 0.800116C37.8999 0.550116 39.1699 0.480134 40.2999 0.600134C41.4299 0.720134 42.4499 0.970134 43.3599 1.35013C44.2699 1.73013 45.0699 2.25012 45.7599 2.90012C46.4499 3.55012 47.0599 4.26013 47.5899 5.03013V5.02012ZM42.7799 14.3001C42.6699 13.3901 42.5499 12.5301 42.3999 11.7001C42.2499 10.8701 41.9999 10.1601 41.6599 9.56013C41.3099 8.96013 40.8399 8.53014 40.2299 8.26014C39.6199 7.99014 38.8099 7.95013 37.8099 8.13013C36.6099 8.34013 35.7099 8.69013 35.0899 9.16013C34.4699 9.64013 34.0599 10.2301 33.8299 10.9401C33.6099 11.6501 33.5299 12.4901 33.6099 13.4601C33.6899 14.4301 33.8299 15.5001 34.0399 16.6601C34.2799 18.0201 34.5099 19.2001 34.7199 20.2001C34.9299 21.2001 35.2299 22.0001 35.6299 22.6001C36.0299 23.2001 36.5699 23.6001 37.2299 23.8001C37.8999 24.0001 38.8299 24.0001 40.0199 23.7801C41.1099 23.5801 41.8899 23.1201 42.3599 22.3901C42.8299 21.6601 43.1199 20.8201 43.2099 19.8801C43.3099 18.9401 43.2899 17.9601 43.1499 16.9501C43.0099 15.9401 42.8899 15.0501 42.7799 14.2801V14.3001Z" fill="#FF8811"/>
<path d="M34.5599 45.93C33.5899 46.2 32.5799 46.43 31.5299 46.62C18.6299 48.88 9.1099 42.22 6.4999 40.12C5.4599 39.29 5.2999 37.78 6.1299 36.74C6.9599 35.7 8.46991 35.54 9.50991 36.37C11.0899 37.63 19.5199 43.84 30.7099 41.88C40.5699 40.15 46.1999 33.21 47.6899 31.12C48.4599 30.04 49.9599 29.79 51.0399 30.56C52.1199 31.33 52.3699 32.83 51.5999 33.91C49.5599 36.77 44.0399 43.2601 34.5699 45.9201L34.5599 45.93Z" fill="#FF8811"/>
<path d="M7.11133 21.5503C8.02133 20.9603 9.68135 20.0603 11.9413 19.6903C14.3213 19.3003 16.2614 19.6803 17.3214 19.9703" stroke="#F2EFC7" stroke-width="5" stroke-miterlimit="10" stroke-linecap="round"/>
</svg>
