<svg width="104" height="90" viewBox="0 0 104 90" fill="none" xmlns="http://www.w3.org/2000/svg">
<path d="M35.4002 4.98003C36.8402 5.96003 38.1102 7.05001 39.2302 8.27001C40.3402 9.48001 41.3701 10.73 42.2901 11.99C43.2201 13.26 44.0602 14.55 44.8302 15.85C45.5902 17.16 46.3202 18.41 47.0202 19.61C47.9302 21.24 48.8802 22.99 49.8802 24.88C50.8802 26.76 51.7502 28.73 52.4802 30.78C53.2102 32.83 53.7002 34.95 53.9402 37.12C54.1802 39.29 54.0202 41.47 53.4502 43.66C52.8802 45.84 51.7801 47.99 50.1601 50.09C48.5301 52.19 46.2102 54.19 43.2102 56.1C38.7602 58.91 34.7802 60.42 31.2502 60.61C27.7202 60.8 24.5301 60.15 21.6601 58.66C18.8001 57.17 16.2202 55.04 13.9402 52.27C11.6502 49.5 9.50015 46.53 7.48015 43.34C5.46015 40.15 3.69016 36.66 2.43016 33.28C1.17016 29.9 0.620189 26.57 0.770189 23.29C0.930189 20.01 1.91014 16.87 3.72014 13.87C5.53014 10.87 8.46017 8.09002 12.5002 5.53002C14.8302 4.05002 17.0502 3.01002 19.1502 2.40002C21.2502 1.79002 23.2502 1.50001 25.1502 1.52001C27.0502 1.54001 28.8502 1.88002 30.5602 2.53002C32.2602 3.18002 33.8702 4.01002 35.3802 5.00002L35.4002 4.98003ZM33.5602 25.02C32.7102 23.48 31.8502 22.03 30.9902 20.66C30.1302 19.29 29.1602 18.2 28.1102 17.38C27.0602 16.57 25.8902 16.14 24.6102 16.1C23.3302 16.06 21.8602 16.57 20.1902 17.62C18.2102 18.87 16.8501 20.14 16.1001 21.44C15.3501 22.74 15.0302 24.1 15.1502 25.53C15.2702 26.96 15.7502 28.52 16.5902 30.19C17.4302 31.86 18.4602 33.66 19.6802 35.59C21.1002 37.84 22.3602 39.78 23.4602 41.41C24.5602 43.04 25.6802 44.25 26.8402 45.03C27.9902 45.81 29.2402 46.14 30.5802 46.01C31.9202 45.89 33.5702 45.2 35.5502 43.95C37.3502 42.81 38.4002 41.42 38.7102 39.78C39.0202 38.14 38.9201 36.44 38.4101 34.69C37.9001 32.94 37.1502 31.21 36.1702 29.51C35.1902 27.81 34.3202 26.31 33.5702 25.02H33.5602Z" fill="#FF8811"/>
<path d="M90.3806 7.05994C91.1706 8.17994 91.8105 9.32994 92.3005 10.5299C92.7905 11.7299 93.2006 12.9299 93.5306 14.1199C93.8706 15.3099 94.1406 16.49 94.3406 17.67C94.5406 18.84 94.7405 19.97 94.9205 21.04C95.1405 22.49 95.3606 24.0499 95.5806 25.7099C95.8006 27.3699 95.9006 29.0599 95.8806 30.7699C95.8606 32.4799 95.6405 34.1799 95.2205 35.8399C94.8005 37.5099 94.0805 39.0699 93.0605 40.5199C92.0405 41.9699 90.6405 43.2499 88.8705 44.3499C87.0905 45.4499 84.8306 46.2899 82.0906 46.8699C78.0406 47.7199 74.6906 47.7299 72.0306 46.8999C69.3806 46.0699 67.2005 44.7099 65.5005 42.8299C63.8005 40.9399 62.4905 38.6699 61.5605 35.9999C60.6405 33.3299 59.8706 30.55 59.2606 27.64C58.6206 24.61 58.3105 21.6799 58.3105 18.8399C58.3105 15.9999 58.8206 13.3899 59.8406 11.0199C60.8606 8.64993 62.4505 6.60996 64.6105 4.88996C66.7705 3.17996 69.6905 1.92995 73.3705 1.15995C75.5005 0.709947 77.4206 0.549936 79.1306 0.679936C80.8506 0.809936 82.4005 1.14995 83.8005 1.68995C85.2005 2.22995 86.4306 2.96996 87.5106 3.91996C88.5806 4.86996 89.5406 5.91995 90.3806 7.06995V7.05994Z" fill="#E03616"/>
<path d="M65.4203 83.4399C49.7903 88.6499 35.7003 93.3499 26.5903 86.4499C21.3103 82.4499 17.8903 74.7099 16.8603 72.3599C15.4003 69.0499 15.0403 67.0799 15.9503 65.8699C16.9903 64.4999 19.3303 64.5999 22.4403 64.9599C29.1503 65.7399 32.5103 66.1299 36.4403 67.7099C48.2103 72.4399 56.2703 75.6799 63.5603 74.3599C74.4903 72.3899 86.5503 66.2399 95.6403 52.6899C97.0603 50.5699 99.9403 49.9999 102.06 51.4199C104.04 52.7499 103.48 56.7799 103.33 57.8499C101.46 71.1599 69.6103 82.0399 65.4203 83.4399Z" fill="#FF8811"/>
<path d="M69.2002 23.4099C71.2002 22.7899 74.7302 21.9899 79.1202 22.4799C83.7302 22.9999 87.1302 24.7099 88.9502 25.7999" stroke="#F2EFC7" stroke-width="5" stroke-miterlimit="10" stroke-linecap="round"/>
</svg>
