<svg width="76" height="78" viewBox="0 0 76 78" fill="none" xmlns="http://www.w3.org/2000/svg">
<path d="M35.3599 55.0303C36.6499 54.5903 37.9999 54.1903 39.4099 53.8603C56.6699 49.7903 70.07 58.0403 73.76 60.6703C75.23 61.7103 75.57 63.7403 74.53 65.2103C73.49 66.6803 71.4599 67.0203 69.9899 65.9803C67.7599 64.4003 55.88 56.6703 40.9 60.2003C27.71 63.3103 20.6399 73.1403 18.7899 76.0803C17.8299 77.6003 15.8199 78.0603 14.2999 77.1003C12.7799 76.1403 12.32 74.1303 13.28 72.6103C15.82 68.5803 22.7599 59.3803 35.3599 55.0403V55.0303Z" fill="#E03616"/>
<path d="M34.4902 42.5004C34.4602 40.9704 34.3002 39.4604 34.0502 37.9904C33.7902 36.5104 33.5502 35.1404 33.3002 33.8504C33.1002 32.9004 32.8802 31.9004 32.6602 30.8604C32.5002 30.1204 32.3102 29.3804 32.0902 28.6404L32.7902 28.9704L34.9802 24.3604L28.5902 21.3304L17.7902 16.2104L5.53021 10.4004L3.34021 15.0104L9.72015 18.0304C8.11015 18.7104 6.7602 19.5304 5.6502 20.4804C3.7802 22.0904 2.43016 23.9704 1.61016 26.1304C0.780165 28.2804 0.420199 30.6204 0.520199 33.1604C0.620199 35.7004 1.01018 38.3004 1.69018 40.9904C2.33018 43.5704 3.12016 46.0304 4.04016 48.3804C4.96016 50.7304 6.21017 52.7204 7.80017 54.3404C9.38017 55.9704 11.3702 57.1004 13.7702 57.7504C16.1702 58.4004 19.1602 58.2604 22.7402 57.3604C25.1702 56.7504 27.1602 55.9204 28.7102 54.8804C30.2602 53.8404 31.4602 52.6404 32.3202 51.3204C33.1802 49.9804 33.7602 48.5604 34.0802 47.0504C34.3902 45.5504 34.5302 44.0304 34.4902 42.5004ZM23.3102 45.4904C22.7302 46.5204 21.7302 47.2204 20.2802 47.5804C18.6902 47.9804 17.4302 48.0904 16.5102 47.8704C15.5902 47.6604 14.8302 47.1604 14.2302 46.3904C13.6302 45.6204 13.1402 44.5604 12.7702 43.2304C12.4002 41.9004 11.9802 40.3204 11.5302 38.5204C11.1402 36.9604 10.8402 35.5304 10.6502 34.2304C10.4602 32.9304 10.4802 31.7904 10.7102 30.8004C10.9502 29.8204 11.4602 28.9804 12.2402 28.2804C13.0202 27.5804 14.2202 27.0304 15.8202 26.6304C17.1602 26.3004 18.2502 26.2704 19.1002 26.5804C19.9502 26.8904 20.6302 27.4304 21.1602 28.2004C21.6802 28.9804 22.0802 29.9104 22.3502 31.0204C22.6302 32.1304 22.8802 33.2804 23.1102 34.5004C23.3302 35.5304 23.5802 36.7204 23.8702 38.0704C24.1502 39.4304 24.2702 40.7504 24.2302 42.0304C24.1802 43.3104 23.8802 44.4704 23.3202 45.5004L23.3102 45.4904Z" fill="#E03616"/>
<path d="M44.8698 45.0102C45.6898 46.3102 46.7398 47.4402 48.0098 48.3902C49.2798 49.3302 50.8298 50.0301 52.6398 50.4601C54.4498 50.8901 56.6098 50.9802 59.0998 50.6902C62.7698 50.2802 65.6198 49.3602 67.6398 47.9102C69.6698 46.4602 71.1298 44.7001 72.0398 42.6201C72.9598 40.5501 73.4398 38.2502 73.4798 35.7202C73.5098 33.2002 73.3898 30.6202 73.0898 27.9802C72.7898 25.2302 72.2398 22.6601 71.4398 20.2401C70.6398 17.8301 69.4798 15.7602 67.9598 14.0302C66.4298 12.3002 64.5098 11.0102 62.1898 10.1602C60.8198 9.65016 59.2598 9.36016 57.5198 9.29016L62.4398 4.22015L58.7798 0.660156L49.3298 10.4001L41.0098 18.9802L36.0898 24.0602L39.7498 27.6101L40.2898 27.0501C40.3398 27.8201 40.4298 28.5801 40.5398 29.3301C40.6998 30.3801 40.8398 31.3902 40.9898 32.3502C41.2098 33.6402 41.4598 35.0201 41.7398 36.4901C42.0198 37.9601 42.3998 39.4301 42.9098 40.8701C43.4098 42.3201 44.0698 43.7001 44.8898 44.9901L44.8698 45.0102ZM52.3398 36.8502C51.8498 35.6702 51.4998 34.3901 51.2898 33.0201C51.0898 31.6601 50.8998 30.4502 50.7498 29.4102C50.5398 28.1902 50.3698 27.0202 50.2498 25.8802C50.1198 24.7502 50.1698 23.7302 50.3798 22.8202C50.5998 21.9102 51.0498 21.1701 51.7398 20.5801C52.4298 19.9901 53.4498 19.6302 54.8298 19.4702C56.4698 19.2902 57.7798 19.3802 58.7598 19.7602C59.7398 20.1402 60.5098 20.7501 61.0798 21.5801C61.6398 22.4201 62.0598 23.4901 62.3398 24.7701C62.6198 26.0601 62.8298 27.5002 63.0198 29.1002C63.2298 30.9502 63.3898 32.5702 63.5098 33.9502C63.6298 35.3302 63.5398 36.4902 63.2498 37.4202C62.9598 38.3502 62.4198 39.0802 61.6298 39.6002C60.8398 40.1202 59.6298 40.4602 57.9998 40.6402C56.5198 40.8102 55.3298 40.5102 54.4298 39.7502C53.5398 38.9902 52.8498 38.0002 52.3598 36.8202L52.3398 36.8502Z" fill="#E03616"/>
</svg>
