<svg width="47" height="48" viewBox="0 0 47 48" fill="none" xmlns="http://www.w3.org/2000/svg">
<path d="M23.0397 19.9102C23.1097 19.7502 23.1797 19.5901 23.2497 19.4301C23.5297 18.7801 23.7597 18.1202 23.9497 17.4502C24.1897 16.6202 24.4097 15.8401 24.5997 15.1101C24.7397 14.5601 24.8797 13.9901 25.0297 13.4001C25.1797 12.8101 25.2997 12.1901 25.3797 11.5601C25.4697 10.9301 25.5197 10.2801 25.5397 9.61013C25.5497 9.14013 25.5397 8.45015 25.3597 7.57015C25.2697 7.15015 25.1097 6.39014 24.6497 5.49014C24.1397 4.49014 23.5497 3.85016 23.3597 3.67016C22.8097 3.13016 22.1497 2.65016 21.3697 2.23016C20.5897 1.81016 19.6498 1.49016 18.5498 1.26016C16.6498 0.860157 15.0097 0.840139 13.6297 1.21014C12.2497 1.57014 11.0797 2.21014 10.1097 3.12014C9.12969 4.03014 8.34972 5.16015 7.76972 6.50015C7.17972 7.84015 6.71973 9.29013 6.39973 10.8601C6.07973 12.3601 5.8697 13.8301 5.7497 15.2801C5.6597 16.4501 5.68968 17.6202 6.09968 19.0102C6.12968 19.1102 6.16965 19.2102 6.19965 19.3202C6.64965 20.7202 7.16968 22.3102 8.47968 22.8902C9.34968 23.2702 10.0797 22.9901 10.8597 22.6901C11.6597 22.3801 12.4997 22.0402 13.5797 22.3902C15.2897 22.9602 15.3197 24.5102 17.0297 24.6602C17.2197 24.6802 17.4097 24.6802 17.5997 24.6602C18.5797 24.5802 19.4396 24.0901 19.6896 23.9401C20.4896 23.4801 21.1097 22.8302 21.2297 22.7002C21.3897 22.5302 21.5398 22.3601 21.6798 22.1801C22.2198 21.4801 22.6797 20.7202 23.0397 19.9202V19.9102ZM12.3497 18.1602C11.9297 17.8202 11.6597 17.3702 11.5397 16.8202C11.4297 16.2702 11.4397 15.6001 11.5797 14.8101C11.6197 14.5801 11.6697 14.3401 11.7097 14.0901C11.8297 13.4801 11.9597 12.8001 12.1197 12.0501C12.3097 11.1401 12.5197 10.3302 12.7497 9.60015C12.9797 8.88015 13.2797 8.29014 13.6497 7.84014C14.0197 7.39014 14.4997 7.08016 15.0797 6.92016C15.6697 6.76016 16.4197 6.77015 17.3497 6.97015C18.1297 7.13015 18.6998 7.40015 19.0598 7.78015C19.4198 8.15015 19.6497 8.60016 19.7197 9.14016C19.7897 9.67016 19.7597 10.2601 19.6297 10.9001C19.4897 11.5501 19.3297 12.2101 19.1497 12.9001C19.0197 13.4301 18.8697 14.0301 18.6997 14.7101C18.6797 14.7901 18.6597 14.8601 18.6397 14.9401C18.4397 15.7101 18.1697 16.4301 17.8297 17.0901C17.4797 17.7401 17.0297 18.2702 16.4797 18.6602C15.9297 19.0502 15.2297 19.1602 14.3797 18.9802C13.4497 18.7902 12.7797 18.5201 12.3497 18.1801V18.1602Z" fill="#FF8811"/>
<path d="M23.0397 19.9103C23.1097 19.7503 23.1796 19.5902 23.2496 19.4302C23.1296 19.0602 22.9796 18.7002 22.8196 18.3402C22.5096 17.6702 22.0797 17.0602 21.5297 16.5202C20.9797 15.9802 20.3197 15.5002 19.5297 15.0802C19.2697 14.9402 18.9996 14.8203 18.6996 14.7003C18.1096 14.4603 17.4396 14.2602 16.7096 14.1102C14.8096 13.7102 13.1697 13.6903 11.7997 14.0603C11.7697 14.0603 11.7496 14.0802 11.7196 14.0802C10.3796 14.4502 9.22966 15.0703 8.27966 15.9703C7.38966 16.8003 6.66961 17.8103 6.09961 19.0103C6.12961 19.1103 6.16958 19.2103 6.19958 19.3203C6.64958 20.7203 7.16961 22.3103 8.47961 22.8903C9.34961 23.2703 10.0796 22.9903 10.8596 22.6903C10.8796 22.6103 10.9097 22.5402 10.9297 22.4602C11.1597 21.7402 11.4596 21.1503 11.8196 20.6903C12.1896 20.2403 12.6696 19.9302 13.2496 19.7702C13.8296 19.6102 14.5897 19.6203 15.5197 19.8103C16.2997 19.9703 16.8696 20.2402 17.2396 20.6202C17.5996 20.9902 17.8197 21.4503 17.8997 21.9803C17.9697 22.5203 17.9497 23.1003 17.8097 23.7503C17.7497 24.0503 17.6796 24.3503 17.5996 24.6603C18.5796 24.5803 19.4396 24.0903 19.6896 23.9403C20.4896 23.4803 21.1096 22.8303 21.2296 22.7003C21.3896 22.5303 21.5397 22.3602 21.6797 22.1802C22.2197 21.4802 22.6797 20.7203 23.0397 19.9203V19.9103Z" fill="#FF8811"/>
<path d="M42.07 28.2902C42.16 28.1502 42.26 28.0002 42.35 27.8502C42.73 27.2502 43.06 26.6402 43.36 26.0102C43.73 25.2302 44.07 24.5001 44.38 23.8101C44.6 23.2901 44.83 22.7502 45.08 22.1902C45.32 21.6302 45.54 21.0401 45.72 20.4301C45.91 19.8201 46.06 19.1901 46.19 18.5301C46.28 18.0601 46.37 17.3801 46.34 16.4901C46.32 16.0601 46.28 15.2802 45.98 14.3202C45.64 13.2502 45.16 12.5301 45 12.3101C44.55 11.6901 43.97 11.1002 43.26 10.5702C42.56 10.0302 41.68 9.56015 40.63 9.16015C38.82 8.46015 37.2001 8.18016 35.7901 8.32016C34.3701 8.46016 33.12 8.90016 32.01 9.64016C30.9 10.3802 29.95 11.3702 29.16 12.6002C28.36 13.8302 27.68 15.1901 27.11 16.6801C26.56 18.1101 26.11 19.5302 25.76 20.9402C25.48 22.0802 25.32 23.2401 25.5 24.6801C25.52 24.7801 25.5301 24.8901 25.5501 25.0001C25.7701 26.4601 26.03 28.1102 27.23 28.8902C28.03 29.4102 28.8 29.2402 29.61 29.0702C30.45 28.8902 31.33 28.6902 32.34 29.2201C33.94 30.0601 33.72 31.5901 35.38 32.0201C35.57 32.0701 35.76 32.1001 35.95 32.1101C36.93 32.1901 37.86 31.8402 38.13 31.7302C39 31.4102 39.71 30.8602 39.85 30.7602C40.03 30.6202 40.21 30.4702 40.38 30.3202C41.03 29.7102 41.6 29.0401 42.09 28.3101L42.07 28.2902ZM31.8001 24.8401C31.4401 24.4301 31.25 23.9502 31.22 23.3902C31.2 22.8302 31.32 22.1702 31.58 21.4102C31.66 21.1902 31.74 20.9601 31.83 20.7201C32.05 20.1402 32.2901 19.4901 32.5601 18.7801C32.8901 17.9201 33.23 17.1402 33.57 16.4701C33.91 15.8001 34.3 15.2601 34.74 14.8701C35.18 14.4801 35.7001 14.2602 36.3001 14.1902C36.9101 14.1202 37.6501 14.2602 38.5401 14.6002C39.2801 14.8902 39.8 15.2402 40.1 15.6702C40.4 16.0902 40.5501 16.5801 40.5401 17.1201C40.5301 17.6601 40.4001 18.2302 40.1701 18.8502C39.9301 19.4702 39.67 20.1001 39.37 20.7501C39.15 21.2501 38.91 21.8201 38.63 22.4601C38.6 22.5301 38.5701 22.6001 38.5401 22.6801C38.2201 23.4101 37.84 24.0702 37.39 24.6702C36.94 25.2602 36.4101 25.7001 35.8001 26.0001C35.1901 26.3001 34.4801 26.2902 33.6801 25.9802C32.7901 25.6402 32.1701 25.2701 31.8001 24.8601V24.8401Z" fill="#FF8811"/>
<path d="M42.0702 28.29C42.1602 28.15 42.2602 28 42.3502 27.85C42.2902 27.47 42.2002 27.08 42.1002 26.7C41.9002 25.99 41.5702 25.32 41.1202 24.69C40.6702 24.07 40.0902 23.48 39.3802 22.95C39.1502 22.77 38.8902 22.6 38.6202 22.44C38.0702 22.11 37.4502 21.81 36.7502 21.54C34.9402 20.84 33.3303 20.56 31.9103 20.7C31.8803 20.7 31.8502 20.7 31.8302 20.7C30.4502 20.84 29.2102 21.28 28.1302 22.01C27.1202 22.69 26.2402 23.57 25.4902 24.66C25.5102 24.76 25.5203 24.87 25.5403 24.98C25.7603 26.44 26.0202 28.09 27.2202 28.87C28.0202 29.39 28.7902 29.22 29.6002 29.05C29.6302 28.98 29.6702 28.91 29.7002 28.84C30.0402 28.16 30.4302 27.63 30.8702 27.24C31.3102 26.86 31.8303 26.63 32.4303 26.56C33.0303 26.49 33.7803 26.63 34.6603 26.97C35.4003 27.26 35.9302 27.61 36.2202 28.04C36.5202 28.46 36.6603 28.95 36.6503 29.48C36.6403 30.02 36.5203 30.6 36.2803 31.21C36.1703 31.5 36.0603 31.79 35.9303 32.08C36.9103 32.16 37.8402 31.81 38.1102 31.7C38.9802 31.38 39.6902 30.83 39.8302 30.73C40.0102 30.59 40.1902 30.44 40.3602 30.29C41.0102 29.68 41.5802 29.01 42.0702 28.28V28.29Z" fill="#FF8811"/>
<path d="M37.9497 39.7102C37.5597 36.6402 33.8398 35.0402 32.4098 34.4302C26.8498 32.0402 24.7098 35.2202 19.9198 33.4002C14.6898 31.4202 15.0998 26.8202 9.14977 25.1002C7.88977 24.7402 5.06978 23.9302 2.78978 25.4102C0.159779 27.1202 -0.550289 31.1402 0.469711 34.0402C1.52971 37.0502 4.31975 38.4202 6.13975 39.3202C11.0698 41.7502 12.8197 39.5902 17.7297 41.6402C22.3197 43.5502 22.2297 46.0302 26.6297 46.9502C27.8197 47.2002 30.8097 47.7702 33.6897 46.1502C35.6097 45.0702 38.3097 42.5602 37.9397 39.7102H37.9497ZM33.3098 43.8302C31.6798 45.1602 29.7297 44.9802 29.1197 44.9202C27.4597 44.7702 26.5998 44.0602 24.5498 42.8602C22.2998 41.5402 20.4497 40.4602 18.2397 39.7702C16.8697 39.3402 17.1397 39.6202 10.4497 38.4802C8.59969 38.1702 7.87977 38.0302 6.90977 37.5802C5.75977 37.0502 3.67972 36.0902 2.84972 33.8402C2.24972 32.2202 2.26974 29.8102 3.74974 28.3702C5.28974 26.8702 7.64968 27.1502 8.18968 27.2102C13.7297 27.8702 13.7898 34.2102 19.5198 36.0302C23.2098 37.2102 24.4597 34.9802 29.8197 36.6102C31.4697 37.1102 34.7597 38.1102 35.0997 40.2802C35.3797 42.0802 33.4698 43.6802 33.2998 43.8202L33.3098 43.8302Z" fill="#FF8811"/>
</svg>
