<svg width="72" height="80" viewBox="0 0 72 80" fill="none" xmlns="http://www.w3.org/2000/svg">
<path d="M35.2099 12.1498C35.5199 13.3798 35.6799 14.5999 35.6899 15.8099C35.7099 17.0199 35.66 18.1899 35.55 19.3399C35.44 20.4799 35.27 21.5999 35.05 22.6899C34.83 23.7799 34.62 24.8199 34.41 25.8099C34.11 27.1399 33.7699 28.5598 33.3999 30.0798C33.0299 31.5998 32.5399 33.0899 31.9399 34.5699C31.3399 36.0499 30.5699 37.4398 29.6499 38.7398C28.7199 40.0398 27.5699 41.1499 26.1999 42.0699C24.8199 42.9899 23.1799 43.6199 21.2699 43.9699C19.3599 44.3199 17.12 44.2799 14.55 43.8499C10.75 43.2199 7.83987 42.0899 5.82987 40.4699C3.80987 38.8499 2.38997 36.9399 1.54997 34.7299C0.709967 32.5199 0.349869 30.0999 0.449869 27.4799C0.549869 24.8599 0.829947 22.1798 1.27995 19.4598C1.74995 16.6198 2.46997 13.9699 3.42997 11.5099C4.38997 9.04986 5.71994 6.95985 7.39994 5.24985C9.07994 3.53985 11.1499 2.30984 13.6099 1.54984C16.0599 0.799842 19.0199 0.709853 22.4699 1.27985C24.4599 1.60985 26.1799 2.12986 27.6299 2.81986C29.0699 3.50986 30.3099 4.32984 31.3299 5.26984C32.3599 6.20984 33.17 7.26985 33.79 8.45985C34.4 9.64985 34.8699 10.8799 35.2099 12.1599V12.1498ZM24.43 22.1798C24.72 20.9298 24.9599 19.7199 25.1499 18.5399C25.3499 17.3699 25.35 16.3099 25.18 15.3499C25 14.3899 24.5799 13.5899 23.8899 12.9499C23.2099 12.2999 22.1599 11.8599 20.7399 11.6299C19.0499 11.3499 17.6899 11.3799 16.6399 11.7199C15.5999 12.0599 14.7599 12.6498 14.1299 13.4898C13.4999 14.3298 12.9999 15.4099 12.6399 16.7299C12.2799 18.0499 11.9699 19.5399 11.6899 21.1899C11.3699 23.1099 11.11 24.7798 10.91 26.2098C10.71 27.6398 10.7399 28.8398 10.9899 29.8298C11.2399 30.8198 11.76 31.6099 12.55 32.1899C13.34 32.7799 14.5799 33.2098 16.2699 33.4898C17.7999 33.7498 19.0599 33.4999 20.0299 32.7599C20.9999 32.0199 21.7799 31.0398 22.3499 29.8298C22.9299 28.6198 23.3599 27.3199 23.6499 25.9099C23.9399 24.4999 24.2 23.2599 24.42 22.1899L24.43 22.1798Z" fill="#FF8811"/>
<path d="M71.05 25.74C71.24 27 71.2801 28.23 71.1801 29.43C71.0801 30.63 70.92 31.8 70.7 32.93C70.48 34.06 70.21 35.15 69.88 36.21C69.56 37.27 69.24 38.29 68.95 39.25C68.52 40.55 68.05 41.93 67.54 43.4C67.03 44.87 66.4 46.32 65.66 47.73C64.92 49.14 64.03 50.45 62.98 51.66C61.93 52.87 60.68 53.86 59.22 54.64C57.76 55.42 56.07 55.89 54.13 56.06C52.19 56.23 49.96 55.97 47.45 55.3C43.73 54.3 40.94 52.9 39.09 51.1C37.24 49.3 36 47.25 35.38 44.97C34.76 42.69 34.63 40.25 34.98 37.65C35.33 35.05 35.87 32.41 36.58 29.74C37.32 26.96 38.29 24.39 39.49 22.03C40.68 19.67 42.2 17.72 44.04 16.18C45.88 14.64 48.0599 13.61 50.5699 13.1C53.0799 12.58 56.03 12.78 59.41 13.68C61.36 14.2 63.02 14.88 64.39 15.71C65.76 16.54 66.91 17.47 67.84 18.51C68.77 19.55 69.48 20.68 69.98 21.92C70.47 23.16 70.83 24.43 71.04 25.74H71.05ZM59.35 34.69C59.76 33.47 60.11 32.29 60.42 31.14C60.73 29.99 60.84 28.94 60.76 27.97C60.68 27 60.33 26.16 59.71 25.45C59.09 24.74 58.09 24.2 56.7 23.83C55.05 23.39 53.68 23.29 52.61 23.52C51.54 23.76 50.6499 24.26 49.9399 25.04C49.2299 25.82 48.63 26.84 48.15 28.12C47.67 29.4 47.21 30.85 46.78 32.46C46.28 34.34 45.86 35.98 45.52 37.38C45.18 38.78 45.09 39.98 45.25 40.99C45.4 42 45.84 42.83 46.58 43.49C47.31 44.15 48.5 44.7 50.15 45.14C51.65 45.54 52.92 45.42 53.96 44.77C55 44.12 55.86 43.23 56.55 42.08C57.24 40.94 57.8 39.68 58.23 38.3C58.66 36.93 59.03 35.72 59.35 34.67V34.69Z" fill="#E03616"/>
<path d="M36.5802 65.2801C36.8102 64.5201 37.0003 63.7501 37.1603 62.9501C37.3203 62.1501 37.4302 61.3301 37.5002 60.4701C37.5802 59.6201 37.5403 58.7501 37.4103 57.8501C37.2603 56.9301 37.0103 56.0301 36.6603 55.1401C36.3103 54.2701 35.8002 53.4601 35.1402 52.7301C34.4802 52.0001 33.6702 51.33 32.7002 50.74C31.7302 50.16 30.5503 49.67 29.1703 49.31C26.7803 48.67 24.6902 48.53 22.9002 48.9C21.1202 49.27 19.5702 50 18.2702 51.08C16.9602 52.18 15.8903 53.5601 15.0503 55.2201C14.2003 56.8901 13.5102 58.72 12.9902 60.68C12.4902 62.57 12.1102 64.4401 11.8502 66.2901C11.6002 68.1301 11.7002 69.8601 12.1402 71.4801C12.5802 73.1001 13.4602 74.5401 14.7602 75.8201C16.0702 77.1001 18.0502 78.0901 20.6902 78.7901C22.4802 79.2701 24.0503 79.45 25.4203 79.33C26.7903 79.21 28.0003 78.88 29.0303 78.33C30.0603 77.78 30.9502 77.07 31.6902 76.21C32.4302 75.35 33.0602 74.4301 33.5902 73.4201C34.1202 72.4201 34.5603 71.4001 34.9303 70.3501C35.2903 69.3101 35.6203 68.33 35.9303 67.4C36.1303 66.72 36.3602 66.0001 36.5902 65.2501L36.5802 65.2801ZM29.9802 67.33C29.7802 67.88 29.5502 68.4101 29.2702 68.9501C29.0002 69.4801 28.6602 69.9701 28.2702 70.4201C27.8802 70.8701 27.4102 71.2401 26.8602 71.5301C26.3202 71.8201 25.6802 72.0001 24.9602 72.0701C24.2302 72.1301 23.4002 72.0301 22.4602 71.7801C21.0702 71.4101 20.0202 70.89 19.3302 70.21C18.6402 69.53 18.1702 68.7701 17.9402 67.9201C17.7102 67.0701 17.6603 66.15 17.7903 65.18C17.9303 64.21 18.1202 63.2201 18.3902 62.2301C18.6602 61.1901 19.0302 60.2301 19.4802 59.3501C19.9202 58.4701 20.5003 57.7401 21.1803 57.1601C21.8603 56.5901 22.6802 56.2001 23.6202 56.0001C24.5602 55.8101 25.6703 55.8801 26.9303 56.2201C27.6603 56.4201 28.2903 56.6701 28.8003 56.9801C29.3103 57.2901 29.7402 57.63 30.0902 58.02C30.4402 58.4 30.7002 58.83 30.8902 59.3C31.0702 59.76 31.2103 60.2401 31.2903 60.7201C31.3603 61.1901 31.3802 61.66 31.3402 62.11C31.3002 62.56 31.2402 63.0001 31.1502 63.4101C31.0702 63.8301 30.9702 64.2501 30.8402 64.6401C30.7202 65.0401 30.6102 65.4201 30.5002 65.7801C30.3402 66.2601 30.1602 66.78 29.9702 67.33H29.9802Z" fill="#FF8811"/>
</svg>
