<svg width="62" height="66" viewBox="0 0 62 66" fill="none" xmlns="http://www.w3.org/2000/svg">
<path d="M34.6804 11.4799C34.7804 12.4999 34.7603 13.4898 34.6303 14.4598C34.5003 15.4198 34.3203 16.3599 34.0903 17.2599C33.8603 18.1599 33.6004 19.0298 33.2904 19.8698C32.9804 20.7098 32.6904 21.5198 32.4104 22.2798C32.0104 23.3098 31.5703 24.3999 31.1003 25.5699C30.6203 26.7399 30.0603 27.8699 29.4003 28.9799C28.7403 30.0899 27.9703 31.1099 27.0703 32.0399C26.1703 32.9699 25.1204 33.7198 23.9204 34.2798C22.7104 34.8498 21.3303 35.1498 19.7603 35.2098C18.1903 35.2598 16.4104 34.9598 14.4104 34.3098C11.4504 33.3498 9.27029 32.0999 7.85029 30.5699C6.43029 29.0399 5.52031 27.3399 5.12031 25.4799C4.72031 23.6199 4.72031 21.6398 5.12031 19.5598C5.52031 17.4798 6.06032 15.3799 6.75032 13.2599C7.47032 11.0499 8.36036 9.01986 9.42036 7.16986C10.4804 5.31986 11.7903 3.80984 13.3403 2.64984C14.8903 1.48984 16.6903 0.74985 18.7403 0.43985C20.7903 0.12985 23.1603 0.409856 25.8403 1.28986C27.3903 1.78986 28.7003 2.40986 29.7703 3.13986C30.8403 3.86986 31.7304 4.66986 32.4304 5.53986C33.1304 6.40986 33.6603 7.35985 34.0103 8.37985C34.3503 9.39985 34.5903 10.4398 34.7003 11.4998L34.6804 11.4799ZM24.8703 18.1999C25.2503 17.2299 25.5903 16.2999 25.8803 15.3899C26.1703 14.4799 26.3103 13.6299 26.2803 12.8499C26.2503 12.0699 26.0104 11.3798 25.5404 10.7798C25.0704 10.1798 24.2904 9.69985 23.1804 9.34985C21.8704 8.91985 20.7703 8.77984 19.9003 8.92984C19.0303 9.07984 18.2904 9.44986 17.6804 10.0399C17.0704 10.6399 16.5503 11.4399 16.1103 12.4499C15.6703 13.4599 15.2403 14.6099 14.8203 15.8899C14.3303 17.3799 13.9303 18.6898 13.6003 19.7998C13.2703 20.9098 13.1503 21.8799 13.2303 22.6999C13.3103 23.5199 13.6303 24.2098 14.1903 24.7698C14.7503 25.3298 15.6903 25.8298 17.0003 26.2498C18.1903 26.6398 19.2203 26.5898 20.0903 26.1098C20.9503 25.6298 21.6904 24.9498 22.2904 24.0498C22.8904 23.1598 23.4004 22.1699 23.8004 21.0699C24.2004 19.9799 24.5603 19.0199 24.8603 18.1999H24.8703Z" fill="#E03616"/>
<path d="M61.6598 26.6101C61.6598 27.6401 61.5497 28.6201 61.3197 29.5701C61.0997 30.5201 60.8298 31.4301 60.5198 32.3001C60.2098 33.1701 59.8597 34.0201 59.4697 34.8201C59.0797 35.6301 58.7097 36.4001 58.3597 37.1401C57.8597 38.1201 57.3197 39.1701 56.7397 40.2801C56.1497 41.3901 55.4797 42.4701 54.7197 43.5101C53.9597 44.5501 53.0897 45.4901 52.1097 46.3301C51.1297 47.1701 50.0098 47.8101 48.7498 48.2601C47.4898 48.7101 46.0798 48.8801 44.5198 48.7801C42.9498 48.6801 41.2098 48.2101 39.2798 47.3701C36.4298 46.1301 34.3697 44.6801 33.1097 43.0201C31.8497 41.3601 31.1098 39.5801 30.8798 37.6901C30.6598 35.8001 30.8497 33.8301 31.4397 31.8001C32.0297 29.7701 32.7798 27.7301 33.6598 25.6801C34.5898 23.5501 35.6698 21.6201 36.8998 19.8801C38.1398 18.1401 39.5797 16.7701 41.2297 15.7601C42.8797 14.7501 44.7398 14.1901 46.8098 14.0801C48.8798 13.9701 51.2098 14.4801 53.7998 15.6001C55.2998 16.2501 56.5398 16.9901 57.5398 17.8201C58.5298 18.6501 59.3397 19.5301 59.9597 20.4601C60.5797 21.4001 61.0098 22.3901 61.2598 23.4401C61.5098 24.4901 61.6398 25.5501 61.6498 26.6101H61.6598ZM51.2498 32.3501C51.7198 31.4201 52.1498 30.5201 52.5298 29.6501C52.9098 28.7801 53.1298 27.9401 53.1798 27.1601C53.2298 26.3801 53.0498 25.6701 52.6398 25.0301C52.2298 24.3901 51.4998 23.8401 50.4298 23.3801C49.1598 22.8301 48.0897 22.5801 47.2097 22.6501C46.3297 22.7101 45.5598 23.0101 44.8998 23.5401C44.2398 24.0701 43.6397 24.8201 43.0997 25.7901C42.5597 26.7501 42.0197 27.8501 41.4797 29.0901C40.8497 30.5301 40.3198 31.7901 39.8898 32.8701C39.4498 33.9501 39.2397 34.9001 39.2397 35.7201C39.2397 36.5401 39.4898 37.2601 39.9998 37.8701C40.4998 38.4801 41.3898 39.0601 42.6598 39.6201C43.8098 40.1201 44.8398 40.1801 45.7498 39.7801C46.6598 39.3901 47.4498 38.7701 48.1398 37.9401C48.8298 37.1101 49.4198 36.1701 49.9298 35.1201C50.4398 34.0701 50.8798 33.1501 51.2598 32.3601L51.2498 32.3501Z" fill="#FF8811"/>
<path d="M17.9402 63.9696C2.03018 58.0496 -0.0997728 38.2996 0.610227 33.9096C0.740227 33.0996 1.10026 30.8896 2.39026 30.4796C3.83026 30.0196 5.37019 30.8196 5.82019 32.2596C6.51019 34.4496 10.5803 45.6396 22.4103 50.8496C32.8303 55.4396 42.5403 52.4196 45.2703 51.3896C46.6803 50.8496 48.2603 51.5596 48.8003 52.9796C49.2803 54.2396 47.7802 55.8896 47.2102 56.5096C44.8802 59.0596 32.0602 69.2296 17.9402 63.9796V63.9696Z" fill="#FF8811"/>
</svg>
