<svg width="129" height="102" viewBox="0 0 129 102" fill="none" xmlns="http://www.w3.org/2000/svg">
<path d="M9.8999 3.96979V14.2498H18.4099V2.25977H28.25L28.3601 42.8298H18.52L18.46 24.1998H9.88989V42.4398H0V3.96979H9.88989H9.8999Z" fill="#F2EFC7"/>
<path d="M42.1704 11.4802C42.2404 12.9502 42.3006 14.3102 42.3306 15.5402C42.3606 16.7702 42.4205 18.2102 42.4905 19.8502C42.5705 21.4902 42.6304 23.2402 42.6804 25.1002C42.7304 26.9602 42.7806 28.8703 42.8506 30.8203C42.9206 32.7703 42.9805 34.6703 43.0205 36.5103C43.0405 37.2503 43.2404 37.8803 43.6204 38.4003C44.0004 38.9303 44.5006 39.3102 45.1006 39.5502C45.4006 39.6902 45.7306 39.8002 46.0806 39.8802C46.4306 39.9602 46.8205 40.0002 47.2205 39.9902C47.5905 40.0202 47.9606 39.9903 48.3306 39.9103C48.7006 39.8303 49.0704 39.7302 49.4404 39.6102C50.1004 39.3402 50.6604 38.9103 51.1304 38.3203C51.6004 37.7403 51.8804 36.9802 51.9604 36.0602C52.1104 33.3302 52.1205 30.3202 51.9805 27.0502C51.8405 23.7702 51.6905 20.5103 51.5405 17.2703C51.4805 16.2403 51.4204 15.2302 51.3804 14.2302C51.3404 13.2402 51.2805 12.2103 51.2205 11.1403L61.1106 10.7803C61.1706 11.6303 61.2205 12.5702 61.2605 13.6002C61.3005 14.6302 61.3604 15.6802 61.4204 16.7502C61.5804 20.2102 61.7404 23.6702 61.9004 27.1302C62.0604 30.5902 62.0305 33.7603 61.8105 36.6403C61.6305 39.8203 60.7206 42.4102 59.0806 44.4202C57.4306 46.4302 55.4406 47.8902 53.1106 48.8002C51.1406 49.5902 49.1406 49.9503 47.1106 49.8903C46.0806 49.8803 45.0605 49.7803 44.0605 49.5803C43.0605 49.3803 42.0904 49.0903 41.1604 48.7103C38.9204 47.7003 37.0405 46.2003 35.5205 44.2103C33.9905 42.2203 33.1904 39.7302 33.1204 36.7502C33.1004 36.0102 33.0705 34.8802 33.0305 33.3502C32.9905 31.8202 32.9404 30.1402 32.8704 28.2902C32.8104 26.4502 32.7404 24.5502 32.6704 22.6002C32.6004 20.6502 32.5405 18.8703 32.4805 17.2703C32.4205 15.6703 32.3705 13.8403 32.3105 11.7703L42.1404 11.4703L42.1704 11.4802Z" fill="#F2EFC7"/>
<path d="M84.0095 18.33L85.0295 0L94.9094 0.5L92.8794 38.98L82.9995 38.42L75.0396 22.49L74.4895 40.17L64.5996 39.89L65.7495 1.16003L75.6394 1.44L84.0095 18.32V18.33Z" fill="#F2EFC7"/>
<path d="M119.11 26.23C119.08 25.49 119.02 24.85 118.92 24.3C118.82 23.75 118.67 23.16 118.46 22.52C118.25 21.88 117.95 21.3 117.56 20.79C117.17 20.27 116.69 19.85 116.13 19.52C115.56 19.19 114.86 19.06 114.01 19.13C112.36 19.27 111.06 19.56 110.12 20C109.18 20.44 108.5 21.04 108.09 21.79C107.54 22.77 107.19 24 107.05 25.48C106.91 26.96 106.91 28.64 107.05 30.51C107.18 32.05 107.37 33.6 107.59 35.16C107.82 36.72 108.25 38.06 108.88 39.17C109.28 39.89 109.88 40.48 110.69 40.92C111.5 41.37 112.6 41.53 114 41.4C115.21 41.28 116.16 40.99 116.84 40.54C117.52 40.09 118.02 39.51 118.32 38.79L111.73 38.66L111.95 28.8L118.93 28.97L126.02 29.19H128.9C128.88 29.7 128.88 30.23 128.88 30.76C128.88 31.29 128.9 31.86 128.92 32.45C128.97 34.7 128.78 36.9 128.35 39.06C127.92 41.22 127.16 43.15 126.06 44.88C124.97 46.6 123.5 48.03 121.67 49.17C119.84 50.31 117.52 50.97 114.72 51.16C112.85 51.31 111.15 51.23 109.65 50.92C108.15 50.61 106.8 50.14 105.62 49.5C104.44 48.86 103.4 48.07 102.5 47.11C101.6 46.15 100.83 45.09 100.2 43.94C99.1 41.99 98.3501 39.9 97.9701 37.67C97.5901 35.44 97.32 33.29 97.17 31.23C96.99 28.47 97.0502 25.9 97.3602 23.51C97.6702 21.12 98.3701 18.94 99.4701 16.98C100.74 14.75 102.47 12.98 104.66 11.66C106.85 10.34 109.73 9.54999 113.29 9.29999C115.86 9.12999 118.05 9.41999 119.85 10.18C121.65 10.94 123.13 11.93 124.28 13.16C125.43 14.39 126.33 15.74 126.96 17.23C127.59 18.72 128.06 20.11 128.37 21.41C128.68 22.71 128.89 24.24 128.99 26L119.1 26.22L119.11 26.23Z" fill="#F2EFC7"/>
<path d="M14.6797 77.54L23.5798 84.41L18.6897 90.67L8.10986 82.5V89.62L0.189697 89.59C0.189697 84.22 0.189697 78.91 0.189697 73.66C0.189697 68.41 0.179648 63.11 0.139648 57.77C1.99965 57.77 3.91967 57.77 5.90967 57.8C7.89967 57.82 9.79963 58.03 11.6196 58.42C13.4396 58.82 15.0698 59.49 16.5098 60.43C17.9498 61.38 19.0796 62.76 19.8696 64.58C20.3896 65.84 20.6198 67.09 20.5698 68.34C20.5198 69.59 20.2297 70.79 19.7297 71.92C19.2197 73.05 18.5297 74.1 17.6597 75.06C16.7897 76.02 15.7997 76.84 14.6797 77.51V77.54ZM8.14966 65.87V71.75C8.81966 71.59 9.46984 71.36 10.0898 71.04C10.6998 70.72 11.2197 70.36 11.6497 69.96C12.0797 69.56 12.3698 69.14 12.5298 68.7C12.6898 68.26 12.6597 67.86 12.4397 67.48C12.2197 67.1 11.7598 66.77 11.0798 66.49C10.3998 66.2 9.41967 66 8.15967 65.87H8.14966Z" fill="#F2EFC7"/>
<path d="M48.9001 57.3101C49.2801 58.1901 49.5602 59.0901 49.7202 59.9901C49.8802 60.8901 49.9903 61.7701 50.0503 62.6401C50.1103 63.5101 50.1203 64.3601 50.0903 65.2101C50.0603 66.0501 50.0302 66.8501 50.0002 67.6201C49.9402 68.6501 49.8703 69.7601 49.7803 70.9401C49.6903 72.1201 49.5102 73.3 49.2502 74.48C48.9802 75.66 48.5903 76.8001 48.0603 77.8901C47.5303 78.9801 46.8101 79.9501 45.8901 80.8101C44.9801 81.6701 43.8302 82.3401 42.4402 82.8401C41.0502 83.3401 39.3701 83.5901 37.4001 83.5901C34.4801 83.5901 32.1702 83.1101 30.4602 82.1501C28.7502 81.1901 27.4503 79.9401 26.5503 78.3901C25.6503 76.8401 25.0803 75.08 24.8303 73.11C24.5803 71.14 24.4502 69.1001 24.4502 67.0101C24.4502 64.9201 24.6603 62.76 25.0703 60.8C25.4803 58.84 26.2103 57.1101 27.2603 55.6301C28.3103 54.1401 29.7002 52.9601 31.4402 52.0901C33.1802 51.2201 35.3803 50.79 38.0303 50.79C39.5603 50.79 40.9103 50.96 42.0803 51.3C43.2403 51.64 44.2701 52.1 45.1501 52.67C46.0301 53.24 46.7801 53.9401 47.3801 54.7501C47.9801 55.5601 48.4902 56.4201 48.9102 57.3401L48.9001 57.3101ZM42.0903 66.1601C42.1503 65.1901 42.1802 64.25 42.1802 63.35C42.1802 62.45 42.0503 61.6501 41.8003 60.9601C41.5503 60.2701 41.1303 59.7201 40.5403 59.3201C39.9503 58.9201 39.1103 58.7201 38.0203 58.7201C36.7203 58.7201 35.7102 58.91 34.9702 59.3C34.2302 59.68 33.6803 60.2301 33.3103 60.9401C32.9403 61.6501 32.7103 62.52 32.6003 63.55C32.5003 64.58 32.4502 65.7301 32.4502 67.0001C32.4502 68.4701 32.4602 69.76 32.4902 70.85C32.5202 71.94 32.6902 72.84 33.0002 73.55C33.3102 74.26 33.8002 74.7801 34.4602 75.1201C35.1202 75.4601 36.1001 75.6301 37.4001 75.6301C38.5801 75.6301 39.4901 75.29 40.1201 74.61C40.7501 73.93 41.2102 73.1101 41.4902 72.1301C41.7702 71.1601 41.9302 70.1301 41.9802 69.0301C42.0202 67.9401 42.0603 66.9801 42.0903 66.1601Z" fill="#F2EFC7"/>
<path d="M77.3894 63.0101C77.6894 63.9301 77.8695 64.8401 77.9495 65.7501C78.0195 66.6601 78.0496 67.5501 78.0296 68.4201C77.9996 69.2901 77.9396 70.1401 77.8296 70.9801C77.7196 71.8101 77.6095 72.6101 77.5095 73.3701C77.3495 74.3901 77.1695 75.4901 76.9695 76.6501C76.7695 77.8201 76.4796 78.9701 76.0996 80.1201C75.7196 81.2701 75.2196 82.3601 74.5796 83.4001C73.9496 84.4401 73.1294 85.3301 72.1394 86.1001C71.1494 86.8601 69.9395 87.4301 68.5095 87.7901C67.0795 88.1601 65.3895 88.2401 63.4195 88.0501C60.5095 87.7701 58.2594 87.0701 56.6494 85.9501C55.0394 84.8301 53.8594 83.4601 53.1194 81.8301C52.3694 80.2001 51.9694 78.3901 51.9094 76.4001C51.8494 74.4101 51.9194 72.3701 52.1194 70.2901C52.3294 68.1201 52.7296 66.0802 53.3296 64.1602C53.9296 62.2502 54.8195 60.6002 56.0095 59.2202C57.1895 57.8402 58.6895 56.8001 60.5095 56.1001C62.3195 55.4001 64.5495 55.1801 67.1895 55.4301C68.7195 55.5801 70.0395 55.8801 71.1695 56.3301C72.2995 56.7801 73.2696 57.3301 74.0996 57.9901C74.9296 58.6501 75.5994 59.4101 76.1194 60.2701C76.6394 61.1401 77.0694 62.0401 77.3894 62.9901V63.0101ZM69.7595 71.1602C69.9095 70.2002 70.0294 69.2701 70.1194 68.3701C70.2094 67.4701 70.1595 66.6701 69.9795 65.9601C69.7995 65.2501 69.4294 64.6601 68.8794 64.2101C68.3294 63.7601 67.5095 63.4801 66.4295 63.3701C65.1395 63.2501 64.1096 63.3401 63.3396 63.6501C62.5696 63.9601 61.9696 64.4501 61.5296 65.1201C61.0896 65.7901 60.7796 66.6301 60.5796 67.6501C60.3796 68.6701 60.2196 69.8101 60.0896 71.0701C59.9496 72.5401 59.8395 73.8201 59.7595 74.9001C59.6795 75.9901 59.7595 76.9001 60.0095 77.6301C60.2495 78.3601 60.6796 78.9301 61.3096 79.3301C61.9396 79.7301 62.8995 79.9901 64.1895 80.1201C65.3595 80.2301 66.2995 79.9801 66.9995 79.3701C67.6995 78.7601 68.2296 77.9801 68.5996 77.0401C68.9696 76.1001 69.2294 75.0901 69.3794 74.0101C69.5294 72.9301 69.6596 71.9802 69.7696 71.1602H69.7595Z" fill="#F2EFC7"/>
<path d="M91.8301 71.3801L99.8401 50.8701L107.22 53.7701L95.5601 83.6201L88.8799 83.7802L75.9199 55.6901L83.1299 52.3001L91.8201 71.3801H91.8301Z" fill="#F2EFC7"/>
<path d="M128.939 56.06L128.699 64.02L116.99 63.6L116.889 67.49L129 67.88L128.76 75.84L116.689 75.45L116.629 79.61L128.74 80L128.459 87.91C125.069 87.77 121.739 87.66 118.469 87.6C115.199 87.53 111.88 87.46 108.52 87.38L109.26 55.5C112.53 55.58 115.8 55.67 119.07 55.76C122.34 55.86 125.629 55.96 128.929 56.07L128.939 56.06Z" fill="#F2EFC7"/>
<path d="M52.1702 101.32C51.0902 101.32 49.9904 101.27 48.8504 101.15C34.9304 99.7502 27.0603 90.1402 24.9803 87.2302C24.1503 86.0802 24.4203 84.4702 25.5703 83.6502C26.7203 82.8202 28.3302 83.0902 29.1502 84.2402C30.4102 86.0002 37.2804 94.8202 49.3604 96.0302C60.0004 97.1002 67.8002 91.5902 69.9402 89.8802C71.0502 88.9902 72.6603 89.1702 73.5503 90.2702C74.4403 91.3802 74.2602 92.9902 73.1602 93.8802C70.2302 96.2302 62.6902 101.31 52.1702 101.31V101.32Z" fill="#F2EFC7"/>
</svg>
