<svg width="271" height="257" viewBox="0 0 271 257" fill="none" xmlns="http://www.w3.org/2000/svg">
<path d="M123.55 34.0102C125.48 38.4802 126.86 42.9802 127.68 47.5202C128.5 52.0602 129.06 56.5302 129.36 60.9202C129.66 65.3102 129.73 69.6302 129.58 73.8702C129.43 78.1102 129.28 82.1702 129.13 86.0402C128.83 91.2502 128.46 96.8402 128.01 102.79C127.56 108.75 126.67 114.7 125.33 120.66C123.99 126.62 121.98 132.35 119.3 137.86C116.62 143.37 112.97 148.28 108.36 152.6C103.74 156.92 97.9402 160.34 90.9402 162.87C83.9402 165.4 75.4502 166.67 65.4802 166.67C50.7402 166.67 39.0502 164.25 30.4102 159.41C21.7702 154.57 15.1801 148.24 10.6401 140.43C6.10014 132.61 3.20018 123.72 1.93018 113.74C0.670176 103.77 0.0302734 93.4902 0.0302734 82.9202C0.0302734 72.3502 1.07016 61.4402 3.16016 51.5402C5.24016 41.6402 8.93021 32.9302 14.2202 25.4102C19.5002 17.8902 26.5403 11.9402 35.3303 7.54019C44.1103 3.15019 55.2104 0.950195 68.6104 0.950195C76.3504 0.950195 83.1603 1.81017 89.0503 3.52017C94.9303 5.23017 100.11 7.54019 104.57 10.4402C109.04 13.3402 112.8 16.8402 115.85 20.9402C118.9 25.0402 121.47 29.3902 123.56 34.0102H123.55ZM89.1501 78.6802C89.4501 73.7702 89.6003 69.0402 89.6003 64.5002C89.6003 59.9602 88.9702 55.9402 87.7002 52.4402C86.4302 48.9402 84.3103 46.1902 81.3303 44.1802C78.3503 42.1702 74.1103 41.1602 68.6003 41.1602C62.0503 41.1602 56.9102 42.1302 53.1902 44.0602C49.4702 46.0002 46.6703 48.7502 44.8103 52.3202C42.9503 55.8902 41.7602 60.2902 41.2402 65.5002C40.7202 70.7102 40.4602 76.5202 40.4602 82.9202C40.4602 90.3702 40.5302 96.8402 40.6802 102.35C40.8302 107.86 41.6802 112.4 43.2502 115.97C44.8102 119.54 47.2704 122.19 50.6204 123.9C53.9704 125.61 58.9202 126.47 65.4702 126.47C71.4202 126.47 76.0002 124.76 79.2102 121.33C82.4102 117.91 84.7201 113.74 86.1301 108.82C87.5401 103.91 88.3603 98.7002 88.5903 93.1902C88.8103 87.6802 89.0001 82.8402 89.1501 78.6702V78.6802Z" fill="#FF8811"/>
<path d="M267.42 62.7704C268.91 67.4004 269.85 72.0204 270.23 76.6204C270.61 81.2204 270.73 85.7204 270.61 90.1204C270.48 94.5204 270.14 98.8304 269.59 103.04C269.03 107.25 268.49 111.27 267.98 115.11C267.18 120.27 266.28 125.79 265.26 131.68C264.24 137.57 262.78 143.41 260.88 149.21C258.97 155.01 256.42 160.53 253.22 165.75C250.02 170.98 245.92 175.52 240.91 179.37C235.9 183.23 229.79 186.08 222.58 187.92C215.37 189.77 206.8 190.21 196.87 189.25C182.2 187.83 170.79 184.3 162.66 178.66C154.53 173.02 148.58 166.08 144.81 157.86C141.04 149.64 139.01 140.51 138.7 130.46C138.4 120.41 138.76 110.12 139.77 99.6004C140.83 88.6304 142.87 78.3204 145.9 68.6704C148.92 59.0204 153.43 50.7004 159.42 43.7204C165.4 36.7504 172.98 31.4904 182.14 27.9604C191.31 24.4304 202.56 23.3104 215.9 24.6004C223.61 25.3404 230.3 26.8504 235.99 29.1204C241.68 31.3904 246.61 34.1804 250.78 37.5004C254.95 40.8204 258.35 44.6604 261 49.0304C263.64 53.4004 265.78 57.9804 267.41 62.7804L267.42 62.7704ZM228.89 103.93C229.66 99.0704 230.26 94.3804 230.7 89.8604C231.14 85.3404 230.89 81.2804 229.97 77.6704C229.04 74.0704 227.2 71.1204 224.43 68.8304C221.66 66.5404 217.53 65.1304 212.05 64.6104C205.53 63.9804 200.32 64.4504 196.43 66.0204C192.54 67.5904 189.49 70.0604 187.3 73.4404C185.1 76.8204 183.49 81.0804 182.48 86.2104C181.46 91.3504 180.64 97.1004 180.03 103.48C179.31 110.89 178.76 117.35 178.39 122.84C178.01 128.34 178.42 132.94 179.64 136.65C180.85 140.36 183.04 143.23 186.22 145.25C189.39 147.28 194.23 148.6 200.76 149.23C206.69 149.8 211.41 148.54 214.93 145.44C218.44 142.34 221.14 138.41 223.02 133.66C224.9 128.9 226.22 123.8 226.97 118.33C227.72 112.87 228.37 108.07 228.92 103.93H228.89Z" fill="#FF8811"/>
<path d="M140.03 256.26C134.59 256.26 129.01 255.99 123.26 255.41C52.9697 248.32 13.2196 199.82 2.7096 185.13C-1.4604 179.3 -0.110396 171.2 5.7096 167.03C11.5396 162.86 19.6397 164.21 23.8097 170.03C30.1497 178.9 64.8797 223.44 125.86 229.59C179.59 235.01 218.98 207.17 229.77 198.51C235.35 194.03 243.52 194.92 248.01 200.5C252.5 206.09 251.6 214.25 246.02 218.74C231.22 230.62 193.12 256.25 140.03 256.25V256.26Z" fill="#FF8811"/>
</svg>
