<svg width="409" height="119" viewBox="0 0 409 119" fill="none" xmlns="http://www.w3.org/2000/svg">
<path d="M54.03 115.65C33.21 115.65 21.5801 95.3301 21.5801 65.3701C21.5801 32.4801 34.97 15.23 54.03 15.23C73.09 15.23 82.21 33.53 85.01 50.22H104.99C98.82 28.15 78.99 13.3501 54.04 13.3501C23.55 13.3501 0.629883 34.9999 0.629883 65.3799C0.629883 95.7599 23.55 117.62 54.04 117.62C84.53 117.62 100.3 98.6201 104.99 80.6101H85.01C81.93 100.23 71.69 115.67 54.03 115.67V115.65ZM117.64 0.449951V116.2H137.54V0.449951H117.64ZM183.21 37.4299C165.7 37.4299 152.26 48.2301 152.26 63.8301H172.4C172.26 62.0601 172.12 59.87 172.12 57.75C172.12 43.69 177.16 38.95 183.11 38.95C189.06 38.95 194.1 43.26 194.1 57.04V72.73H172.26C158 72.73 147.01 82.06 147.01 95.98C147.01 108.7 156.94 118.45 172.26 118.45C182.83 118.45 190.56 113.72 194.1 105.59V116.2H214V65.7C213.93 48.22 200.71 37.4199 183.2 37.4199L183.21 37.4299ZM194.11 94.3301C194.11 104.55 188.53 111.65 180.78 111.65C172.26 111.65 167.8 104.35 167.8 93.8501C167.8 82.3701 173.8 74.3101 183.3 74.3101H194.12V94.3401L194.11 94.3301ZM281.99 39.21L262.01 113.01L241.06 39.21H221.36L243.22 116.21H263.34L284.15 39.21H281.99ZM295.2 39.21V116.21H315.1V39.21H295.2ZM305.03 5.26001C298.61 5.26001 293.93 9.91993 293.93 16.1799C293.93 22.4399 298.61 27.24 305.03 27.24C311.45 27.24 315.99 22.4399 315.99 16.1799C315.99 9.91993 311.17 5.26001 305.03 5.26001ZM396.26 48.45C389.14 40.87 378.95 36.28 367.01 36.28C355.07 36.28 344.88 40.87 337.76 48.45C330.22 55.54 325.68 65.63 325.68 77.52C325.68 89.41 330.22 99.5001 337.76 106.59C344.88 114.17 355.07 118.76 367.01 118.76C378.95 118.76 389.14 114.17 396.26 106.59C403.8 99.5001 408.41 89.41 408.41 77.52C408.34 65.63 403.8 55.54 396.26 48.45ZM385.93 96.3C382.65 109.1 375.67 115.63 366.94 115.63C357.59 115.63 351.16 108.33 348.02 96.3601C335.18 93.0901 328.62 86.1399 328.62 77.4399C328.62 68.1199 335.95 61.7201 347.95 58.5901C351.23 45.7901 358.14 39.26 366.94 39.26C375.74 39.26 382.64 46.56 385.86 58.53C398.7 61.8 405.26 68.68 405.26 77.45C405.26 86.7 397.93 93.17 385.93 96.3ZM384.32 60.27C380.06 55.75 374.06 53.04 366.94 53.04C359.82 53.04 353.82 55.75 349.56 60.27C345.44 64.65 343.07 70.7 343.07 77.52C343.07 84.34 345.44 90.39 349.56 94.77C353.82 99.29 359.82 102 366.94 102C374.06 102 380.06 99.29 384.32 94.77C388.44 90.39 390.81 84.34 390.81 77.52C390.88 70.63 388.44 64.58 384.32 60.27ZM378.25 88.72C376.3 96.3 372.18 100.2 367.01 100.2C361.43 100.2 357.66 95.89 355.77 88.72C348.16 86.77 344.25 82.67 344.25 77.52C344.25 71.96 348.58 68.2001 355.7 66.3201C357.65 58.7401 361.77 54.8401 367.01 54.8401C372.52 54.8401 376.36 59.15 378.25 66.25C385.86 68.2 389.77 72.3 389.77 77.52C389.7 83.01 385.37 86.84 378.25 88.72ZM377.27 67.3C374.76 64.66 371.2 63.0601 367.01 63.0601C362.82 63.0601 359.26 64.66 356.75 67.3C354.31 69.87 352.91 73.42 352.91 77.52C352.91 81.62 354.31 85.17 356.75 87.74C359.26 90.38 362.82 91.98 367.01 91.98C371.2 91.98 374.76 90.38 377.27 87.74C379.71 85.17 381.11 81.62 381.11 77.52C381.11 73.42 379.64 69.87 377.27 67.3ZM373.64 84.1299C372.45 88.6499 370.01 90.95 367.01 90.95C363.73 90.95 361.5 88.38 360.38 84.2C355.84 83.02 353.61 80.6501 353.61 77.5901C353.61 74.3201 356.19 72.1 360.38 70.98C361.5 66.46 363.94 64.23 367.01 64.23C370.29 64.23 372.52 66.8 373.64 70.98C378.18 72.09 380.48 74.5301 380.48 77.5901C380.41 80.7201 377.83 83.0099 373.64 84.1299Z" fill="#F0EFF4"/>
</svg>
