<svg width="863" height="421" viewBox="0 0 863 421" fill="none" xmlns="http://www.w3.org/2000/svg">
<path opacity="0.04" d="M736.09 -87.72C661.89 -165.37 555.69 -212.38 431.3 -212.38C306.91 -212.38 200.71 -165.36 126.51 -87.72C47.9499 -15.06 0.669922 88.23 0.669922 210.05C0.669922 331.87 47.9499 435.16 126.51 507.82C200.71 585.47 306.91 632.48 431.3 632.48C555.69 632.48 661.89 585.46 736.09 507.82C814.65 435.16 862.66 331.87 862.66 210.05C861.93 88.2401 814.65 -15.06 736.09 -87.72ZM628.43 402.38C594.24 533.45 521.5 600.42 430.57 600.42C333.09 600.42 266.17 525.62 233.44 403.1C99.5899 369.62 31.2199 298.38 31.2199 209.34C31.2199 113.88 107.6 48.35 232.72 16.29C266.91 -114.78 338.92 -181.75 430.58 -181.75C522.24 -181.75 594.25 -106.95 627.71 15.5701C761.56 49.0501 829.93 119.57 829.93 209.33C829.93 304.07 753.55 370.32 628.43 402.38ZM611.7 33.3799C567.33 -12.9201 504.77 -40.71 430.57 -40.71C356.37 -40.71 293.81 -12.9301 249.44 33.3799C206.52 78.2599 181.79 140.23 181.79 210.04C181.79 279.85 206.52 341.83 249.44 386.7C293.81 433 356.37 460.79 430.57 460.79C504.77 460.79 567.33 433.01 611.7 386.7C654.62 341.82 679.35 279.85 679.35 210.04C680.08 139.52 654.62 77.5399 611.7 33.3799ZM548.41 324.73C528.04 402.38 485.12 442.27 431.29 442.27C373.1 442.27 333.81 398.1 314.17 324.73C234.88 304.78 194.15 262.75 194.15 210.04C194.15 153.05 239.25 114.58 313.45 95.3501C333.82 17.7001 376.74 -22.1899 431.29 -22.1899C488.76 -22.1899 528.76 21.9799 548.41 94.6399C627.7 114.59 668.43 156.62 668.43 210.04C667.7 266.32 622.6 305.5 548.41 324.73ZM538.23 105.32C512.04 78.2501 474.94 61.8701 431.3 61.8701C387.66 61.8701 350.55 78.2501 324.37 105.32C298.91 131.68 284.36 168.01 284.36 210.04C284.36 252.07 298.91 288.4 324.37 314.76C350.56 341.83 387.66 358.21 431.3 358.21C474.94 358.21 512.04 341.83 538.23 314.76C563.69 288.4 578.24 252.07 578.24 210.04C578.24 168.01 562.96 131.68 538.23 105.32ZM500.4 277.71C488.03 324.01 462.57 347.52 431.3 347.52C397.11 347.52 373.83 321.16 362.19 278.42C314.91 266.31 291.63 242.09 291.63 210.75C291.63 177.27 318.54 154.47 362.19 143.08C373.83 96.7801 399.29 73.98 431.3 73.98C465.49 73.98 488.77 100.34 500.4 143.08C547.68 154.48 571.69 179.41 571.69 210.75C570.96 242.81 544.05 266.31 500.4 277.71Z" fill="#F0EFF4"/>
</svg>
